<?xml version="1.0" standalone="no"?>
<!DOCTYPE svg PUBLIC "-//W3C//DTD SVG 1.1//EN" "http://www.w3.org/Graphics/SVG/1.1/DTD/svg11.dtd" >
<svg xmlns="http://www.w3.org/2000/svg" xmlns:xlink="http://www.w3.org/1999/xlink" version="1.1">
<metadata>
Created by FontForge 20161003 at Thu Jan  2 11:27:34 2020
 By www-data
Copyright 2015 The Atma Project Authors (www.black-foundry.com)
</metadata>
<defs>
<font id="AtmaLight" horiz-adv-x="224" >
  <font-face 
    font-family="AtmaLight"
    font-weight="300"
    font-stretch="normal"
    units-per-em="1000"
    panose-1="0 0 0 0 0 0 0 0 0 0"
    ascent="800"
    descent="-200"
    x-height="515"
    cap-height="679"
    bbox="-602 -428 1316 981.333"
    underline-thickness="0"
    underline-position="0"
    unicode-range="U+000D-FB02"
  />
<missing-glyph horiz-adv-x="0" 
 />
    <glyph glyph-name=".notdef" horiz-adv-x="0" 
 />
    <glyph glyph-name=".null" horiz-adv-x="0" 
 />
    <glyph glyph-name=".null" horiz-adv-x="0" 
 />
    <glyph glyph-name="nonmarkingreturn" horiz-adv-x="333" 
 />
    <glyph glyph-name="CR" unicode="&#xd;" horiz-adv-x="0" 
 />
    <glyph glyph-name="space" unicode=" " horiz-adv-x="180" 
 />
    <glyph glyph-name="exclam" unicode="!" horiz-adv-x="199" 
d="M73 202q-7 128 -10 234.5t-3 232.5v38t1 21q12 5 20.5 7t17.5 2h9t16 -2q-10 -114 -12.5 -244t2.5 -290q-4 -1 -8 -1.5t-9 -0.5q-7 0 -12.5 0.5t-11.5 2.5zM98 -1q-4 0 -8.5 0.5t-17.5 1.5q-1 17 -1 32.5t1 30.5q16 2 28.5 2t25.5 -2q1 -16 2 -37t1 -25q-8 -2 -16 -2.5
t-15 -0.5z" />
    <glyph glyph-name="quotedbl" unicode="&#x22;" horiz-adv-x="220" 
d="M61 738q5 0 10.5 -1t7.5 -1q2 -50 -0.5 -102t-10.5 -133q-6 -2 -16 -2.5t-21 0.5q1 79 -0.5 130.5t-5.5 105.5q7 1 17 2t19 1zM161 738q5 0 10.5 -1t7.5 -1q2 -50 -0.5 -102t-10.5 -133q-6 -2 -16 -2.5t-21 0.5q1 79 -0.5 130.5t-5.5 105.5q7 1 17 2t19 1z" />
    <glyph glyph-name="numbersign" unicode="#" horiz-adv-x="600" 
d="M193 224q47 -6 91.5 -8.5t86.5 -2.5q12 39 22.5 78t18.5 76q-48 0 -91.5 2t-85.5 6q-8 -36 -18.5 -73.5t-23.5 -77.5zM405 170q-21 -60 -41 -110.5t-41 -98.5q-20 4 -28.5 7.5t-16.5 7.5q23 48 42.5 96.5t36.5 97.5q-46 1 -90 4.5t-87 9.5q-19 -54 -40.5 -108t-45.5 -111
q-17 4 -27 7.5t-18 8.5q24 49 45 101.5t40 107.5q-70 13 -89 16.5t-35 7.5q0 10 1 19t5 24q37 -9 69 -15.5t62 -10.5q13 40 23 77.5t18 72.5q-45 6 -86 13t-80 16q0 14 1.5 24t4.5 19q39 -10 81.5 -17.5t87.5 -13.5q10 51 17.5 101t11.5 97q10 -2 19.5 -6t24.5 -11
q-5 -52 -11.5 -98t-14.5 -89q44 -4 88.5 -5.5t88.5 -0.5q11 52 18.5 103t11.5 102q11 -2 21 -5.5t23 -10.5q-5 -53 -11.5 -99t-14.5 -89q30 1 60.5 3.5t60.5 5.5q0 -6 -1.5 -13.5t-6.5 -28.5q-53 -5 -77 -6.5t-45 -2.5q-9 -44 -19.5 -82.5t-21.5 -73.5q43 1 82.5 3.5
t76.5 6.5q-1 -11 -3 -20.5t-5 -21.5q-46 -5 -86.5 -7.5t-78.5 -3.5z" />
    <glyph glyph-name="dollar" unicode="$" horiz-adv-x="329" 
d="M189 46q2 -38 1.5 -62.5t-2.5 -43.5q-11 -4 -21 -4.5t-26 1.5q5 34 6.5 58.5t0.5 51.5q-56 9 -86.5 58t-30.5 129q15 4 29 6t26 1q-4 -72 20 -112t72 -40q39 0 60 23.5t21 66.5q0 38 -20.5 72.5t-88.5 94.5q-73 63 -96.5 105.5t-23.5 90.5q0 59 30.5 95.5t85.5 43.5
q-5 29 -7 50t-1 36q10 5 21 6t27 0q-1 -18 -1 -40.5t2 -51.5q50 -6 77.5 -41t37.5 -107q-10 -5 -22 -8t-26 -4q-8 61 -29.5 89t-59.5 28t-59 -23.5t-21 -66.5q0 -42 21.5 -79t88.5 -94q74 -65 96.5 -105t22.5 -85q0 -59 -34 -96.5t-91 -42.5z" />
    <glyph glyph-name="percent" unicode="%" horiz-adv-x="758" 
d="M497 778q14 -6 24.5 -11.5t20.5 -12.5q-76 -191 -156.5 -364t-208.5 -419q-6 2 -11 4.5t-10 6.5q-4 2 -10 7t-9 7q104 200 181.5 368t178.5 414zM40 523q0 107 43.5 167.5t120.5 60.5q58 0 91 -48t33 -130q0 -123 -39.5 -190t-111.5 -67q-62 0 -99.5 58t-37.5 149z
M275 546q0 87 -20 127.5t-63 40.5q-44 0 -71.5 -50.5t-27.5 -133.5q0 -79 25.5 -128t66.5 -49t65.5 52.5t24.5 140.5zM430 197q0 107 43.5 167.5t120.5 60.5q58 0 91 -48t33 -130q0 -123 -39.5 -190t-111.5 -67q-62 0 -99.5 58t-37.5 149zM665 220q0 87 -20 127.5t-63 40.5
q-44 0 -71.5 -50.5t-27.5 -133.5q0 -79 25.5 -128t66.5 -49t65.5 52.5t24.5 140.5z" />
    <glyph glyph-name="ampersand" unicode="&#x26;" horiz-adv-x="744" 
d="M358 679q-37 0 -60 -40.5t-23 -110.5q0 -26 2.5 -51t6.5 -50q70 16 106.5 55.5t36.5 98.5q0 47 -18 72.5t-51 25.5zM95 189q0 -91 58.5 -145t155.5 -54q46 0 87.5 17.5t76.5 51.5q-87 63 -146 143.5t-86 173.5q-67 -19 -106.5 -68.5t-39.5 -118.5zM685 2
q-5 -12 -15.5 -22t-24.5 -16q-37 15 -69.5 32t-60.5 35q-41 -41 -94.5 -63t-110.5 -22q-123 0 -196.5 66.5t-73.5 172.5q0 84 49.5 143t142.5 85q-6 28 -9 57t-3 59q0 89 38.5 140.5t105.5 51.5q52 0 85 -37.5t33 -97.5q0 -71 -48.5 -120.5t-141.5 -72.5q23 -86 77 -159.5
t137 -133.5q25 38 38.5 83.5t13.5 95.5q0 30 -2.5 53.5t-8.5 50.5q12 3 26.5 3.5t30.5 -1.5q4 -26 5.5 -49t1.5 -46q0 -64 -15.5 -118.5t-46.5 -99.5q28 -18 62 -35.5t74 -34.5z" />
    <glyph glyph-name="quotesingle" unicode="'" horiz-adv-x="120" 
d="M61 738q5 0 10.5 -1t7.5 -1q2 -50 -0.5 -102t-10.5 -133q-6 -2 -16 -2.5t-21 0.5q1 79 -0.5 130.5t-5.5 105.5q7 1 17 2t19 1z" />
    <glyph glyph-name="parenleft" unicode="(" horiz-adv-x="331" 
d="M321 761q-119 -72 -180 -186t-61 -260q0 -143 60 -254.5t177 -184.5q-16 -17 -25 -24.5t-17 -11.5q-124 86 -187 204.5t-63 264.5q0 157 64.5 281t189.5 207q8 -4 17 -11.5t25 -24.5z" />
    <glyph glyph-name="parenright" unicode=")" horiz-adv-x="336" 
d="M10 -124q119 73 182.5 189.5t63.5 256.5q0 143 -58 258t-164 182q16 17 25 24.5t17 11.5q113 -79 174 -201t61 -269q0 -152 -67 -278t-192 -210q-8 4 -17 11.5t-25 24.5z" />
    <glyph glyph-name="asterisk" unicode="*" horiz-adv-x="427" 
d="M233 476q0 -41 1.5 -77.5t4.5 -81.5q-7 -1 -17 -2t-19 -1q-5 0 -10.5 1t-7.5 1q-1 33 0.5 68.5t6.5 92.5q-31 -19 -61 -38t-73 -48q-1 1 -9.5 13t-11.5 19q-2 4 -4 8.5t-3 6.5q26 17 56 33t85 42q-26 15 -53 29.5t-86 43.5q6 14 9.5 21.5t6.5 12.5q2 4 5 8t5 6
q33 -18 64 -37t72 -48q0 40 -1.5 76t-4.5 81q7 1 17 2t19 1q5 0 10.5 -1t7.5 -1q1 -32 0 -67t-6 -94q47 28 76 47t57 39q1 -1 9.5 -13t11.5 -19q2 -4 4 -8.5t3 -6.5q-23 -15 -50 -29.5t-93 -45.5q36 -21 69 -38t72 -35q-6 -14 -9.5 -21.5t-6.5 -12.5q-2 -4 -5 -8t-5 -6
q-29 15 -58 33.5t-78 53.5z" />
    <glyph glyph-name="plus" unicode="+" horiz-adv-x="341" 
d="M192 316q-1 -38 -3 -67t-5 -55q-10 -2 -20.5 -2t-21.5 3q4 33 6 62.5t2 58.5q-37 1 -67 3t-56 5q0 11 1 20.5t4 21.5q32 -4 61 -6t57 -2q0 26 -1.5 55.5t-4.5 63.5q10 2 20 2t20 -2q3 -25 5 -53.5t3 -65.5q26 0 56 1.5t66 4.5q0 -11 -1 -21t-3 -19q-24 -3 -52.5 -5
t-65.5 -3z" />
    <glyph glyph-name="comma" unicode="," horiz-adv-x="114" 
d="M37 70q12 1 25.5 0.5t29.5 -2.5q-2 -70 -15.5 -137t-43.5 -151q-10 2 -19 4t-19 6q19 77 29 142t13 138z" />
    <glyph glyph-name="hyphen" unicode="-" horiz-adv-x="264" 
d="M231 260q-63 -6 -114.5 -4.5t-86.5 10.5q0 23 1 33t3 20q25 -5 59 -7.5t66 -2.5q24 0 42.5 1t32.5 3q0 -19 -0.5 -30.5t-2.5 -22.5z" />
    <glyph glyph-name="period" unicode="." horiz-adv-x="149" 
d="M35 66q22 5 41 5.5t38 -2.5q-1 -26 -2.5 -40t-3.5 -28q-20 -2 -36.5 -2t-33.5 2q0 5 -0.5 11t-0.5 16l-1.5 22.5t-0.5 15.5z" />
    <glyph glyph-name="slash" unicode="/" horiz-adv-x="465" 
d="M409 744q9 -4 17.5 -9t23.5 -15q-85 -204 -194 -436t-237 -483q-15 5 -26.5 10.5t-22.5 14.5q84 144 187.5 360.5t251.5 557.5z" />
    <glyph glyph-name="zero" unicode="0" horiz-adv-x="490" 
d="M40 313q0 171 61 265.5t171 94.5q83 0 130.5 -77.5t47.5 -208.5q0 -198 -54 -302.5t-155 -104.5q-89 0 -145 93.5t-56 239.5zM395 347q0 145 -33.5 213.5t-103.5 68.5q-73 0 -118 -84t-45 -224q0 -134 41.5 -215.5t110.5 -81.5q68 0 108 87t40 236z" />
    <glyph glyph-name="one" unicode="1" horiz-adv-x="313" 
d="M185 -43q-4 -1 -9.5 -1h-16.5q4 73 9 126.5t14 122.5q13 107 31 206t39 182q-40 -35 -88.5 -70.5t-108.5 -73.5q-12 11 -18 19t-12 20q83 49 150 99.5t121 105.5q13 -8 19.5 -12.5t12.5 -10.5q-38 -98 -71.5 -293t-52.5 -415q-4 -2 -9 -3z" />
    <glyph glyph-name="two" unicode="2" horiz-adv-x="368" 
d="M358 21q-1 -13 -5 -25.5t-10 -26.5q-114 10 -193.5 22t-144.5 30q1 11 3 22t6 21q152 116 216.5 211t64.5 205q0 53 -24.5 85t-66.5 32t-73 -42t-44 -116q-11 0 -24.5 3.5t-27.5 9.5q18 90 63 139.5t107 49.5q65 0 105 -46t40 -122q0 -99 -73 -208t-213 -217
q72 -14 139 -20t155 -7z" />
    <glyph glyph-name="three" unicode="3" horiz-adv-x="377" 
d="M377 154q0 -96 -46.5 -153.5t-121.5 -57.5t-123.5 61.5t-53.5 169.5q11 4 24 6.5t29 4.5q0 -94 33 -145.5t90 -51.5q54 0 84 39.5t30 110.5q0 102 -57.5 153.5t-162.5 42.5q-3 18 -3.5 24.5t-0.5 11.5q69 44 119 92.5t90 112.5q-107 -9 -172.5 -19.5t-126.5 -27.5
q-3 14 -3 27t2 27q98 18 183 27.5t166 10.5q1 -9 1.5 -19t-0.5 -22q-33 -61 -74.5 -108t-104.5 -96q97 -17 148 -73.5t51 -147.5z" />
    <glyph glyph-name="four" unicode="4" horiz-adv-x="478" 
d="M483 182q-1 -13 -4 -25t-8 -23q-58 3 -95 5.5t-69 5.5q-2 -42 -3 -89t-1 -98q-5 0 -10.5 0.5t-13.5 1.5q-5 1 -9.5 2t-9.5 3q-1 47 -1.5 67t-0.5 37v51t1 31q-49 6 -102.5 14.5t-119.5 20.5q-5 9 -9.5 18t-7.5 20q93 133 148.5 248t106.5 280q13 -2 27 -6.5t30 -12.5
q-51 -143 -113.5 -268t-137.5 -236q54 -12 97 -19.5t83 -12.5q4 59 10.5 110t15.5 97q6 3 13 4.5t15 2.5t16 0.5t14 -2.5q-12 -43 -20.5 -98t-13.5 -119q37 -3 79 -5.5t93 -4.5z" />
    <glyph glyph-name="five" unicode="5" horiz-adv-x="374" 
d="M348 183q0 -98 -46 -159t-119 -61q-79 0 -125.5 61.5t-52.5 173.5q8 0 28 -2t26 -3q0 -91 31.5 -138t91.5 -47q54 0 82.5 43.5t28.5 126.5q0 82 -36.5 129.5t-101.5 47.5q-19 0 -37.5 -4.5t-34.5 -12.5q-9 6 -15 12.5t-11 14.5q-2 21 -2.5 38t-0.5 35q0 58 6 118t15 104
q94 -21 159 -29t150 -10q-1 -13 -5.5 -27t-10.5 -28q-80 8 -135.5 16.5t-116.5 22.5q-11 -62 -15 -118.5t-1 -103.5q15 7 34.5 11t39.5 4q81 0 127.5 -57t46.5 -158z" />
    <glyph glyph-name="six" unicode="6" horiz-adv-x="447" 
d="M255 378q74 0 120.5 -53t46.5 -134q0 -108 -51.5 -174.5t-137.5 -66.5q-89 0 -141 92.5t-52 250.5q0 189 60 293.5t167 104.5q65 0 102 -45.5t50 -140.5q-13 -6 -26 -10t-28 -7q-8 82 -33.5 120.5t-71.5 38.5q-72 0 -118.5 -94.5t-46.5 -250.5v-22t1 -13q27 54 67.5 82.5
t91.5 28.5zM103 189q14 -92 49.5 -143.5t86.5 -51.5q55 0 91.5 50t36.5 120q0 80 -32.5 125t-89.5 45q-45 0 -82.5 -38.5t-59.5 -106.5z" />
    <glyph glyph-name="seven" unicode="7" horiz-adv-x="350" 
d="M365 618q-120 -179 -183 -308.5t-125 -316.5q-16 0 -28.5 2t-26.5 7q66 178 139 324t164 282q-105 -3 -172.5 1t-147.5 16q0 11 1.5 23.5t5.5 26.5q112 -18 184.5 -22.5t167.5 0.5q8 -10 13 -18.5t8 -16.5z" />
    <glyph glyph-name="eight" unicode="8" horiz-adv-x="423" 
d="M393 225q0 -101 -55 -166t-139 -65q-70 0 -117 50.5t-47 125.5q0 60 25.5 111.5t70.5 80.5q-39 22 -62.5 64.5t-23.5 93.5q0 94 47.5 148.5t128.5 54.5q66 0 111.5 -46.5t45.5 -116.5q0 -65 -20.5 -111.5t-60.5 -72.5q43 -22 69.5 -63t26.5 -88zM213 679q-49 0 -81 -43.5
t-32 -109.5q0 -61 30 -98.5t82 -37.5q3 0 7.5 0.5t6.5 0.5q44 6 70.5 45.5t26.5 99.5q0 68 -29 105.5t-81 37.5zM205 38q57 0 95 50.5t38 127.5q0 57 -32.5 94t-86.5 37q-53 0 -91 -47.5t-38 -118.5q0 -67 31 -105t84 -38z" />
    <glyph glyph-name="nine" unicode="9" horiz-adv-x="465" 
d="M103 480q0 -80 32.5 -124.5t89.5 -44.5q50 0 89 43.5t55 116.5q-12 94 -48 145t-90 51q-55 0 -91.5 -53t-36.5 -134zM430 382q0 -175 -70.5 -294t-176.5 -119q-44 0 -80 21t-68 65q8 14 16 24.5t18 21.5q22 -45 52 -66.5t70 -21.5q76 0 130 103.5t54 250.5
q-29 -48 -70 -74t-90 -26q-71 0 -119 57.5t-48 141.5q0 107 52.5 176t132.5 69q92 0 144.5 -87.5t52.5 -241.5z" />
    <glyph glyph-name="colon" unicode=":" horiz-adv-x="149" 
d="M83 546q12 0 18.5 -0.5t12.5 -1.5q-1 -26 -2.5 -40t-3.5 -28q-20 -2 -36.5 -2t-33.5 2q0 5 -0.5 11t-0.5 16l-1.5 22.5t-0.5 15.5q11 2 23 3.5t25 1.5zM35 66q22 5 41 5.5t38 -2.5q-1 -26 -2.5 -40t-3.5 -28q-20 -2 -36.5 -2t-33.5 2q0 5 -0.5 11t-0.5 16l-1.5 22.5
t-0.5 15.5z" />
    <glyph glyph-name="semicolon" unicode=";" horiz-adv-x="149" 
d="M114 544q-1 -26 -2.5 -40t-3.5 -28q-20 -2 -36.5 -2t-33.5 2q0 5 -0.5 11t-0.5 16l-1.5 22.5t-0.5 15.5q11 2 23 3.5t25 1.5q12 0 18.5 -0.5t12.5 -1.5zM42 70q12 1 26.5 0.5t30.5 -2.5q2 -69 -13.5 -137t-50.5 -151q-7 1 -14.5 3t-20.5 7q24 93 33 154t9 126z" />
    <glyph glyph-name="less" unicode="&#x3c;" horiz-adv-x="340" 
d="M308 218q-1 -9 -4 -18t-9 -19q-85 33 -148.5 67t-115.5 74l3 35q57 41 117.5 73.5t146.5 67.5q2 -6 6.5 -17.5t6.5 -19.5q-69 -30 -124.5 -59.5t-106.5 -63.5q38 -28 91.5 -56t136.5 -64z" />
    <glyph glyph-name="equal" unicode="=" horiz-adv-x="341" 
d="M32 359q0 11 1 20.5t4 21.5q68 -8 132 -8.5t150 6.5q0 -11 -1 -21t-3 -19q-68 -8 -140 -8t-143 8zM22 239q0 11 1 20.5t4 21.5q68 -8 132 -8.5t150 6.5q0 -11 -1 -21t-3 -19q-68 -8 -140 -8t-143 8z" />
    <glyph glyph-name="greater" unicode="&#x3e;" horiz-adv-x="340" 
d="M43 181q-2 5 -6.5 17t-6.5 21q69 30 124.5 59.5t106.5 63.5q-38 28 -91.5 56t-136.5 64q1 9 4 18t9 19q85 -33 148.5 -67t115.5 -74l-3 -35q-56 -40 -116.5 -72.5t-147.5 -69.5z" />
    <glyph glyph-name="question" unicode="?" horiz-adv-x="353" 
d="M177 361v-161q-9 -1 -18.5 -1t-18.5 1q0 2 -6 72.5t-7 115.5q69 17 105 63.5t36 119.5q0 67 -26.5 107.5t-70.5 40.5q-51 0 -78.5 -47.5t-27.5 -133.5q-12 0 -24.5 2t-25.5 5q7 110 47 164t115 54q66 0 106 -51.5t40 -136.5q0 -76 -38.5 -132.5t-107.5 -81.5zM191 64
q1 -16 2 -37t1 -25q-8 -2 -16 -2.5t-15 -0.5q-4 0 -8.5 0.5t-17.5 1.5q-1 17 -1 32.5t1 30.5q16 2 28.5 2t25.5 -2z" />
    <glyph glyph-name="at" unicode="@" horiz-adv-x="875" 
d="M634 -33q-48 -29 -105 -44.5t-118 -15.5q-163 0 -264.5 106t-101.5 279q0 196 108 311t293 115q168 0 263.5 -100t95.5 -263q0 -120 -53 -195t-135 -75q-46 0 -76 25.5t-42 74.5q-18 -45 -45 -67t-66 -22q-59 0 -96.5 55t-37.5 144q0 108 48 173t126 65q14 0 29.5 -2.5
t30.5 -7.5v13.5v13.5q13 6 29.5 7t33.5 -3q-6 -81 -8.5 -138t-2.5 -104q0 -97 18 -140t60 -43q58 0 95 63t37 165q0 142 -85 229.5t-231 87.5q-149 0 -241.5 -101.5t-92.5 -267.5q0 -163 86 -258.5t233 -95.5q60 0 106 14t81 44q7 -7 12.5 -14t15.5 -28zM309 304
q0 -77 21.5 -120.5t59.5 -43.5q35 0 60.5 30t40.5 88v1q0 16 -0.5 41t-1.5 84q0 40 -0.5 60t-0.5 37q-10 4 -23 6t-29 2q-56 0 -91.5 -51t-35.5 -134z" />
    <glyph glyph-name="A" unicode="A" horiz-adv-x="605" 
d="M582 -85q-12 -7 -24.5 -11t-31.5 -7q-16 106 -31.5 187.5t-32.5 148.5q-72 1 -142.5 -3.5t-132.5 -14.5q-21 -53 -48 -110.5t-62 -124.5q-14 3 -25 8.5t-27 19.5q92 161 148 312.5t107 384.5q33 -3 43.5 -4t19.5 -3q102 -203 153 -372.5t86 -410.5zM314 636
q-26 -115 -51.5 -203.5t-57.5 -171.5q55 8 118 13t128 6q-27 96 -59 180.5t-78 175.5z" />
    <glyph glyph-name="B" unicode="B" horiz-adv-x="562" 
d="M519 258q0 -115 -90 -196.5t-220 -81.5q-35 0 -69.5 9t-55.5 23q-7 196 -9.5 302.5t-2.5 223.5v25.5v42.5q-1 37 -1 58v41q38 17 81 26t88 9q108 0 168.5 -43t60.5 -120q0 -53 -30.5 -93t-90.5 -67q84 -10 127.5 -50.5t43.5 -108.5zM409 572q0 59 -42 91.5t-120 32.5
q-29 0 -57.5 -4t-54.5 -12q-5 -65 -7 -132.5t-1 -144.5q147 12 214.5 52t67.5 117zM135 42q19 -8 40 -12.5t43 -4.5q99 0 170 65t71 153q0 71 -41 105t-124 34q-38 0 -85.5 -8.5t-81.5 -20.5q1 -17 1 -35.5v-52.5q0 -71 1.5 -122t5.5 -101z" />
    <glyph glyph-name="C" unicode="C" horiz-adv-x="535" 
d="M422 220q15 0 25.5 -2t24.5 -8q-6 -120 -57.5 -182.5t-144.5 -62.5q-106 0 -164 83.5t-58 236.5q0 183 72.5 295.5t191.5 112.5q85 0 124 -56t34 -173q-9 -7 -25.5 -11t-33.5 -3q8 105 -17.5 150.5t-91.5 45.5q-47 0 -88.5 -35.5t-68.5 -99.5q-18 -44 -27.5 -98
t-9.5 -117q0 -137 42.5 -210.5t122.5 -73.5q72 0 111.5 56t37.5 152z" />
    <glyph glyph-name="D" unicode="D" horiz-adv-x="566" 
d="M522 445q0 -153 -104.5 -275.5t-286.5 -181.5l-3.5 0.5t-14.5 2.5q-19 2 -25 3t-7 1q-7 147 -10 264.5t-3 248.5q0 42 1 88.5t2 81.5q38 20 82.5 29.5t95.5 9.5q133 0 203 -70t70 -202zM134 652q-5 -80 -7 -146t-2 -270q0 -66 1 -112t3 -89q164 61 248 165.5t84 247.5
q0 109 -57.5 165.5t-169.5 56.5q-28 0 -52.5 -4.5t-47.5 -13.5z" />
    <glyph glyph-name="E" unicode="E" horiz-adv-x="505" 
d="M463 -14q-86 -12 -161.5 -18t-175.5 -9q-29 197 -47.5 393.5t-20.5 340.5q134 23 213 31.5t169 10.5q1 -13 0 -24.5t-3 -22.5q-82 -1 -159.5 -8.5t-159.5 -22.5q-1 -73 1.5 -140.5t8.5 -140.5q134 21 176.5 26.5t85.5 9.5q3 -12 4 -23t0 -22q-76 -6 -131 -13t-131 -21
q8 -84 18.5 -167.5t22.5 -161.5q95 3 159 10.5t129 21.5q3 -11 3.5 -25.5t-1.5 -24.5z" />
    <glyph glyph-name="F" unicode="F" horiz-adv-x="497" 
d="M151 325q5 -187 5.5 -257.5t-0.5 -141.5q-12 -2 -27.5 -3t-25.5 0q5 240 -6 431t-39 369q116 9 198 20t183 31q3 -6 4.5 -12t2.5 -11q1 -7 1.5 -13.5t-0.5 -14.5q-107 -19 -178.5 -28.5t-146.5 -14.5q10 -71 16 -136t9 -126q52 9 108.5 16t126.5 12q3 -12 4 -23t1 -23
q-54 -3 -114 -9.5t-123 -16.5v-10t1 -15v-15v-9z" />
    <glyph glyph-name="G" unicode="G" horiz-adv-x="556" 
d="M467 348q-2 -97 11 -186.5t42 -184.5q-7 -2 -19 -3.5t-26 -2.5q-14 35 -25.5 72.5t-20.5 78.5q-34 -73 -80 -108t-109 -35q-88 0 -140 87.5t-52 239.5q0 188 68.5 303t181.5 115q78 0 122 -64t42 -172q-12 -4 -26.5 -6t-32.5 -4q-1 98 -31.5 148.5t-88.5 50.5
q-76 0 -125.5 -100t-49.5 -254q0 -140 37.5 -218t101.5 -78q58 0 100 46t66 135q-4 28 -7 60.5t-6 72.5q16 3 34 5t33 2z" />
    <glyph glyph-name="H" unicode="H" horiz-adv-x="589" 
d="M489 737q9 -183 15 -409.5t6 -382.5q-11 0 -26.5 2.5t-29.5 5.5q0 78 -1.5 186t-4.5 213q-97 0 -175 -4.5t-146 -14.5q1 -87 3.5 -170.5t7.5 -150.5q-12 -3 -26 -4t-26 0q-9 168 -13.5 338.5t-4.5 362.5q7 2 16.5 3.5t19.5 1.5q9 0 16 -1t15 -3q-5 -57 -7.5 -145.5
t-1.5 -190.5q73 13 151 19t170 7q-3 106 -7.5 193.5t-9.5 142.5q13 4 20.5 5t15.5 1q7 0 13 -1.5t10 -3.5z" />
    <glyph glyph-name="I" unicode="I" horiz-adv-x="219" 
d="M136 481q0 -276 -1.5 -349.5t-3.5 -153.5q-7 -2 -19.5 -3.5t-28.5 -2.5q3 191 -0.5 366.5t-13.5 331.5q10 5 20 7t21 2q4 0 8.5 -0.5t11.5 -1.5q3 -43 4.5 -87.5t1.5 -108.5z" />
    <glyph glyph-name="J" unicode="J" horiz-adv-x="445" 
d="M334 43q-20 -65 -54.5 -98t-82.5 -33q-65 0 -105.5 64t-53.5 188q10 6 22 10t32 9q15 -123 38.5 -173.5t69.5 -50.5q51 0 76.5 68t25.5 205q0 104 -7 212t-25 267q7 4 15.5 7t18.5 4q7 1 15.5 2t16.5 1q13 -122 19.5 -221.5t6.5 -181.5q0 -96 -7 -163.5t-21 -115.5z" />
    <glyph glyph-name="K" unicode="K" horiz-adv-x="547" 
d="M533 -40q-11 -14 -20.5 -22.5t-21.5 -15.5q-72 122 -133.5 200t-155.5 168q-8 -7 -27 -22.5t-48 -39.5q2 -75 7 -141t16 -151q-27 -4 -35.5 -4.5t-14.5 -0.5q-18 146 -25 255.5t-7 253.5q0 50 2.5 113.5t8.5 146.5q13 2 22 3t16 1q8 0 16 -1t16 -3q-12 -78 -17.5 -157
t-5.5 -200v-34.5v-35.5q111 98 171 177.5t133 230.5q11 -5 22 -14.5t22 -22.5q-60 -111 -113 -183t-123 -138q90 -83 146.5 -153t148.5 -210z" />
    <glyph glyph-name="L" unicode="L" horiz-adv-x="471" 
d="M457 -22q2 -11 3 -26t1 -24q-92 -1 -168.5 -6t-172.5 -19q-27 203 -38 393.5t-6 369.5q11 5 20 6.5t22 1.5q5 0 11.5 -0.5t10.5 -1.5q-5 -56 -6.5 -117.5t-0.5 -162.5q2 -121 9.5 -223t23.5 -212q72 10 147.5 15.5t143.5 5.5z" />
    <glyph glyph-name="M" unicode="M" horiz-adv-x="724" 
d="M638 -49q-13 -5 -27.5 -7t-29.5 -2q10 169 13 329.5t0 390.5q-64 -105 -114.5 -222t-96.5 -265q-9 -4 -19.5 -5.5t-20.5 -0.5q-42 144 -93 259.5t-120 225.5q-1 -17 -2 -51t-1 -86q0 -113 12 -242.5t36 -270.5q-13 -5 -27 -7t-27 -1q-27 164 -38.5 361.5t-3.5 374.5
q16 8 30 13.5t27 8.5q71 -102 129.5 -229t97.5 -262q36 119 90 239t131 252q16 -3 30.5 -7.5t27.5 -10.5q6 -133 5.5 -326t-9.5 -459z" />
    <glyph glyph-name="N" unicode="N" horiz-adv-x="616" 
d="M131 360q1 -61 5 -137t17 -257q-11 -2 -22.5 -3.5t-24.5 -2.5q-21 242 -29 398t-8 324q27 12 38.5 15.5t28.5 6.5q113 -144 194 -282.5t150 -301.5q2 37 3 84.5t1 148.5q0 143 -4 239.5t-13 152.5q16 5 31 8t32 4q4 -64 5.5 -113t1.5 -95q0 -166 -5 -280t-16 -246
q-8 -2 -18 -3t-27 -2q-76 175 -163.5 327t-179.5 267q-1 -59 1 -151t2 -101z" />
    <glyph glyph-name="O" unicode="O" horiz-adv-x="591" 
d="M319 733q109 0 165.5 -88t56.5 -257q0 -173 -72 -290.5t-195 -117.5q-100 0 -163 101.5t-63 260.5q0 170 76 280.5t195 110.5zM276 27q94 0 149.5 98.5t55.5 251.5q0 157 -41 232.5t-128 75.5q-88 0 -145.5 -93.5t-57.5 -240.5q0 -140 45 -232t122 -92z" />
    <glyph glyph-name="P" unicode="P" horiz-adv-x="536" 
d="M123 237q1 -67 5.5 -137.5t13.5 -167.5q-8 -2 -25.5 -1.5t-24.5 2.5q-13 161 -18 278t-5 327q0 38 2 93t5 90q50 11 89 16t77 5q122 0 188.5 -51.5t66.5 -143.5q0 -102 -90 -177t-284 -133zM138 683q-8 -86 -11.5 -163t-3.5 -163v-36v-36q156 42 235 106.5t79 150.5
q0 76 -48.5 116t-141.5 40q-29 0 -55.5 -3.5t-53.5 -11.5z" />
    <glyph glyph-name="Q" unicode="Q" horiz-adv-x="580" 
d="M568 -60q-9 -13 -19 -23.5t-21 -17.5q-35 49 -58.5 80t-44.5 54q-34 -36 -75 -54.5t-88 -18.5q-97 0 -157.5 86.5t-60.5 231.5q0 174 76 284.5t198 110.5q103 0 158 -83t55 -233q0 -83 -19.5 -157t-55.5 -128q18 -20 40.5 -46.5t71.5 -85.5zM104 287q0 -130 42.5 -205
t116.5 -75q37 0 70 16t59 47q-20 21 -43 41.5t-54 45.5q1 1 10 14.5t16 18.5q35 -27 57 -45t40 -36q26 45 39.5 105.5t13.5 131.5q0 138 -40.5 208.5t-119.5 70.5q-92 0 -149.5 -93.5t-57.5 -244.5z" />
    <glyph glyph-name="R" unicode="R" horiz-adv-x="549" 
d="M525 0q-6 -6 -23 -14t-28 -10q-53 121 -95.5 197.5t-98.5 152.5q-32 -14 -65.5 -25.5t-68.5 -20.5q-3 -80 -7 -150t-10 -135q-10 -2 -25 -1.5t-22 3.5q6 118 7.5 161.5t1.5 89.5q0 175 -4.5 258.5t-17.5 200.5q43 30 97 46.5t108 16.5q93 0 148.5 -51t55.5 -135
q0 -77 -37.5 -135t-114.5 -101q47 -57 97.5 -145t101.5 -203zM133 689q8 -90 11 -157.5t3 -136.5v-34v-34q138 33 205 93t67 150q0 75 -38.5 114.5t-110.5 39.5q-37 0 -72.5 -9t-64.5 -26z" />
    <glyph glyph-name="S" unicode="S" horiz-adv-x="461" 
d="M378 279q20 -29 29.5 -63.5t9.5 -75.5q0 -80 -49.5 -130t-127.5 -50q-97 0 -149.5 72.5t-52.5 196.5q12 7 27 11.5t31 5.5q-1 -113 36.5 -176t106.5 -63q53 0 85.5 36t32.5 94q0 35 -9 65t-28 55q-13 18 -32 36t-62 49q-48 36 -70 57.5t-36 43.5q-20 30 -29.5 64.5
t-9.5 76.5q0 85 45.5 134t122.5 49q72 0 111 -42t58 -147q-11 -6 -23.5 -9t-31.5 -4q-10 82 -37 118.5t-80 36.5q-51 0 -78 -34t-27 -99q0 -36 9 -66t28 -56q14 -18 33 -36t62 -51q48 -35 69.5 -56t35.5 -43z" />
    <glyph glyph-name="T" unicode="T" horiz-adv-x="592" 
d="M356 33q-7 -3 -22.5 -5t-32.5 -3q6 166 -3.5 351t-31.5 348q-46 -5 -101 -12t-136 -19q-3 13 -4 27t0 24q159 25 273.5 35t256.5 12q3 -6 4.5 -12.5t2.5 -14.5q1 -6 0.5 -14.5t-0.5 -9.5q-69 -1 -125 -3.5t-108 -6.5q16 -152 23 -273t7 -248q0 -42 -0.5 -85.5t-2.5 -90.5
z" />
    <glyph glyph-name="U" unicode="U" horiz-adv-x="538" 
d="M427 705q24 -90 35.5 -175t11.5 -167q0 -225 -58.5 -334t-180.5 -109q-90 0 -133.5 87.5t-43.5 266.5q0 91 14.5 190.5t35.5 165.5q6 2 16.5 3t19.5 1q5 0 10 -0.5t12 -1.5q-23 -92 -35 -177.5t-12 -161.5q0 -173 29 -248.5t98 -75.5q80 0 124 91t44 256q0 104 -11 189.5
t-38 188.5q14 4 28 6.5t34 4.5z" />
    <glyph glyph-name="V" unicode="V" horiz-adv-x="549" 
d="M503 751q-26 -246 -74.5 -420.5t-162.5 -420.5q-12 -3 -21.5 -4t-22.5 -1q-73 165 -121 340.5t-75 369.5q17 8 29.5 12t27.5 6q19 -166 60 -328.5t107 -328.5q91 216 133.5 387.5t62.5 396.5q14 1 26.5 -1t30.5 -8z" />
    <glyph glyph-name="W" unicode="W" horiz-adv-x="715" 
d="M345 331q-21 -96 -51.5 -188t-74.5 -196q-14 -4 -23.5 -6t-16.5 -3q-76 238 -109 388.5t-50 333.5q14 5 27.5 8t30.5 4q10 -155 39 -301t88 -338q60 173 85 276.5t37 217.5q12 3 25.5 5t27.5 4q6 -135 26 -250t62 -251q71 180 110 337t58 338q14 0 28.5 -3.5t28.5 -11.5
q-30 -217 -75.5 -377t-128.5 -348q-14 -3 -25 -4.5t-24 -2.5q-42 130 -63 212t-32 156z" />
    <glyph glyph-name="X" unicode="X" horiz-adv-x="641" 
d="M569 8q-9 -10 -20 -18t-23 -14q-52 122 -96 214t-85 167q-73 -93 -144.5 -174t-148.5 -160q-10 7 -18.5 15t-13.5 17q93 98 164.5 181t134.5 166q-52 86 -110 162.5t-136 159.5q16 14 29.5 23t28.5 15q75 -90 129 -165t98 -150q53 73 98 144.5t85 145.5q12 -6 23.5 -16.5
t21.5 -23.5q-43 -72 -92 -144t-109 -152q41 -75 84 -166t100 -227z" />
    <glyph glyph-name="Y" unicode="Y" horiz-adv-x="504" 
d="M465 689q-78 -308 -149 -471t-172 -298q-13 4 -25 9t-23 12q45 63 82 124t66 123q-80 111 -132 230t-94 292q17 7 32.5 11.5t31.5 5.5q27 -134 72 -250t116 -232q43 99 74.5 213t54.5 255q17 -4 33.5 -10t32.5 -14z" />
    <glyph glyph-name="Z" unicode="Z" horiz-adv-x="585" 
d="M518 28q-1 -14 -5 -29t-12 -33q-121 1 -244 11t-230 28q-1 14 0 26t3 22q162 170 276 314t181 262q-107 10 -200 22.5t-188 29.5q1 15 5.5 29t13.5 27q82 -17 166.5 -31.5t271.5 -41.5q0 -1 -0.5 -4.5t-2.5 -15.5q-3 -13 -3.5 -16.5t-0.5 -4.5q-84 -134 -196 -273.5
t-269 -307.5q117 -14 227 -17.5t207 3.5z" />
    <glyph glyph-name="bracketleft" unicode="[" horiz-adv-x="341" 
d="M329 -86q1 -10 2 -22t1 -23q-45 -7 -97 -9.5t-109 -1.5q-34 233 -50 448.5t-15 446.5q45 12 95 19.5t107 11.5q1 -10 1 -21.5t-1 -23.5q-54 -4 -86.5 -7.5t-55.5 -8.5q-6 -225 5.5 -405t44.5 -417q38 0 80 3.5t78 9.5z" />
    <glyph glyph-name="backslash" unicode="\" horiz-adv-x="465" 
d="M56 745q-9 -4 -17.5 -9t-23.5 -15q85 -204 194 -436t237 -483q15 5 26.5 10.5t22.5 14.5q-84 144 -187.5 360.5t-251.5 557.5z" />
    <glyph glyph-name="bracketright" unicode="]" horiz-adv-x="313" 
d="M216 804q23 -134 26.5 -378t-13.5 -513q-46 -10 -95.5 -16.5t-106.5 -10.5q-1 10 -1 21.5t1 23.5q47 2 86.5 6.5t63.5 10.5q17 203 14 408.5t-25 405.5q-34 0 -73.5 -3.5t-79.5 -10.5q-1 10 -2 22t-1 23q45 7 97 9.5t109 1.5z" />
    <glyph glyph-name="asciicircum" unicode="^" horiz-adv-x="377" 
d="M347 228q-6 -2 -17.5 -6.5t-19.5 -6.5q-30 69 -59.5 124.5t-63.5 106.5q-28 -38 -56 -91.5t-64 -136.5q-9 1 -18 4t-19 9q33 85 67 148.5t74 115.5l35 -3q41 -57 73.5 -117.5t67.5 -146.5z" />
    <glyph glyph-name="underscore" unicode="_" horiz-adv-x="360" 
d="M365 -95q-88 -8 -169.5 -5.5t-165.5 14.5q1 18 2 27.5t3 17.5q50 -8 98.5 -12t104.5 -4q29 0 61.5 1.5t70.5 4.5q0 -9 -1 -19.5t-4 -24.5z" />
    <glyph glyph-name="grave" unicode="`" horiz-adv-x="260" 
d="M136 751q3 -38 13 -78.5t28 -92.5q-10 -3 -20 -4.5t-21 -2.5q-26 46 -41.5 89t-20.5 86q12 3 29.5 4t32.5 -1z" />
    <glyph glyph-name="a" unicode="a" horiz-adv-x="435" 
d="M374 338q0 -67 -18 -175.5t-43 -196.5q-11 0 -23.5 2.5t-25.5 7.5q4 16 9.5 40t6.5 27q-21 -17 -48 -26t-57 -9q-66 0 -106.5 36t-40.5 94q0 64 55 97.5t160 33.5q14 0 28.5 -0.5t42.5 -1.5q1 12 1 26.5v47.5q0 78 -21 112.5t-70 34.5t-82.5 -42t-35.5 -106
q-22 5 -34.5 11.5t-20.5 17.5q11 68 63.5 116t118.5 48q70 0 105.5 -49t35.5 -146zM86 138q0 -39 26 -62.5t68 -23.5q31 0 59.5 9.5t51.5 27.5q10 47 14.5 79.5t6.5 63.5q-112 7 -169 -16.5t-57 -77.5z" />
    <glyph glyph-name="b" unicode="b" horiz-adv-x="427" 
d="M386 306q0 -154 -59.5 -245t-159.5 -91q-32 0 -58 11t-48 33q-2 37 -3.5 85.5t-1.5 203.5q0 120 5 236.5t14 181.5q9 3 17.5 4t20.5 1q4 0 8 -0.5t20 -3.5q-10 -61 -17.5 -135t-12.5 -155q26 41 60.5 61t77.5 20q67 0 102 -53t35 -154zM106 38q14 -12 29 -17.5t36 -5.5
q75 0 115.5 76.5t40.5 213.5q0 81 -24.5 122t-72.5 41q-35 0 -69 -35.5t-55 -96.5q-1 -51 -1.5 -69t-0.5 -33q0 -82 0.5 -131t1.5 -65z" />
    <glyph glyph-name="c" unicode="c" horiz-adv-x="408" 
d="M366 368q-14 -7 -28.5 -10t-30.5 -3q0 70 -20 105.5t-59 35.5q-60 0 -103 -89t-43 -204q0 -86 29.5 -135t83.5 -49q40 0 73.5 32.5t57.5 94.5q12 -5 21.5 -11t16.5 -15q-16 -61 -67 -103.5t-110 -42.5q-77 0 -118 58.5t-41 165.5q0 149 56 246t142 97q66 0 103 -46
t37 -127z" />
    <glyph glyph-name="d" unicode="d" horiz-adv-x="437" 
d="M371 -36q-8 -3 -19.5 -4.5t-20.5 -1.5q-1 25 -2.5 58.5t-3.5 75.5q-18 -62 -49 -92t-78 -30q-75 0 -119.5 73.5t-44.5 192.5q0 129 56.5 205.5t152.5 76.5q17 0 36.5 -2.5t35.5 -7.5q-1 95 -1.5 136.5t-0.5 74.5q7 4 16 6t17 2t15.5 -1t14.5 -3q-4 -54 -6 -148t-2 -448
q0 -48 0.5 -83t2.5 -80zM89 245q0 -110 29.5 -170.5t81.5 -60.5q49 0 80 53.5t40 156.5q-1 21 -1.5 46.5t-1.5 77.5q0 49 -0.5 73t-1.5 45q-12 4 -28 6t-36 2q-73 0 -117.5 -61t-44.5 -168z" />
    <glyph glyph-name="e" unicode="e" horiz-adv-x="416" 
d="M97 309q31 -13 67 -19t83 -6q12 0 25.5 1.5t19.5 3.5q7 29 11 54t4 46q0 48 -16 68.5t-52 20.5q-46 0 -85 -47t-57 -122zM339 167q12 -2 24.5 -9t21.5 -17q-18 -58 -75 -104.5t-114 -46.5q-77 0 -121 64t-44 171q0 114 62.5 206.5t150.5 92.5q55 0 86.5 -36.5t31.5 -99.5
q0 -35 -6.5 -69t-18.5 -64q-19 -6 -45 -9t-62 -3q-35 0 -71 6.5t-70 18.5q-2 -12 -2.5 -23.5t-0.5 -23.5q0 -83 29.5 -134.5t79.5 -51.5q44 0 86.5 38.5t57.5 93.5z" />
    <glyph glyph-name="f" unicode="f" horiz-adv-x="365" 
d="M148 386q2 -115 13 -214t30 -181q-18 -6 -31.5 -9t-24.5 -3q-13 60 -25.5 185t-13.5 228q-18 3 -34 6.5t-28 8.5q0 12 1.5 22t4.5 13q9 -2 21 -3.5t35 -3.5q4 152 36.5 222t100.5 70q49 0 77.5 -34t28.5 -89q0 -16 -4 -34t-9 -28q-13 0 -25 2.5t-23 6.5q5 17 7.5 31.5
t2.5 28.5q0 32 -15 51.5t-40 19.5q-41 0 -63.5 -60.5t-22.5 -173.5v-8.5v-9.5q30 -1 48 -1.5t34 -0.5q17 0 34 1.5t34 4.5q0 -9 -1.5 -21.5t-3.5 -26.5q-11 -2 -28 -3t-40 -1q-22 0 -41 1t-35 3z" />
    <glyph glyph-name="g" unicode="g" horiz-adv-x="430" 
d="M105 253q0 -94 26.5 -148t71.5 -54q38 0 64.5 40t44.5 126q-3 72 -11.5 129t-25.5 113q-9 4 -20 6t-24 2q-64 0 -95 -53t-31 -161zM369 169q0 -201 -49.5 -308.5t-134.5 -107.5q-60 0 -99.5 43t-52.5 117q14 9 27.5 15t26.5 10q11 -74 35 -107t66 -33q55 0 87 77t37 225
q-20 -49 -46.5 -72.5t-63.5 -23.5q-72 0 -114.5 68t-42.5 185t50.5 186.5t134.5 69.5q27 0 54 -7t51 -20q15 -66 24.5 -153.5t9.5 -163.5z" />
    <glyph glyph-name="h" unicode="h" horiz-adv-x="444" 
d="M393 323q0 -80 -24 -188t-50 -167q-14 3 -25.5 7t-20.5 10q30 78 47.5 168t17.5 169q0 86 -17 120t-60 34q-46 0 -90 -51.5t-66 -138.5q1 -56 6.5 -132.5t10.5 -120.5q-9 -3 -23 -4.5t-27 -1.5q-7 99 -11 187.5t-4 163.5q0 85 7 199.5t15 166.5q13 7 21 9t16 2
q4 0 8.5 -1l13.5 -3q4 -2 7 -2.5t5 -1.5q-17 -77 -28 -171t-15 -185q30 61 72 96.5t85 35.5q69 0 99 -47t30 -153z" />
    <glyph glyph-name="i" unicode="i" horiz-adv-x="189" 
d="M145 739q11 -1 18.5 -3t15.5 -7q-12 -25 -21.5 -53.5t-15.5 -54.5q-7 -1 -19.5 -1t-24.5 1q-1 4 -1 8.5v13.5q0 23 5 49t13 43q9 3 15 4t15 0zM78 498q9 5 18 7.5t18 2.5q4 0 9 -0.5t10 -2.5q-20 -112 -26 -253t4 -256q-6 -2 -12.5 -3.5t-13.5 -1.5q-4 0 -8 0.5t-8 1.5
q-17 124 -14 260.5t23 244.5z" />
    <glyph glyph-name="j" unicode="j" horiz-adv-x="214" 
d="M107 737q-10 -25 -17.5 -54t-11.5 -56q-8 -2 -19.5 -3t-22.5 -2q-2 12 -3 21t-2 16q-2 23 0 42.5t8 36.5q8 4 15.5 5.5t17.5 1.5q13 -1 20 -2.5t15 -5.5zM144 189q0 -186 -41 -284.5t-117 -98.5q-39 0 -70.5 21.5t-55.5 64.5q7 13 15 24t17 19q19 -41 40 -60t49 -19
q52 0 79.5 79.5t27.5 231.5q0 61 -8.5 126.5t-45.5 237.5q14 6 30.5 7t35.5 -1q24 -122 34 -201.5t10 -146.5z" />
    <glyph glyph-name="k" unicode="k" horiz-adv-x="424" 
d="M104 244q0 -71 4.5 -142t13.5 -146q-16 -2 -29.5 -3.5t-21.5 -1.5q-11 125 -15 200t-4 155q0 110 7.5 216t22.5 210q18 3 32.5 2.5t26.5 -3.5q-17 -111 -25.5 -213.5t-10.5 -211.5q82 70 130.5 127t104.5 146q12 -7 21.5 -14t16.5 -15q-56 -87 -98.5 -137t-105.5 -104
q49 -74 99 -123.5t131 -104.5q-11 -20 -18.5 -29t-15.5 -15q-71 55 -119.5 106t-111.5 137q-3 -2 -6 -4.5l-9 -7.5q-8 -6 -12 -9.5t-8 -6.5v-4v-4z" />
    <glyph glyph-name="l" unicode="l" horiz-adv-x="182" 
d="M119 -55q-7 -2 -23.5 -4t-26.5 -2q-16 229 -17 410.5t11 384.5q7 4 16 6t17 2t15.5 -1t14.5 -3q-17 -164 -19 -370.5t12 -422.5z" />
    <glyph glyph-name="m" unicode="m" horiz-adv-x="678" 
d="M106 180q0 -53 2 -116.5t6 -90.5q-9 -4 -22.5 -6t-25.5 -2q-5 101 -9.5 268t-4.5 286q8 4 17 6t19 2q12 0 19 -0.5t14 -2.5q-3 -23 -5 -53t-4 -66q30 48 66.5 73t77.5 25q37 0 60.5 -17.5t35.5 -53.5q34 63 73 94.5t82 31.5q58 0 84 -44.5t26 -140.5q0 -87 -16.5 -195
t-40.5 -197q-13 1 -27.5 4.5t-22.5 7.5q27 108 39.5 199.5t12.5 184.5q0 70 -15.5 100t-51.5 30q-35 0 -70 -34.5t-62 -97.5q2 -13 2.5 -27t0.5 -30q0 -71 -12 -160t-27 -146q-13 1 -27.5 4.5t-22.5 7.5q19 102 26.5 169t7.5 129q0 70 -15.5 100t-51.5 30q-38 0 -75 -32.5
t-60 -88.5q-1 -40 -2 -79t-1 -72z" />
    <glyph glyph-name="n" unicode="n" horiz-adv-x="437" 
d="M106 180q0 -53 2 -116.5t6 -90.5q-9 -4 -22.5 -6t-25.5 -2q-5 101 -9.5 268t-4.5 286q8 4 17 6t19 2q7 0 15 -0.5t17 -2.5q0 -2 -3 -44t-4 -71q33 57 70 85.5t78 28.5q61 0 88 -44t27 -141q0 -79 -12.5 -175.5t-26.5 -150.5q-13 1 -27.5 4.5t-22.5 7.5q18 99 26 173.5
t8 144.5q0 69 -17 99.5t-55 30.5t-75.5 -37t-64.5 -102q-1 -40 -2 -79.5t-1 -73.5z" />
    <glyph glyph-name="o" unicode="o" horiz-adv-x="431" 
d="M31 244q0 128 55.5 208.5t143.5 80.5q74 0 117 -58.5t43 -157.5q0 -146 -52.5 -236.5t-137.5 -90.5q-77 0 -123 71t-46 183zM331 277q0 107 -28 159t-86 52q-53 0 -92 -69t-39 -168q0 -92 33 -154t89 -62q49 0 86 70.5t37 171.5z" />
    <glyph glyph-name="p" unicode="p" horiz-adv-x="433" 
d="M118 80q12 -14 26.5 -20.5t32.5 -6.5q63 0 109.5 86t46.5 213q0 67 -23 106t-62 39q-46 0 -80.5 -42t-55.5 -124v-20.5v-20.5q0 -59 1.5 -111.5t4.5 -98.5zM122 21q4 -56 10.5 -110.5t17.5 -120.5q-13 -4 -25.5 -6t-24.5 -2q-17 126 -28 282.5t-11 283.5q0 59 2 106t7 93
q11 6 22 8.5t24 2.5q7 0 12 -0.5t11 -2.5q-8 -31 -13 -59.5t-8 -59.5q26 56 65 86.5t85 30.5q56 0 90 -54t34 -144q0 -146 -63 -245.5t-152 -99.5q-17 0 -30.5 2.5t-24.5 8.5z" />
    <glyph glyph-name="q" unicode="q" horiz-adv-x="471" 
d="M364 -236q-5 -2 -14 -3.5t-16 -1.5q-4 0 -6.5 0.5t-10.5 2.5q-3 23 -6 112t-4 177q-22 -51 -50.5 -76t-65.5 -25q-67 0 -108.5 69.5t-41.5 176.5q0 143 62.5 228t168.5 85q14 0 33.5 -3t35.5 -8q2 14 5 27.5t6 27.5q9 5 17.5 6.5t19.5 1.5q8 0 16.5 -1t14.5 -3
q-39 -136 -53 -338.5t-3 -454.5zM96 197q0 -91 27.5 -146.5t69.5 -55.5q44 0 70.5 36.5t44.5 119.5q2 76 9 155.5t17 144.5q-13 7 -30 10t-41 3q-74 0 -120.5 -71.5t-46.5 -195.5z" />
    <glyph glyph-name="r" unicode="r" horiz-adv-x="332" 
d="M131 -3q-5 -2 -11.5 -3.5t-14.5 -2.5q-7 -1 -12 -0.5t-10 1.5q-24 130 -32 266.5t-1 283.5q6 3 13.5 4t23.5 1q4 0 8 -0.5t17 -3.5q-6 -49 -9 -80.5t-4 -58.5q22 80 61 128t80 48q37 0 53.5 -26t16.5 -84q0 -13 -1 -28t-2 -31q-7 -2 -16.5 -3t-27.5 -1q2 16 3 31t1 29
q0 34 -8 49.5t-25 15.5q-37 0 -74 -73.5t-60 -192.5q3 -54 10.5 -119t20.5 -150z" />
    <glyph glyph-name="s" unicode="s" horiz-adv-x="352" 
d="M206 280q69 -51 90.5 -86.5t21.5 -78.5q0 -67 -39.5 -111t-101.5 -44q-68 0 -110 52t-42 137q15 4 27 5.5t25 0.5q-2 -71 25 -111t77 -40q39 0 61.5 27t22.5 73q0 37 -19.5 67.5t-82.5 78.5q-72 54 -94.5 92t-22.5 85q0 61 33.5 95.5t93.5 34.5q56 0 87.5 -35t44.5 -114
q-11 -4 -22.5 -7t-22.5 -5q-8 61 -29.5 89t-59.5 28q-33 0 -51.5 -21t-18.5 -59q0 -39 20.5 -71.5t86.5 -81.5z" />
    <glyph glyph-name="t" unicode="t" horiz-adv-x="356" 
d="M266 203q12 -1 24 -4t21 -8q-3 -85 -32 -132.5t-78 -47.5q-57 0 -84.5 69.5t-27.5 214.5q0 50 3 98t10 96q-22 2 -40.5 4.5t-35.5 5.5q1 10 3.5 20t6.5 22q20 -4 38 -7t34 -4q6 34 13 67t15 66q14 -1 27 -3.5t32 -8.5q-10 -32 -18 -63.5t-14 -61.5q32 -1 69.5 0t82.5 5
q0 -9 -2 -19t-5 -21q-43 -4 -81 -5t-72 0q-8 -48 -12 -98.5t-4 -101.5q0 -112 17 -171t50 -59q30 0 44.5 35t15.5 112z" />
    <glyph glyph-name="u" unicode="u" horiz-adv-x="386" 
d="M177 -10q-67 0 -101.5 71.5t-34.5 209.5q0 70 11 138.5t28 100.5q6 2 12.5 3.5t13.5 1.5q5 0 10.5 -1.5t10.5 -3.5q-16 -48 -24.5 -110.5t-8.5 -138.5q0 -98 24.5 -162t66.5 -64q51 0 78 74t27 211q0 40 -4 82t-8 59q11 5 27.5 8t29.5 3q5 -22 7.5 -53.5t2.5 -63.5
q0 -177 -42.5 -271t-125.5 -94z" />
    <glyph glyph-name="v" unicode="v" horiz-adv-x="421" 
d="M385 510q-37 -157 -74 -257.5t-106 -240.5q-3 -1 -13 -1.5t-27 -0.5q-30 156 -68 288t-86 248q13 8 28 13t30 6q39 -108 68 -215.5t60 -258.5q54 119 88.5 231.5t47.5 207.5q13 -2 26 -7t26 -13z" />
    <glyph glyph-name="w" unicode="w" horiz-adv-x="633" 
d="M422 -28q-9 -3 -22 -5t-21 -2q-18 120 -37.5 209t-45.5 170q-23 -93 -48 -165t-64 -160q-12 -4 -24.5 -6t-22.5 -3q-51 135 -79.5 258t-41.5 268q10 5 22 7.5t28 3.5q13 -143 35.5 -253.5t60.5 -217.5q38 86 63.5 175.5t43.5 202.5q11 4 21.5 5.5t22.5 1.5
q33 -87 58.5 -193.5t40.5 -219.5q53 120 87.5 233.5t48.5 210.5q12 -2 25.5 -7.5t28.5 -14.5q-37 -157 -74 -257.5t-106 -240.5z" />
    <glyph glyph-name="x" unicode="x" horiz-adv-x="471" 
d="M440 2q-12 -9 -23.5 -15.5t-19.5 -9.5q-30 70 -65 139t-74 137q-47 -60 -100 -119t-123 -129q-10 6 -18.5 14t-15.5 18q62 59 120 124t111 135q-36 58 -75 113.5t-82 108.5q18 12 33 20.5t29 13.5q37 -56 69.5 -108.5t62.5 -103.5q37 52 69.5 102.5t60.5 100.5
q14 -10 26.5 -25t14.5 -18q-40 -59 -75.5 -109t-69.5 -96q38 -67 73.5 -138.5t71.5 -154.5z" />
    <glyph glyph-name="y" unicode="y" horiz-adv-x="421" 
d="M360 199q0 -201 -47 -308.5t-127 -107.5q-55 0 -92 43t-50 117q14 9 27.5 15t26.5 10q11 -75 32 -107.5t59 -32.5q48 0 77 68.5t36 201.5q-23 -39 -52.5 -59t-64.5 -20q-65 0 -104.5 61.5t-39.5 164.5q0 68 9.5 126.5t41.5 158.5q13 -1 27.5 -4.5t22.5 -7.5
q-25 -91 -34.5 -148.5t-9.5 -123.5q0 -79 26.5 -127.5t72.5 -48.5q32 0 59 29.5t48 88.5q-1 97 -10 169.5t-31 141.5q12 12 29.5 16.5t33.5 0.5q15 -66 24.5 -153.5t9.5 -163.5z" />
    <glyph glyph-name="z" unicode="z" horiz-adv-x="422" 
d="M367 37q0 -9 -2.5 -18t-12.5 -33q-99 1 -175 8.5t-160 26.5q-1 14 -0.5 23.5t1.5 18.5q91 125 164 214t153 173q-70 14 -125.5 22.5t-141.5 16.5q2 15 4 23.5t7 24.5q89 -8 154 -20t158 -39q0 -10 -1.5 -21t-4.5 -19q-90 -95 -161 -180t-159 -204q85 -13 153 -16.5
t149 -0.5z" />
    <glyph glyph-name="braceleft" unicode="{" horiz-adv-x="285" 
d="M240 -151q-14 -7 -28 -10t-36 -3q-51 0 -83 35t-32 90q0 32 9.5 61t32.5 68q32 54 41.5 78.5t9.5 46.5q0 33 -19.5 55t-49.5 22q-12 0 -21.5 -1t-19.5 -3q-4 19 -4 42.5t3 38.5q10 -3 18 -4t19 -1q32 0 50.5 21t18.5 57q0 17 -5.5 33.5t-45.5 83.5q-23 39 -32.5 68
t-9.5 61q0 55 32 90t83 35q22 0 36.5 -3t27.5 -10q1 -11 -2 -22t-10 -21q-13 6 -23 8.5t-25 2.5q-29 0 -46.5 -21.5t-17.5 -58.5q0 -25 8.5 -50t35.5 -70q27 -46 35.5 -71t8.5 -50q0 -44 -21.5 -74.5t-61.5 -42.5q43 -10 65.5 -41t22.5 -79q0 -25 -8.5 -51t-35.5 -73
q-27 -48 -35.5 -74t-8.5 -51q0 -37 17.5 -58.5t46.5 -21.5q15 0 25 2.5t23 8.5q5 -8 8 -19t4 -24z" />
    <glyph glyph-name="bar" unicode="|" horiz-adv-x="264" 
d="M169 -165q-7 -2 -22.5 -4t-25.5 -2q-10 192 -15.5 421.5t-4.5 463.5q13 6 29.5 9t33.5 2q-9 -167 -7 -426t12 -464z" />
    <glyph glyph-name="braceright" unicode="}" horiz-adv-x="310" 
d="M188 91q23 -39 32 -68.5t8 -61.5q-2 -55 -34.5 -89t-83.5 -33q-23 1 -37.5 4t-26.5 10q-1 12 2.5 23t10.5 20q14 -7 24.5 -9.5t23.5 -2.5q29 -1 47 20.5t19 58.5q1 25 -7 50t-34 71q-27 46 -35 71t-7 50q1 44 23 74t62 42q-42 11 -64.5 43t-20.5 79q1 25 9.5 51t37.5 74
q28 47 36.5 72.5t9.5 50.5q1 37 -16 58.5t-46 22.5q-16 0 -26 -2t-22 -8q-5 9 -8 20t-3 23q14 7 28.5 10t35.5 2q51 -1 82.5 -37t29.5 -91q-1 -32 -10.5 -60t-34.5 -68q-33 -52 -43 -77.5t-10 -47.5q-1 -33 18 -55t49 -23q17 0 25.5 0.5t15.5 2.5q4 -20 3.5 -43.5
t-4.5 -37.5q-13 4 -20.5 5t-16.5 1q-31 1 -50 -20t-20 -57q0 -17 5 -34t43 -84z" />
    <glyph glyph-name="asciitilde" unicode="~" horiz-adv-x="328" 
d="M176 342q23 -9 32.5 -11.5t16.5 -2.5q20 0 29.5 11t8.5 30q11 1 19.5 -0.5t19.5 -6.5q3 -32 -17.5 -53t-53.5 -21q-14 0 -31 4t-49 16q-22 9 -31.5 11.5t-16.5 2.5q-20 0 -28 -9.5t-7 -30.5q-7 -1 -15 0.5t-21 6.5q-3 32 16.5 52.5t52.5 20.5q13 0 29 -4t46 -16z" />
    <glyph glyph-name="uni00A0" unicode="&#xa0;" horiz-adv-x="220" 
 />
    <glyph glyph-name="exclamdown" unicode="&#xa1;" horiz-adv-x="199" 
d="M91 553q4 0 8.5 -0.5t17.5 -1.5q1 -16 1 -32t-1 -31q-16 -1 -28 -1t-26 1q-1 16 -2 37t-1 25q8 2 16 2.5t15 0.5zM116 350q7 -128 10 -234.5t3 -232.5v-38t-1 -21q-12 -5 -20.5 -7t-17.5 -2h-9t-16 2q10 114 12.5 244t-2.5 290q4 1 8 1.5t9 0.5q7 0 12.5 -0.5t11.5 -2.5z
" />
    <glyph glyph-name="cent" unicode="&#xa2;" horiz-adv-x="411" 
d="M381 194q-15 -59 -68.5 -103t-113.5 -44q-16 0 -31 3t-28 8q-8 -25 -19.5 -51t-25.5 -54q-14 0 -26 3t-23 10q18 33 30.5 61t23.5 56q-30 28 -45 75.5t-15 112.5q0 148 57.5 245.5t145.5 97.5q18 0 34 -3.5t30 -10.5q10 32 19.5 55t18.5 40q10 0 20.5 -3.5t25.5 -11.5
q-15 -29 -27.5 -56t-22.5 -52q18 -23 27.5 -56t9.5 -75q-14 -7 -28.5 -10t-30.5 -3q0 70 -20 105.5t-59 35.5q-60 0 -103 -89t-43 -204q0 -87 29.5 -135.5t83.5 -48.5q39 0 71.5 31.5t59.5 95.5q12 -1 25.5 -9t17.5 -16z" />
    <glyph glyph-name="sterling" unicode="&#xa3;" horiz-adv-x="404" 
d="M181 9q-28 4 -41 5t-24 1q-17 0 -35.5 -4.5t-41.5 -14.5q-6 10 -9 19.5t-3 19.5q17 8 36 13t41 7q33 22 48 47.5t15 59.5q0 24 -5.5 42t-18.5 39q-29 -1 -58 -1t-57 2q-3 23 -2.5 29.5t2.5 12.5q21 -2 43.5 -3.5t44.5 -1.5q-42 58 -58.5 104t-16.5 93q0 84 48 139.5
t123 55.5q81 0 120.5 -60t34.5 -177q-12 -2 -25 -1t-26 5q4 95 -22 142t-83 47q-53 0 -84 -40t-31 -109q0 -28 5 -54t16 -51q5 -12 12 -24t43 -68q38 1 83.5 5.5t98.5 12.5v-11t-1 -7q-2 -11 -2.5 -15t-1.5 -7q-42 -6 -81.5 -10t-74.5 -6q9 -20 13.5 -38.5t4.5 -38.5
q0 -34 -14 -63t-43 -53q36 -3 58.5 -4.5t31.5 -1.5q33 0 69 4t72 11q7 -14 8.5 -25.5t-0.5 -29.5q-51 -6 -97.5 -5.5t-114.5 8.5z" />
    <glyph glyph-name="currency" unicode="&#xa4;" horiz-adv-x="566" 
d="M404 373q0 86 -28 132t-81 46q-59 0 -95 -55.5t-36 -144.5q0 -82 33 -135.5t84 -53.5t87 62t36 149zM409 204q-24 -40 -58.5 -60.5t-75.5 -20.5q-34 0 -63 15t-51 43q-21 -29 -46 -57.5t-53 -54.5q-12 4 -22.5 11t-19.5 18q35 32 63.5 62.5t53.5 63.5q-11 26 -17 56
t-6 63q0 50 10.5 91.5t31.5 74.5q-28 25 -52.5 53t-45.5 57q4 11 12.5 20.5t20.5 18.5q26 -38 47 -63t47 -50q23 22 52 33.5t63 11.5q32 0 60 -12.5t49 -36.5q22 31 46 58.5t48 50.5q9 -3 17.5 -10t20.5 -20q-32 -28 -58 -56.5t-50 -61.5q10 -21 15.5 -47t5.5 -57
q0 -44 -6.5 -82.5t-19.5 -71.5q32 -28 59 -57t49 -59q-5 -8 -13 -16.5t-22 -17.5q-30 42 -48 63.5t-44 46.5z" />
    <glyph glyph-name="yen" unicode="&#xa5;" horiz-adv-x="456" 
d="M231 -43q-11 -2 -22.5 -3t-22.5 -1q4 58 6.5 107.5t3.5 95.5q-37 0 -72 2t-71 6q0 18 1 26.5t3 15.5q38 -4 71.5 -6.5t67.5 -3.5v52.5t-1 32.5q-29 0 -61.5 2t-75.5 6q0 18 1 26.5t3 15.5q34 -4 63 -6t56 -3q-32 87 -67.5 159t-91.5 160q3 3 7.5 6l10.5 7l9 4.5t16 7.5
q52 -89 85 -161.5t71 -180.5q58 96 94.5 175t68.5 179q9 -1 17 -4t25 -13q-25 -81 -61.5 -157.5t-101.5 -181.5q23 1 50.5 2.5t90.5 7.5q0 -4 -0.5 -8.5t-1.5 -10.5l-2 -8t-3 -13q-52 -5 -87.5 -7.5t-64.5 -3.5v-42.5v-42.5q41 2 78.5 4.5t75.5 6.5q0 -3 -0.5 -6.5
t-1.5 -13.5q-1 -4 -2 -9t-3 -11q-36 -4 -71.5 -6.5t-75.5 -4.5q-2 -49 -5.5 -98t-8.5 -101z" />
    <glyph glyph-name="brokenbar" unicode="&#xa6;" horiz-adv-x="268" 
d="M163 725q-3 -70 -5 -158t-2 -191q-12 -3 -25 -4.5t-29 -0.5q-1 62 -1.5 133t-0.5 210q13 6 29.5 9t33.5 2zM168 -165q-7 -2 -22.5 -4t-25.5 -2q-5 91 -9 190t-6 203q11 2 24 2t28 -3q1 -89 4 -186t7 -200z" />
    <glyph glyph-name="section" unicode="&#xa7;" horiz-adv-x="347" 
d="M165 358q-40 -9 -61.5 -33t-21.5 -60q0 -37 20.5 -65t69.5 -61q40 9 61.5 33t21.5 60q0 37 -20.5 65t-69.5 61zM302 -46q0 -55 -36.5 -95t-89.5 -40q-61 0 -95 36t-46 113q11 6 22 9t23 3q8 -61 30.5 -89t62.5 -28q34 0 54 22.5t20 59.5q0 45 -22.5 78t-81.5 73
q-66 45 -89.5 81.5t-23.5 80.5t23.5 77.5t69.5 52.5q-41 32 -59.5 67t-18.5 81q0 59 37 99.5t92 40.5q59 0 92.5 -36t45.5 -113q-10 -6 -21.5 -9t-23.5 -3q-8 61 -30 89t-60 28q-37 0 -57 -23t-20 -64q0 -45 21 -77t73 -67q66 -45 89.5 -81.5t23.5 -80.5t-24 -77.5
t-69 -52.5q46 -35 67 -71.5t21 -83.5z" />
    <glyph glyph-name="dieresis" unicode="&#xa8;" horiz-adv-x="260" 
d="M91 744q11 -1 18.5 -3t15.5 -7q-12 -25 -21.5 -53.5t-15.5 -54.5q-7 -1 -19.5 -1t-24.5 1q-1 4 -1 8.5v13.5q0 23 5 49t13 43q9 3 15 4t15 0zM195 744q11 -1 18.5 -3t15.5 -7q-12 -25 -21.5 -53.5t-15.5 -54.5q-7 -1 -19.5 -1t-24.5 1q-1 4 -1 8.5v13.5q0 23 5 49t13 43
q9 3 15 4t15 0z" />
    <glyph glyph-name="copyright" unicode="&#xa9;" horiz-adv-x="725" 
d="M390 698q139 0 214.5 -93.5t75.5 -259.5q0 -164 -87 -258.5t-238 -94.5q-138 0 -224 91t-86 239q0 172 94 274t251 102zM363 36q126 0 194 81t68 230q0 144 -65 225.5t-182 81.5q-115 0 -196.5 -93t-81.5 -226q0 -138 70.5 -218.5t192.5 -80.5zM440 288q13 1 23 -1t18 -6
q-3 -63 -34 -97t-86 -34q-59 0 -91.5 44t-32.5 124q0 98 42.5 159.5t110.5 61.5q47 0 70 -30.5t22 -90.5q-9 -6 -21 -8.5t-28 -2.5q3 50 -9.5 73t-42.5 23q-37 0 -63.5 -49t-26.5 -125q0 -69 20.5 -105.5t58.5 -36.5q35 0 53.5 27t16.5 74z" />
    <glyph glyph-name="ordfeminine" unicode="&#xaa;" horiz-adv-x="237" 
d="M211 633q0 -36 -10 -94.5t-23 -107.5q-9 0 -19.5 2t-21.5 5q2 7 4.5 18.5t2.5 12.5q-11 -7 -25.5 -11t-29.5 -4q-38 0 -61 19.5t-23 52.5q0 35 30 53.5t87 18.5q9 0 17 -0.5t22 -1.5v13.5v13.5q0 44 -10 63.5t-33 19.5t-38 -20.5t-16 -53.5q-17 2 -28.5 8t-16.5 16
q6 35 36 59t69 24q43 0 65 -27t22 -79zM56 524q0 -18 12 -29t32 -11q14 0 26.5 4t23.5 12q4 19 6 36t4 35q-52 3 -78 -9t-26 -38z" />
    <glyph glyph-name="guillemotleft" unicode="&#xab;" horiz-adv-x="448" 
d="M418 109q-12 -17 -20 -25t-17 -14q-57 43 -99.5 90.5t-74.5 103.5q43 26 86.5 69.5t81.5 99.5q17 -12 25 -20t14 -17q-33 -44 -69.5 -80t-78.5 -65q27 -38 66 -74t86 -68zM221 109q-12 -17 -20 -25t-17 -14q-57 43 -99.5 90.5t-74.5 103.5q43 26 86.5 69.5t81.5 99.5
q17 -12 25 -20t14 -17q-33 -44 -69.5 -80t-78.5 -65q27 -38 66 -74t86 -68z" />
    <glyph glyph-name="logicalnot" unicode="&#xac;" horiz-adv-x="341" 
d="M312 399q4 -36 3.5 -75.5t-5.5 -86.5q-11 0 -20.5 1t-21.5 4q5 37 6 62.5t-1 50.5q-61 -5 -124 -4t-124 8q0 11 1 20.5t4 21.5q68 -8 132 -8.5t150 6.5z" />
    <glyph glyph-name="uni00AD" unicode="&#xad;" horiz-adv-x="0" 
 />
    <glyph glyph-name="registered" unicode="&#xae;" horiz-adv-x="725" 
d="M390 698q139 0 214.5 -93.5t75.5 -259.5q0 -164 -87 -258.5t-238 -94.5q-138 0 -224 91t-86 239q0 172 94 274t251 102zM100 335q0 -138 70.5 -218.5t192.5 -80.5q126 0 194 81t68 230q0 144 -65 225.5t-182 81.5q-115 0 -196.5 -93t-81.5 -226zM511 155q-7 -7 -20 -13.5
t-26 -9.5q-29 67 -50.5 106.5t-48.5 76.5q-15 -6 -29.5 -11t-26.5 -8q-1 -37 -3 -75t-6 -75q-10 -1 -22.5 0t-20.5 3q2 30 3 55.5t1 58.5q0 85 -3 138.5t-10 121.5q23 17 54 27t61 10q55 0 87 -28t32 -75q0 -39 -19.5 -69.5t-58.5 -53.5q26 -29 52 -74t54 -105zM305 513
q3 -48 4.5 -83.5t1.5 -69.5v-14v-14q62 16 91 44.5t29 72.5q0 37 -19 57t-53 20q-14 0 -27.5 -3.5t-26.5 -9.5z" />
    <glyph glyph-name="macron" unicode="&#xaf;" horiz-adv-x="260" 
d="M223 641q-60 -6 -107 -4t-79 12q-1 11 0 24.5t3 24.5q43 -9 91 -10.5t93 4.5q1 -12 1 -23.5t-2 -27.5z" />
    <glyph glyph-name="degree" unicode="&#xb0;" horiz-adv-x="239" 
d="M10 629q0 50 32 80.5t86 30.5q46 0 73.5 -25.5t27.5 -66.5q0 -58 -31 -91.5t-84 -33.5q-47 0 -75.5 29.5t-28.5 76.5zM179 639q0 30 -15 46.5t-41 16.5q-29 0 -48 -21t-19 -53q0 -29 16.5 -46.5t44.5 -17.5q26 0 44 21t18 54z" />
    <glyph glyph-name="plusminus" unicode="&#xb1;" horiz-adv-x="340" 
d="M187 316q-1 -38 -3 -67t-5 -55q-10 -2 -20.5 -2t-21.5 3q4 33 6 62.5t2 58.5q-37 1 -67 3t-56 5q0 11 1 20.5t4 21.5q32 -4 61 -6t57 -2q0 26 -1.5 55.5t-4.5 63.5q10 2 20 2t20 -2q3 -25 5 -53.5t3 -65.5q26 0 56 1.5t66 4.5q0 -11 -1 -21t-3 -19q-24 -3 -52.5 -5
t-65.5 -3zM21 122q0 11 1 20.5t4 21.5q68 -8 132 -8.5t150 6.5q0 -11 -1 -21t-3 -19q-68 -8 -140 -8t-143 8z" />
    <glyph glyph-name="twosuperior" unicode="&#xb2;" horiz-adv-x="254" 
d="M244 338q-1 -11 -3.5 -21.5t-7.5 -22.5q-80 6 -137.5 14t-99.5 20q1 11 3 20t4 16q101 73 144 130.5t43 120.5q0 31 -14.5 49t-39.5 18q-26 0 -45 -25t-28 -71q-13 0 -25 2.5t-24 7.5q13 58 45 89.5t78 31.5q47 0 76.5 -29.5t29.5 -78.5q0 -59 -48 -124t-142 -133
q46 -7 89.5 -10t101.5 -4z" />
    <glyph glyph-name="threesuperior" unicode="&#xb3;" horiz-adv-x="270" 
d="M266 409q0 -60 -34.5 -97.5t-87.5 -37.5t-86.5 38t-36.5 105q10 4 21 6t28 3q0 -55 20.5 -86t54.5 -31q32 0 50 23t18 64q0 60 -35.5 90.5t-101.5 26.5q-2 12 -3 20t-1 11q43 26 74.5 54t56.5 64q-62 -4 -106.5 -11t-86.5 -17q-2 11 -2.5 22t0.5 21q61 12 122 19t120 8
q3 -11 4 -20.5t0 -18.5q-22 -37 -49 -65t-67 -57q62 -11 95 -45.5t33 -88.5z" />
    <glyph glyph-name="acute" unicode="&#xb4;" horiz-adv-x="260" 
d="M175 746q-5 -43 -20.5 -86t-41.5 -89q-11 1 -21 2.5t-20 4.5q18 52 28 92.5t13 78.5q15 2 32.5 1t29.5 -4z" />
    <glyph glyph-name="uni00B5" unicode="&#xb5;" horiz-adv-x="421" 
d="M80 51q4 -71 11 -134.5t15 -109.5q-6 -1 -13 -1.5t-19 -0.5q-10 0 -19 2t-17 6q0 179 1.5 253.5t4.5 145.5q3 76 15 164.5t24 133.5q13 -1 27.5 -4.5t22.5 -7.5q-18 -99 -26 -173.5t-8 -144.5q0 -69 17 -99.5t55 -30.5q40 0 78.5 39t64.5 108q2 105 -1.5 197t-11.5 155
q9 3 24.5 5.5t28.5 2.5q5 -101 9.5 -268t4.5 -286q-8 -4 -17 -6t-19 -2q-5 0 -9.5 0.5t-17.5 2.5q2 20 3.5 48t3.5 75q-34 -61 -72.5 -91.5t-80.5 -30.5q-27 0 -46.5 13t-32.5 39z" />
    <glyph glyph-name="paragraph" unicode="&#xb6;" horiz-adv-x="626" 
d="M549 724q10 -311 5 -515.5t-27 -480.5q-11 -1 -22.5 -1.5t-25.5 0.5q24 377 26.5 538t-11.5 428q-7 3 -16 5.5t-28 7.5q11 -350 5.5 -532t-26.5 -446q-12 -2 -25 -2t-23 1q13 206 17.5 315.5t5.5 220.5q-169 52 -249.5 127t-80.5 181q0 90 67.5 142t187.5 52q56 0 104 -9
t116 -32z" />
    <glyph glyph-name="periodcentered" unicode="&#xb7;" horiz-adv-x="149" 
d="M35 272q22 5 41 5.5t38 -2.5q-1 -26 -2.5 -40t-3.5 -28q-20 -2 -36.5 -2t-33.5 2q0 5 -0.5 11t-0.5 16l-1.5 22.5t-0.5 15.5z" />
    <glyph glyph-name="cedilla" unicode="&#xb8;" horiz-adv-x="261" 
d="M224 -132q0 -41 -28.5 -67t-74.5 -26q-37 0 -62 18.5t-39 55.5q13 9 21 13.5t17 7.5q8 -24 24 -38t37 -14q24 0 38 12.5t14 34.5q0 18 -13.5 30.5t-32.5 12.5q-11 0 -19.5 -2.5t-17.5 -7.5q-8 6 -16 14t-11 13q14 21 22 41.5t11 42.5l47 -10q-2 -15 -6 -28.5t-12 -27.5
q10 1 13.5 1.5t6.5 0.5q37 0 59 -21t22 -56z" />
    <glyph glyph-name="onesuperior" unicode="&#xb9;" horiz-adv-x="220" 
d="M138 277q-7 -2 -12 -3t-10 -1q-6 -1 -11 -1t-10 1q2 37 4.5 67.5t7.5 71.5q6 59 17 121.5t25 117.5q-30 -23 -58.5 -42t-58.5 -37q-11 9 -17 17t-11 19q53 28 99.5 60t85.5 67q12 -6 18.5 -10.5t11.5 -9.5q-25 -61 -47.5 -184.5t-33.5 -253.5z" />
    <glyph glyph-name="ordmasculine" unicode="&#xba;" horiz-adv-x="222" 
d="M5 579q0 70 33.5 114t86.5 44q43 0 67.5 -30.5t24.5 -83.5q0 -78 -32 -128t-85 -50q-43 0 -69 37t-26 97zM165 599q0 53 -12.5 78.5t-38.5 25.5q-24 0 -41.5 -34t-17.5 -84q0 -46 15 -76t40 -30q22 0 38.5 35.5t16.5 84.5z" />
    <glyph glyph-name="guillemotright" unicode="&#xbb;" horiz-adv-x="448" 
d="M438 264q-32 -56 -74.5 -103.5t-99.5 -90.5q-9 6 -17 14t-20 25q47 32 86 68t66 74q-42 29 -78.5 65t-69.5 80q6 9 14 17t25 20q38 -56 81.5 -99.5t86.5 -69.5zM241 264q-32 -56 -74.5 -103.5t-99.5 -90.5q-9 6 -17 14t-20 25q47 32 86 68t66 74q-42 29 -78.5 65
t-69.5 80q6 9 14 17t25 20q38 -56 81.5 -99.5t86.5 -69.5z" />
    <glyph glyph-name="onequarter" unicode="&#xbc;" horiz-adv-x="656" 
d="M144 298q-7 -2 -12 -3t-10 -1q-6 -1 -11 -1t-10 1q2 37 4.5 67.5t7.5 71.5q6 59 17 121.5t25 117.5q-30 -23 -58.5 -42t-58.5 -37q-11 9 -17 17t-11 19q53 28 99.5 60t85.5 67q12 -6 18.5 -10.5t11.5 -9.5q-25 -61 -47.5 -184.5t-33.5 -253.5zM433 778q14 -6 24.5 -11.5
t20.5 -12.5q-76 -191 -156.5 -364t-208.5 -419q-6 2 -11 4.5t-10 6.5q-4 2 -10 7t-9 7q104 200 181.5 368t178.5 414zM536 97q-2 -46 -3 -69.5t-1 -42.5q-4 -1 -9 -1h-16q-5 1 -9 1.5t-8 1.5q-1 29 -1.5 41t-0.5 23v31.5t1 18.5q-42 5 -80 10.5t-74 11.5q-3 5 -6 11t-6 17
q61 85 97 156.5t69 174.5q11 -1 23 -4t30 -10q-34 -89 -73 -165t-87 -143q29 -6 56 -10.5t53 -7.5q4 39 8 68t9 53q5 2 12 3.5t17 2.5q6 0 12.5 -0.5t13.5 -1.5q-7 -23 -13 -55.5t-10 -75.5q26 -2 52 -3.5t54 -2.5q-1 -12 -3.5 -22t-6.5 -18q-17 1 -36.5 2t-63.5 5z" />
    <glyph glyph-name="onehalf" unicode="&#xbd;" horiz-adv-x="630" 
d="M144 298q-7 -2 -12 -3t-10 -1q-6 -1 -11 -1t-10 1q2 37 4.5 67.5t7.5 71.5q6 59 17 121.5t25 117.5q-30 -23 -58.5 -42t-58.5 -37q-11 9 -17 17t-11 19q53 28 99.5 60t85.5 67q12 -6 18.5 -10.5t11.5 -9.5q-25 -61 -47.5 -184.5t-33.5 -253.5zM425 779q14 -6 24.5 -11.5
t20.5 -12.5q-76 -191 -156.5 -364t-208.5 -419q-6 2 -11 4.5t-10 6.5q-4 2 -10 7t-9 7q104 200 181.5 368t178.5 414zM594 46q-1 -11 -3.5 -21.5t-7.5 -22.5q-80 6 -137.5 14t-99.5 20q1 11 3 20t4 16q101 73 144 130.5t43 120.5q0 31 -14.5 49t-39.5 18q-26 0 -45 -25
t-28 -71q-13 0 -25 2.5t-24 7.5q13 58 45 89.5t78 31.5q47 0 76.5 -29.5t29.5 -78.5q0 -59 -48 -124t-142 -133q46 -7 89.5 -10t101.5 -4z" />
    <glyph glyph-name="threequarters" unicode="&#xbe;" horiz-adv-x="703" 
d="M512 778q14 -6 24.5 -11.5t20.5 -12.5q-76 -191 -156.5 -364t-208.5 -419q-6 2 -11 4.5t-10 6.5q-4 2 -10 7t-9 7q104 200 181.5 368t178.5 414zM284 460q0 -60 -34.5 -97.5t-87.5 -37.5t-86.5 38t-36.5 105q10 4 21 6t28 3q0 -55 20.5 -86t54.5 -31q32 0 50 23t18 64
q0 60 -35.5 90.5t-101.5 26.5q-2 12 -3 20t-1 11q43 26 74.5 54t56.5 64q-62 -4 -106.5 -11t-86.5 -17q-2 11 -2.5 22t0.5 21q61 12 122 19t120 8q3 -11 4 -20.5t0 -18.5q-22 -37 -49 -65t-67 -57q62 -11 95 -45.5t33 -88.5zM593 97q-2 -46 -3 -69.5t-1 -42.5q-4 -1 -9 -1
h-16q-5 1 -9 1.5t-8 1.5q-1 29 -1.5 41t-0.5 23v31.5t1 18.5q-42 5 -80 10.5t-74 11.5q-3 5 -6 11t-6 17q61 85 97 156.5t69 174.5q11 -1 23 -4t30 -10q-34 -89 -73 -165t-87 -143q29 -6 56 -10.5t53 -7.5q4 39 8 68t9 53q5 2 12 3.5t17 2.5q6 0 12.5 -0.5t13.5 -1.5
q-7 -23 -13 -55.5t-10 -75.5q26 -2 52 -3.5t54 -2.5q-1 -12 -3.5 -22t-6.5 -18q-17 1 -36.5 2t-63.5 5z" />
    <glyph glyph-name="questiondown" unicode="&#xbf;" horiz-adv-x="343" 
d="M162 488q-1 16 -2 37t-1 25q8 2 16 2.5t15 0.5q4 0 8.5 -0.5t17.5 -1.5q1 -16 1 -32t-1 -31q-16 -1 -28 -1t-26 1zM338 7q-7 -110 -47 -164t-115 -54q-66 0 -106 51.5t-40 136.5q0 76 38 132.5t108 81.5v161q9 1 18.5 1t18.5 -1q0 -2 6 -72.5t7 -115.5
q-69 -17 -105 -63.5t-36 -119.5q0 -67 26.5 -107.5t70.5 -40.5q51 0 78.5 47.5t27.5 133.5q12 0 24.5 -2t25.5 -5z" />
    <glyph glyph-name="Agrave" unicode="&#xc0;" horiz-adv-x="605" 
d="M582 -85q-12 -7 -24.5 -11t-31.5 -7q-16 106 -31.5 187.5t-32.5 148.5q-72 1 -142.5 -3.5t-132.5 -14.5q-21 -53 -48 -110.5t-62 -124.5q-14 3 -25 8.5t-27 19.5q92 161 148 312.5t107 384.5q33 -3 43.5 -4t19.5 -3q102 -203 153 -372.5t86 -410.5zM314 636
q-26 -115 -51.5 -203.5t-57.5 -171.5q55 8 118 13t128 6q-27 96 -59 180.5t-78 175.5zM288 926q3 -38 13 -78.5t28 -92.5q-10 -3 -20 -4.5t-21 -2.5q-26 46 -41.5 89t-20.5 86q12 3 29.5 4t32.5 -1z" />
    <glyph glyph-name="Aacute" unicode="&#xc1;" horiz-adv-x="605" 
d="M582 -85q-12 -7 -24.5 -11t-31.5 -7q-16 106 -31.5 187.5t-32.5 148.5q-72 1 -142.5 -3.5t-132.5 -14.5q-21 -53 -48 -110.5t-62 -124.5q-14 3 -25 8.5t-27 19.5q92 161 148 312.5t107 384.5q33 -3 43.5 -4t19.5 -3q102 -203 153 -372.5t86 -410.5zM314 636
q-26 -115 -51.5 -203.5t-57.5 -171.5q55 8 118 13t128 6q-27 96 -59 180.5t-78 175.5zM395 922q-5 -43 -20.5 -86t-41.5 -89q-11 1 -21 2.5t-20 4.5q18 52 28 92.5t13 78.5q15 2 32.5 1t29.5 -4z" />
    <glyph glyph-name="Acircumflex" unicode="&#xc2;" horiz-adv-x="605" 
d="M582 -85q-12 -7 -24.5 -11t-31.5 -7q-16 106 -31.5 187.5t-32.5 148.5q-72 1 -142.5 -3.5t-132.5 -14.5q-21 -53 -48 -110.5t-62 -124.5q-14 3 -25 8.5t-27 19.5q92 161 148 312.5t107 384.5q33 -3 43.5 -4t19.5 -3q102 -203 153 -372.5t86 -410.5zM314 636
q-26 -115 -51.5 -203.5t-57.5 -171.5q55 8 118 13t128 6q-27 96 -59 180.5t-78 175.5zM442 765q-9 -9 -16.5 -13.5t-17.5 -9.5q-33 23 -53.5 42.5t-37.5 43.5q-16 -23 -37 -43.5t-54 -43.5q-11 6 -19 11.5t-15 11.5q42 38 62.5 65t37.5 65q5 1 12.5 2t13.5 1q4 0 11 -0.5
t12 -1.5q15 -35 35.5 -62t65.5 -68z" />
    <glyph glyph-name="Atilde" unicode="&#xc3;" horiz-adv-x="605" 
d="M582 -85q-12 -7 -24.5 -11t-31.5 -7q-16 106 -31.5 187.5t-32.5 148.5q-72 1 -142.5 -3.5t-132.5 -14.5q-21 -53 -48 -110.5t-62 -124.5q-14 3 -25 8.5t-27 19.5q92 161 148 312.5t107 384.5q33 -3 43.5 -4t19.5 -3q102 -203 153 -372.5t86 -410.5zM314 636
q-26 -115 -51.5 -203.5t-57.5 -171.5q55 8 118 13t128 6q-27 96 -59 180.5t-78 175.5zM319 809q15 -9 22.5 -11.5t13.5 -2.5q14 0 19 8.5t4 29.5q11 1 20 -1t22 -8q3 -38 -12 -57t-47 -19q-13 0 -25.5 4t-32.5 16q-14 9 -21 11.5t-13 2.5q-12 0 -17 -9t-4 -27
q-11 -1 -21.5 1t-20.5 6q-3 36 12 56t46 20q12 0 23.5 -4t31.5 -16z" />
    <glyph glyph-name="Adieresis" unicode="&#xc4;" horiz-adv-x="605" 
d="M582 -85q-12 -7 -24.5 -11t-31.5 -7q-16 106 -31.5 187.5t-32.5 148.5q-72 1 -142.5 -3.5t-132.5 -14.5q-21 -53 -48 -110.5t-62 -124.5q-14 3 -25 8.5t-27 19.5q92 161 148 312.5t107 384.5q33 -3 43.5 -4t19.5 -3q102 -203 153 -372.5t86 -410.5zM314 636
q-26 -115 -51.5 -203.5t-57.5 -171.5q55 8 118 13t128 6q-27 96 -59 180.5t-78 175.5zM276 867q11 -1 18.5 -3t15.5 -7q-12 -25 -21.5 -53.5t-15.5 -54.5q-7 -1 -19.5 -1t-24.5 1q-1 4 -1 8.5v13.5q0 23 5 49t13 43q9 3 15 4t15 0zM380 867q11 -1 18.5 -3t15.5 -7
q-12 -25 -21.5 -53.5t-15.5 -54.5q-7 -1 -19.5 -1t-24.5 1q-1 4 -1 8.5v13.5q0 23 5 49t13 43q9 3 15 4t15 0z" />
    <glyph glyph-name="Aring" unicode="&#xc5;" horiz-adv-x="605" 
d="M582 -85q-12 -7 -24.5 -11t-31.5 -7q-16 106 -31.5 187.5t-32.5 148.5q-72 1 -142.5 -3.5t-132.5 -14.5q-21 -53 -48 -110.5t-62 -124.5q-14 3 -25 8.5t-27 19.5q92 161 148 312.5t107 384.5q33 -3 43.5 -4t19.5 -3q102 -203 153 -372.5t86 -410.5zM314 636
q-26 -115 -51.5 -203.5t-57.5 -171.5q55 8 118 13t128 6q-27 96 -59 180.5t-78 175.5zM227 831q0 45 28 72t75 27q40 0 63 -21.5t23 -58.5q0 -50 -27 -78.5t-73 -28.5q-39 0 -64 25t-25 63zM365 844q0 26 -11 40t-29 14q-22 0 -35.5 -18.5t-13.5 -49.5q0 -23 12.5 -37.5
t30.5 -14.5q21 0 33.5 18t12.5 48z" />
    <glyph glyph-name="AE" unicode="&#xc6;" horiz-adv-x="804" 
d="M762 -18q-86 -12 -161.5 -18t-175.5 -9q-9 60 -17.5 124t-15.5 129q-52 -1 -103 -6t-97 -13q-22 -48 -49.5 -100.5t-63.5 -113.5q-16 4 -27.5 10.5t-24.5 19.5q103 164 167 317t121 376q13 -1 25 -3t23 -5q136 23 213 31t163 10q1 -13 0 -24.5t-3 -22.5
q-82 -1 -159.5 -8.5t-159.5 -22.5q-1 -73 1.5 -140.5t8.5 -140.5q134 21 176.5 26.5t85.5 9.5q3 -12 4 -23t0 -22q-76 -6 -131 -13t-131 -21q8 -84 18.5 -167.5t22.5 -161.5q95 3 159 10.5t129 21.5q3 -11 3.5 -25.5t-1.5 -24.5zM358 654q-34 -128 -68.5 -227.5
t-75.5 -191.5q39 7 83 11.5t90 6.5q-12 111 -19.5 214t-9.5 187z" />
    <glyph glyph-name="Ccedilla" unicode="&#xc7;" horiz-adv-x="535" 
d="M422 220q15 0 25.5 -2t24.5 -8q-6 -120 -57.5 -182.5t-144.5 -62.5q-106 0 -164 83.5t-58 236.5q0 183 72.5 295.5t191.5 112.5q85 0 124 -56t34 -173q-9 -7 -25.5 -11t-33.5 -3q8 105 -17.5 150.5t-91.5 45.5q-47 0 -88.5 -35.5t-68.5 -99.5q-18 -44 -27.5 -98
t-9.5 -117q0 -137 42.5 -210.5t122.5 -73.5q72 0 111.5 56t37.5 152zM365 -157q0 -41 -28.5 -67t-74.5 -26q-37 0 -62 18.5t-39 55.5q13 9 21 13.5t17 7.5q8 -24 24 -38t37 -14q24 0 38 12.5t14 34.5q0 18 -13.5 30.5t-32.5 12.5q-11 0 -19.5 -2.5t-17.5 -7.5q-8 6 -16 14
t-11 13q14 21 22 41.5t11 42.5l47 -10q-2 -15 -6 -28.5t-12 -27.5q10 1 13.5 1.5t6.5 0.5q37 0 59 -21t22 -56z" />
    <glyph glyph-name="Egrave" unicode="&#xc8;" horiz-adv-x="505" 
d="M463 -14q-86 -12 -161.5 -18t-175.5 -9q-29 197 -47.5 393.5t-20.5 340.5q134 23 213 31.5t169 10.5q1 -13 0 -24.5t-3 -22.5q-82 -1 -159.5 -8.5t-159.5 -22.5q-1 -73 1.5 -140.5t8.5 -140.5q134 21 176.5 26.5t85.5 9.5q3 -12 4 -23t0 -22q-76 -6 -131 -13t-131 -21
q8 -84 18.5 -167.5t22.5 -161.5q95 3 159 10.5t129 21.5q3 -11 3.5 -25.5t-1.5 -24.5zM243 936q3 -38 13 -78.5t28 -92.5q-10 -3 -20 -4.5t-21 -2.5q-26 46 -41.5 89t-20.5 86q12 3 29.5 4t32.5 -1z" />
    <glyph glyph-name="Eacute" unicode="&#xc9;" horiz-adv-x="505" 
d="M463 -14q-86 -12 -161.5 -18t-175.5 -9q-29 197 -47.5 393.5t-20.5 340.5q134 23 213 31.5t169 10.5q1 -13 0 -24.5t-3 -22.5q-82 -1 -159.5 -8.5t-159.5 -22.5q-1 -73 1.5 -140.5t8.5 -140.5q134 21 176.5 26.5t85.5 9.5q3 -12 4 -23t0 -22q-76 -6 -131 -13t-131 -21
q8 -84 18.5 -167.5t22.5 -161.5q95 3 159 10.5t129 21.5q3 -11 3.5 -25.5t-1.5 -24.5zM300 936q-5 -43 -20.5 -86t-41.5 -89q-11 1 -21 2.5t-20 4.5q18 52 28 92.5t13 78.5q15 2 32.5 1t29.5 -4z" />
    <glyph glyph-name="Ecircumflex" unicode="&#xca;" horiz-adv-x="505" 
d="M463 -14q-86 -12 -161.5 -18t-175.5 -9q-29 197 -47.5 393.5t-20.5 340.5q134 23 213 31.5t169 10.5q1 -13 0 -24.5t-3 -22.5q-82 -1 -159.5 -8.5t-159.5 -22.5q-1 -73 1.5 -140.5t8.5 -140.5q134 21 176.5 26.5t85.5 9.5q3 -12 4 -23t0 -22q-76 -6 -131 -13t-131 -21
q8 -84 18.5 -167.5t22.5 -161.5q95 3 159 10.5t129 21.5q3 -11 3.5 -25.5t-1.5 -24.5zM376 791q-9 -9 -16.5 -13.5t-17.5 -9.5q-33 23 -53.5 42.5t-37.5 43.5q-16 -23 -37 -43.5t-54 -43.5q-11 6 -19 11.5t-15 11.5q42 38 62.5 65t37.5 65q5 1 12.5 2t13.5 1q4 0 11 -0.5
t12 -1.5q15 -35 35.5 -62t65.5 -68z" />
    <glyph glyph-name="Edieresis" unicode="&#xcb;" horiz-adv-x="505" 
d="M463 -14q-86 -12 -161.5 -18t-175.5 -9q-29 197 -47.5 393.5t-20.5 340.5q134 23 213 31.5t169 10.5q1 -13 0 -24.5t-3 -22.5q-82 -1 -159.5 -8.5t-159.5 -22.5q-1 -73 1.5 -140.5t8.5 -140.5q134 21 176.5 26.5t85.5 9.5q3 -12 4 -23t0 -22q-76 -6 -131 -13t-131 -21
q8 -84 18.5 -167.5t22.5 -161.5q95 3 159 10.5t129 21.5q3 -11 3.5 -25.5t-1.5 -24.5zM211 890q11 -1 18.5 -3t15.5 -7q-12 -25 -21.5 -53.5t-15.5 -54.5q-7 -1 -19.5 -1t-24.5 1q-1 4 -1 8.5v13.5q0 23 5 49t13 43q9 3 15 4t15 0zM315 890q11 -1 18.5 -3t15.5 -7
q-12 -25 -21.5 -53.5t-15.5 -54.5q-7 -1 -19.5 -1t-24.5 1q-1 4 -1 8.5v13.5q0 23 5 49t13 43q9 3 15 4t15 0z" />
    <glyph glyph-name="Igrave" unicode="&#xcc;" horiz-adv-x="219" 
d="M136 481q0 -276 -1.5 -349.5t-3.5 -153.5q-7 -2 -19.5 -3.5t-28.5 -2.5q3 191 -0.5 366.5t-13.5 331.5q10 5 20 7t21 2q4 0 8.5 -0.5t11.5 -1.5q3 -43 4.5 -87.5t1.5 -108.5zM69 914q3 -38 13 -78.5t28 -92.5q-10 -3 -20 -4.5t-21 -2.5q-26 46 -41.5 89t-20.5 86
q12 3 29.5 4t32.5 -1z" />
    <glyph glyph-name="Iacute" unicode="&#xcd;" horiz-adv-x="219" 
d="M136 481q0 -276 -1.5 -349.5t-3.5 -153.5q-7 -2 -19.5 -3.5t-28.5 -2.5q3 191 -0.5 366.5t-13.5 331.5q10 5 20 7t21 2q4 0 8.5 -0.5t11.5 -1.5q3 -43 4.5 -87.5t1.5 -108.5zM169 912q-5 -43 -20.5 -86t-41.5 -89q-11 1 -21 2.5t-20 4.5q18 52 28 92.5t13 78.5
q15 2 32.5 1t29.5 -4z" />
    <glyph glyph-name="Icircumflex" unicode="&#xce;" horiz-adv-x="219" 
d="M136 481q0 -276 -1.5 -349.5t-3.5 -153.5q-7 -2 -19.5 -3.5t-28.5 -2.5q3 191 -0.5 366.5t-13.5 331.5q10 5 20 7t21 2q4 0 8.5 -0.5t11.5 -1.5q3 -43 4.5 -87.5t1.5 -108.5zM215 750q-9 -9 -16.5 -13.5t-17.5 -9.5q-33 23 -53.5 42.5t-37.5 43.5q-16 -23 -37 -43.5
t-54 -43.5q-11 6 -19 11.5t-15 11.5q42 38 62.5 65t37.5 65q5 1 12.5 2t13.5 1q4 0 11 -0.5t12 -1.5q15 -35 35.5 -62t65.5 -68z" />
    <glyph glyph-name="Idieresis" unicode="&#xcf;" horiz-adv-x="219" 
d="M136 481q0 -276 -1.5 -349.5t-3.5 -153.5q-7 -2 -19.5 -3.5t-28.5 -2.5q3 191 -0.5 366.5t-13.5 331.5q10 5 20 7t21 2q4 0 8.5 -0.5t11.5 -1.5q3 -43 4.5 -87.5t1.5 -108.5zM61 871q11 -1 18.5 -3t15.5 -7q-12 -25 -21.5 -53.5t-15.5 -54.5q-7 -1 -19.5 -1t-24.5 1
q-1 4 -1 8.5v13.5q0 23 5 49t13 43q9 3 15 4t15 0zM165 871q11 -1 18.5 -3t15.5 -7q-12 -25 -21.5 -53.5t-15.5 -54.5q-7 -1 -19.5 -1t-24.5 1q-1 4 -1 8.5v13.5q0 23 5 49t13 43q9 3 15 4t15 0z" />
    <glyph glyph-name="Eth" unicode="&#xd0;" horiz-adv-x="566" 
d="M125 349v-56.5v-56.5q0 -66 1 -112t3 -89q164 61 248 165.5t84 247.5q0 109 -57.5 165.5t-169.5 56.5q-27 0 -52.5 -4t-47.5 -12q-5 -77 -7 -138t-2 -124q36 1 75 5t90 13q1 -9 0.5 -20.5t-2.5 -24.5q-42 -7 -82.5 -11t-80.5 -5zM522 445q0 -153 -104.5 -275.5
t-286.5 -181.5l-3.5 0.5t-14.5 2.5q-19 2 -25 3t-7 1q-4 88 -7 171.5t-5 182.5q-23 1 -47 2.5t-49 3.5q0 22 0.5 30t1.5 15q23 -3 46 -4.5t48 -2.5q-1 20 -1 43.5v71.5q0 42 1 88.5t2 81.5q40 19 82.5 29t80.5 10q143 0 215.5 -68.5t72.5 -203.5z" />
    <glyph glyph-name="Ntilde" unicode="&#xd1;" horiz-adv-x="616" 
d="M131 360q1 -61 5 -137t17 -257q-11 -2 -22.5 -3.5t-24.5 -2.5q-21 242 -29 398t-8 324q27 12 38.5 15.5t28.5 6.5q113 -144 194 -282.5t150 -301.5q2 37 3 84.5t1 148.5q0 143 -4 239.5t-13 152.5q16 5 31 8t32 4q4 -64 5.5 -113t1.5 -95q0 -166 -5 -280t-16 -246
q-8 -2 -18 -3t-27 -2q-76 175 -163.5 327t-179.5 267q-1 -59 1 -151t2 -101zM294 844q15 -9 22.5 -11.5t13.5 -2.5q14 0 19 8.5t4 29.5q11 1 20 -1t22 -8q3 -38 -12 -57t-47 -19q-13 0 -25.5 4t-32.5 16q-14 9 -21 11.5t-13 2.5q-12 0 -17 -9t-4 -27q-11 -1 -21.5 1t-20.5 6
q-3 36 12 56t46 20q12 0 23.5 -4t31.5 -16z" />
    <glyph glyph-name="Ograve" unicode="&#xd2;" horiz-adv-x="591" 
d="M319 733q109 0 165.5 -88t56.5 -257q0 -173 -72 -290.5t-195 -117.5q-100 0 -163 101.5t-63 260.5q0 170 76 280.5t195 110.5zM276 27q94 0 149.5 98.5t55.5 251.5q0 157 -41 232.5t-128 75.5q-88 0 -145.5 -93.5t-57.5 -240.5q0 -140 45 -232t122 -92zM293 951
q3 -38 13 -78.5t28 -92.5q-10 -3 -20 -4.5t-21 -2.5q-26 46 -41.5 89t-20.5 86q12 3 29.5 4t32.5 -1z" />
    <glyph glyph-name="Oacute" unicode="&#xd3;" horiz-adv-x="591" 
d="M319 733q109 0 165.5 -88t56.5 -257q0 -173 -72 -290.5t-195 -117.5q-100 0 -163 101.5t-63 260.5q0 170 76 280.5t195 110.5zM276 27q94 0 149.5 98.5t55.5 251.5q0 157 -41 232.5t-128 75.5q-88 0 -145.5 -93.5t-57.5 -240.5q0 -140 45 -232t122 -92zM372 943
q-5 -43 -20.5 -86t-41.5 -89q-11 1 -21 2.5t-20 4.5q18 52 28 92.5t13 78.5q15 2 32.5 1t29.5 -4z" />
    <glyph glyph-name="Ocircumflex" unicode="&#xd4;" horiz-adv-x="591" 
d="M319 733q109 0 165.5 -88t56.5 -257q0 -173 -72 -290.5t-195 -117.5q-100 0 -163 101.5t-63 260.5q0 170 76 280.5t195 110.5zM276 27q94 0 149.5 98.5t55.5 251.5q0 157 -41 232.5t-128 75.5q-88 0 -145.5 -93.5t-57.5 -240.5q0 -140 45 -232t122 -92zM444 789
q-9 -9 -16.5 -13.5t-17.5 -9.5q-33 23 -53.5 42.5t-37.5 43.5q-16 -23 -37 -43.5t-54 -43.5q-11 6 -19 11.5t-15 11.5q42 38 62.5 65t37.5 65q5 1 12.5 2t13.5 1q4 0 11 -0.5t12 -1.5q15 -35 35.5 -62t65.5 -68z" />
    <glyph glyph-name="Otilde" unicode="&#xd5;" horiz-adv-x="591" 
d="M319 733q109 0 165.5 -88t56.5 -257q0 -173 -72 -290.5t-195 -117.5q-100 0 -163 101.5t-63 260.5q0 170 76 280.5t195 110.5zM276 27q94 0 149.5 98.5t55.5 251.5q0 157 -41 232.5t-128 75.5q-88 0 -145.5 -93.5t-57.5 -240.5q0 -140 45 -232t122 -92zM327 848
q15 -9 22.5 -11.5t13.5 -2.5q14 0 19 8.5t4 29.5q11 1 20 -1t22 -8q3 -38 -12 -57t-47 -19q-13 0 -25.5 4t-32.5 16q-14 9 -21 11.5t-13 2.5q-12 0 -17 -9t-4 -27q-11 -1 -21.5 1t-20.5 6q-3 36 12 56t46 20q12 0 23.5 -4t31.5 -16z" />
    <glyph glyph-name="Odieresis" unicode="&#xd6;" horiz-adv-x="591" 
d="M319 733q109 0 165.5 -88t56.5 -257q0 -173 -72 -290.5t-195 -117.5q-100 0 -163 101.5t-63 260.5q0 170 76 280.5t195 110.5zM276 27q94 0 149.5 98.5t55.5 251.5q0 157 -41 232.5t-128 75.5q-88 0 -145.5 -93.5t-57.5 -240.5q0 -140 45 -232t122 -92zM278 906
q11 -1 18.5 -3t15.5 -7q-12 -25 -21.5 -53.5t-15.5 -54.5q-7 -1 -19.5 -1t-24.5 1q-1 4 -1 8.5v13.5q0 23 5 49t13 43q9 3 15 4t15 0zM382 906q11 -1 18.5 -3t15.5 -7q-12 -25 -21.5 -53.5t-15.5 -54.5q-7 -1 -19.5 -1t-24.5 1q-1 4 -1 8.5v13.5q0 23 5 49t13 43q9 3 15 4
t15 0z" />
    <glyph glyph-name="multiply" unicode="&#xd7;" horiz-adv-x="341" 
d="M291 213q-7 -7 -14.5 -13t-18.5 -13q-29 36 -47.5 58t-37.5 41q-9 -10 -19 -21.5t-32 -37.5l-19.5 -22.5t-12.5 -14.5q-8 5 -15.5 12.5t-12.5 15.5q22 28 42 52t39 46q-26 25 -48.5 45t-44.5 39q7 7 15 13.5t16 11.5q19 -15 40.5 -33.5t50.5 -45.5q23 24 45.5 44.5
t44.5 37.5q8 -5 15 -12.5t14 -17.5q-23 -18 -44.5 -37.5t-45.5 -44.5q25 -26 47.5 -51.5t42.5 -51.5z" />
    <glyph glyph-name="Oslash" unicode="&#xd8;" horiz-adv-x="575" 
d="M304 685q-88 0 -145.5 -93.5t-57.5 -240.5q0 -67 12.5 -130t35.5 -108q53 98 112 220t145 312q-19 20 -44.5 30t-57.5 10zM179 69q18 -21 40.5 -31.5t48.5 -10.5q94 0 149.5 98.5t55.5 251.5q0 73 -8.5 128t-26.5 92q-61 -133 -124.5 -262.5t-134.5 -265.5zM533 388
q0 -173 -72 -290.5t-195 -117.5q-31 0 -59 10.5t-53 31.5q-13 -24 -25.5 -48t-25.5 -48q-14 4 -24.5 10t-21.5 15q17 29 32.5 55.5t29.5 51.5q-38 50 -58.5 123t-20.5 161q0 170 76 280.5t195 110.5q35 0 64.5 -9t54.5 -28q7 17 16 37t28 61q10 -4 19 -10t21 -15
q-20 -46 -30 -68.5l-18 -40.5q33 -44 50 -112.5t17 -159.5z" />
    <glyph glyph-name="Ugrave" unicode="&#xd9;" horiz-adv-x="538" 
d="M427 705q24 -90 35.5 -175t11.5 -167q0 -225 -58.5 -334t-180.5 -109q-90 0 -133.5 87.5t-43.5 266.5q0 91 14.5 190.5t35.5 165.5q6 2 16.5 3t19.5 1q5 0 10 -0.5t12 -1.5q-23 -92 -35 -177.5t-12 -161.5q0 -173 29 -248.5t98 -75.5q80 0 124 91t44 256q0 104 -11 189.5
t-38 188.5q14 4 28 6.5t34 4.5zM234 867q3 -38 13 -78.5t28 -92.5q-10 -3 -20 -4.5t-21 -2.5q-26 46 -41.5 89t-20.5 86q12 3 29.5 4t32.5 -1z" />
    <glyph glyph-name="Uacute" unicode="&#xda;" horiz-adv-x="538" 
d="M427 705q24 -90 35.5 -175t11.5 -167q0 -225 -58.5 -334t-180.5 -109q-90 0 -133.5 87.5t-43.5 266.5q0 91 14.5 190.5t35.5 165.5q6 2 16.5 3t19.5 1q5 0 10 -0.5t12 -1.5q-23 -92 -35 -177.5t-12 -161.5q0 -173 29 -248.5t98 -75.5q80 0 124 91t44 256q0 104 -11 189.5
t-38 188.5q14 4 28 6.5t34 4.5zM326 861q-5 -43 -20.5 -86t-41.5 -89q-11 1 -21 2.5t-20 4.5q18 52 28 92.5t13 78.5q15 2 32.5 1t29.5 -4z" />
    <glyph glyph-name="Ucircumflex" unicode="&#xdb;" horiz-adv-x="538" 
d="M427 705q24 -90 35.5 -175t11.5 -167q0 -225 -58.5 -334t-180.5 -109q-90 0 -133.5 87.5t-43.5 266.5q0 91 14.5 190.5t35.5 165.5q6 2 16.5 3t19.5 1q5 0 10 -0.5t12 -1.5q-23 -92 -35 -177.5t-12 -161.5q0 -173 29 -248.5t98 -75.5q80 0 124 91t44 256q0 104 -11 189.5
t-38 188.5q14 4 28 6.5t34 4.5zM378 758q-9 -9 -16.5 -13.5t-17.5 -9.5q-33 23 -53.5 42.5t-37.5 43.5q-16 -23 -37 -43.5t-54 -43.5q-11 6 -19 11.5t-15 11.5q42 38 62.5 65t37.5 65q5 1 12.5 2t13.5 1q4 0 11 -0.5t12 -1.5q15 -35 35.5 -62t65.5 -68z" />
    <glyph glyph-name="Udieresis" unicode="&#xdc;" horiz-adv-x="538" 
d="M427 705q24 -90 35.5 -175t11.5 -167q0 -225 -58.5 -334t-180.5 -109q-90 0 -133.5 87.5t-43.5 266.5q0 91 14.5 190.5t35.5 165.5q6 2 16.5 3t19.5 1q5 0 10 -0.5t12 -1.5q-23 -92 -35 -177.5t-12 -161.5q0 -173 29 -248.5t98 -75.5q80 0 124 91t44 256q0 104 -11 189.5
t-38 188.5q14 4 28 6.5t34 4.5zM225 855q11 -1 18.5 -3t15.5 -7q-12 -25 -21.5 -53.5t-15.5 -54.5q-7 -1 -19.5 -1t-24.5 1q-1 4 -1 8.5v13.5q0 23 5 49t13 43q9 3 15 4t15 0zM329 855q11 -1 18.5 -3t15.5 -7q-12 -25 -21.5 -53.5t-15.5 -54.5q-7 -1 -19.5 -1t-24.5 1
q-1 4 -1 8.5v13.5q0 23 5 49t13 43q9 3 15 4t15 0z" />
    <glyph glyph-name="Yacute" unicode="&#xdd;" horiz-adv-x="504" 
d="M465 689q-78 -308 -149 -471t-172 -298q-13 4 -25 9t-23 12q45 63 82 124t66 123q-80 111 -132 230t-94 292q17 7 32.5 11.5t31.5 5.5q27 -134 72 -250t116 -232q43 99 74.5 213t54.5 255q17 -4 33.5 -10t32.5 -14zM306 892q-5 -43 -20.5 -86t-41.5 -89q-11 1 -21 2.5
t-20 4.5q18 52 28 92.5t13 78.5q15 2 32.5 1t29.5 -4z" />
    <glyph glyph-name="Thorn" unicode="&#xde;" horiz-adv-x="520" 
d="M122 103q2 -35 5 -75.5t7 -95.5q-13 -2 -27.5 -2t-22.5 3q-13 161 -18 278t-5 327q0 38 2 93t5 90q17 1 33 -2t32 -10q-1 -13 -3.5 -41.5t-6.5 -71.5q32 6 60 8.5t56 2.5q122 0 188.5 -51.5t66.5 -143.5q0 -102 -89.5 -176.5t-282.5 -132.5zM120 546q-3 -45 -4 -90
t-1 -99q0 -50 1 -98.5t4 -108.5q156 42 235 106.5t79 150.5q0 76 -48.5 116t-141.5 40q-38 0 -68 -4t-56 -13z" />
    <glyph glyph-name="germandbls" unicode="&#xdf;" horiz-adv-x="537" 
d="M514 115q0 -68 -37.5 -111.5t-98.5 -43.5q-68 0 -110 52t-42 137q15 4 27 5.5t25 0.5q-2 -71 25 -111t77 -40q38 0 58.5 26.5t20.5 73.5q0 36 -20 65t-86 71q-67 42 -87.5 72t-20.5 67q0 34 12 61.5t41 57.5q25 26 33 47t8 54q0 37 -20.5 60t-54.5 23q-60 0 -92.5 -60
t-32.5 -174q0 -135 11 -250t33 -207q-18 -6 -31.5 -9t-24.5 -3q-13 60 -25.5 184.5t-13.5 227.5q-19 3 -35 7.5t-27 8.5q0 12 1.5 22t4.5 13q11 -2 23.5 -3.5t32.5 -3.5q5 146 48.5 219t127.5 73q58 0 92 -37.5t34 -97.5q0 -28 -11.5 -51.5t-39.5 -50.5q-24 -24 -33.5 -45
t-9.5 -48q0 -33 19 -59.5t82 -65.5q72 -44 94.5 -78.5t22.5 -78.5z" />
    <glyph glyph-name="agrave" unicode="&#xe0;" horiz-adv-x="435" 
d="M374 338q0 -67 -18 -175.5t-43 -196.5q-11 0 -23.5 2.5t-25.5 7.5q4 16 9.5 40t6.5 27q-21 -17 -48 -26t-57 -9q-66 0 -106.5 36t-40.5 94q0 64 55 97.5t160 33.5q14 0 28.5 -0.5t42.5 -1.5q1 12 1 26.5v47.5q0 78 -21 112.5t-70 34.5t-82.5 -42t-35.5 -106
q-22 5 -34.5 11.5t-20.5 17.5q11 68 63.5 116t118.5 48q70 0 105.5 -49t35.5 -146zM86 138q0 -39 26 -62.5t68 -23.5q31 0 59.5 9.5t51.5 27.5q10 47 14.5 79.5t6.5 63.5q-112 7 -169 -16.5t-57 -77.5zM235 750q3 -38 13 -78.5t28 -92.5q-10 -3 -20 -4.5t-21 -2.5
q-26 46 -41.5 89t-20.5 86q12 3 29.5 4t32.5 -1z" />
    <glyph glyph-name="aacute" unicode="&#xe1;" horiz-adv-x="435" 
d="M374 338q0 -67 -18 -175.5t-43 -196.5q-11 0 -23.5 2.5t-25.5 7.5q4 16 9.5 40t6.5 27q-21 -17 -48 -26t-57 -9q-66 0 -106.5 36t-40.5 94q0 64 55 97.5t160 33.5q14 0 28.5 -0.5t42.5 -1.5q1 12 1 26.5v47.5q0 78 -21 112.5t-70 34.5t-82.5 -42t-35.5 -106
q-22 5 -34.5 11.5t-20.5 17.5q11 68 63.5 116t118.5 48q70 0 105.5 -49t35.5 -146zM86 138q0 -39 26 -62.5t68 -23.5q31 0 59.5 9.5t51.5 27.5q10 47 14.5 79.5t6.5 63.5q-112 7 -169 -16.5t-57 -77.5zM312 745q-5 -43 -20.5 -86t-41.5 -89q-11 1 -21 2.5t-20 4.5
q18 52 28 92.5t13 78.5q15 2 32.5 1t29.5 -4z" />
    <glyph glyph-name="acircumflex" unicode="&#xe2;" horiz-adv-x="435" 
d="M374 338q0 -67 -18 -175.5t-43 -196.5q-11 0 -23.5 2.5t-25.5 7.5q4 16 9.5 40t6.5 27q-21 -17 -48 -26t-57 -9q-66 0 -106.5 36t-40.5 94q0 64 55 97.5t160 33.5q14 0 28.5 -0.5t42.5 -1.5q1 12 1 26.5v47.5q0 78 -21 112.5t-70 34.5t-82.5 -42t-35.5 -106
q-22 5 -34.5 11.5t-20.5 17.5q11 68 63.5 116t118.5 48q70 0 105.5 -49t35.5 -146zM86 138q0 -39 26 -62.5t68 -23.5q31 0 59.5 9.5t51.5 27.5q10 47 14.5 79.5t6.5 63.5q-112 7 -169 -16.5t-57 -77.5zM363 588q-9 -9 -16.5 -13.5t-17.5 -9.5q-33 23 -53.5 42.5t-37.5 43.5
q-16 -23 -37 -43.5t-54 -43.5q-11 6 -19 11.5t-15 11.5q42 38 62.5 65t37.5 65q5 1 12.5 2t13.5 1q4 0 11 -0.5t12 -1.5q15 -35 35.5 -62t65.5 -68z" />
    <glyph glyph-name="atilde" unicode="&#xe3;" horiz-adv-x="435" 
d="M374 338q0 -67 -18 -175.5t-43 -196.5q-11 0 -23.5 2.5t-25.5 7.5q4 16 9.5 40t6.5 27q-21 -17 -48 -26t-57 -9q-66 0 -106.5 36t-40.5 94q0 64 55 97.5t160 33.5q14 0 28.5 -0.5t42.5 -1.5q1 12 1 26.5v47.5q0 78 -21 112.5t-70 34.5t-82.5 -42t-35.5 -106
q-22 5 -34.5 11.5t-20.5 17.5q11 68 63.5 116t118.5 48q70 0 105.5 -49t35.5 -146zM86 138q0 -39 26 -62.5t68 -23.5q31 0 59.5 9.5t51.5 27.5q10 47 14.5 79.5t6.5 63.5q-112 7 -169 -16.5t-57 -77.5zM241 655q15 -9 22.5 -11.5t13.5 -2.5q14 0 19 8.5t4 29.5q11 1 20 -1
t22 -8q3 -38 -12 -57t-47 -19q-13 0 -25.5 4t-32.5 16q-14 9 -21 11.5t-13 2.5q-12 0 -17 -9t-4 -27q-11 -1 -21.5 1t-20.5 6q-3 36 12 56t46 20q12 0 23.5 -4t31.5 -16z" />
    <glyph glyph-name="adieresis" unicode="&#xe4;" horiz-adv-x="435" 
d="M374 338q0 -67 -18 -175.5t-43 -196.5q-11 0 -23.5 2.5t-25.5 7.5q4 16 9.5 40t6.5 27q-21 -17 -48 -26t-57 -9q-66 0 -106.5 36t-40.5 94q0 64 55 97.5t160 33.5q14 0 28.5 -0.5t42.5 -1.5q1 12 1 26.5v47.5q0 78 -21 112.5t-70 34.5t-82.5 -42t-35.5 -106
q-22 5 -34.5 11.5t-20.5 17.5q11 68 63.5 116t118.5 48q70 0 105.5 -49t35.5 -146zM86 138q0 -39 26 -62.5t68 -23.5q31 0 59.5 9.5t51.5 27.5q10 47 14.5 79.5t6.5 63.5q-112 7 -169 -16.5t-57 -77.5zM217 702q11 -1 18.5 -3t15.5 -7q-12 -25 -21.5 -53.5t-15.5 -54.5
q-7 -1 -19.5 -1t-24.5 1q-1 4 -1 8.5v13.5q0 23 5 49t13 43q9 3 15 4t15 0zM321 702q11 -1 18.5 -3t15.5 -7q-12 -25 -21.5 -53.5t-15.5 -54.5q-7 -1 -19.5 -1t-24.5 1q-1 4 -1 8.5v13.5q0 23 5 49t13 43q9 3 15 4t15 0z" />
    <glyph glyph-name="aring" unicode="&#xe5;" horiz-adv-x="435" 
d="M374 338q0 -67 -18 -175.5t-43 -196.5q-11 0 -23.5 2.5t-25.5 7.5q4 16 9.5 40t6.5 27q-21 -17 -48 -26t-57 -9q-66 0 -106.5 36t-40.5 94q0 64 55 97.5t160 33.5q14 0 28.5 -0.5t42.5 -1.5q1 12 1 26.5v47.5q0 78 -21 112.5t-70 34.5t-82.5 -42t-35.5 -106
q-22 5 -34.5 11.5t-20.5 17.5q11 68 63.5 116t118.5 48q70 0 105.5 -49t35.5 -146zM86 138q0 -39 26 -62.5t68 -23.5q31 0 59.5 9.5t51.5 27.5q10 47 14.5 79.5t6.5 63.5q-112 7 -169 -16.5t-57 -77.5zM150 660q0 45 28 72t75 27q40 0 63 -21.5t23 -58.5q0 -50 -27 -78.5
t-73 -28.5q-39 0 -64 25t-25 63zM288 673q0 26 -11 40t-29 14q-22 0 -35.5 -18.5t-13.5 -49.5q0 -23 12.5 -37.5t30.5 -14.5q21 0 33.5 18t12.5 48z" />
    <glyph glyph-name="ae" unicode="&#xe6;" horiz-adv-x="698" 
d="M379 309q31 -13 67 -19t83 -6q12 0 25.5 1.5t19.5 3.5q7 29 11 54t4 46q0 48 -16 68.5t-52 20.5q-46 0 -85 -47t-57 -122zM621 167q12 -2 24.5 -9t21.5 -17q-18 -58 -75 -104.5t-114 -46.5q-48 0 -84 26t-57 76q-33 -42 -76 -63t-96 -21q-63 0 -100 34t-37 91
q0 65 55.5 100.5t159.5 35.5q14 0 27 -0.5t45 -1.5q1 21 0.5 46.5t-0.5 27.5q0 78 -21 112.5t-70 34.5t-82.5 -42t-35.5 -106q-22 5 -34.5 11.5t-20.5 17.5q11 68 63.5 116t118.5 48q52 0 86 -32.5t47 -92.5q32 56 73 86t87 30q55 0 86.5 -36.5t31.5 -99.5q0 -35 -6.5 -69
t-18.5 -64q-19 -6 -45 -9t-62 -3q-35 0 -71 6.5t-70 18.5q-2 -12 -2.5 -23.5t-0.5 -23.5q0 -83 29.5 -134.5t79.5 -51.5q44 0 86.5 38.5t57.5 93.5zM86 133q0 -38 22.5 -59.5t61.5 -21.5q45 0 85 18t71 53q-6 22 -9.5 48t-3.5 54v3.5v3.5q-111 9 -169 -17t-58 -82z" />
    <glyph glyph-name="ccedilla" unicode="&#xe7;" horiz-adv-x="408" 
d="M300 -135q0 -43 -29.5 -68t-78.5 -25q-37 0 -62 18.5t-39 55.5q5 3 15 9.5t25 12.5q8 -24 23.5 -38t35.5 -14q23 0 36.5 12.5t13.5 33.5q0 18 -13 30t-34 12q-8 0 -16.5 -2t-17.5 -7q-8 6 -16 14t-11 13q10 15 16.5 28.5t10.5 27.5q-64 10 -97.5 67.5t-33.5 154.5
q0 149 56 246t142 97q66 0 103 -46t37 -127q-14 -7 -28.5 -10t-30.5 -3q0 70 -20 105.5t-59 35.5q-60 0 -103 -89t-43 -204q0 -86 29.5 -135t83.5 -49q40 0 73.5 32.5t57.5 94.5q12 -5 21.5 -11t16.5 -15q-14 -55 -58 -96t-97 -48q-2 -9 -5.5 -18.5t-9.5 -19.5
q10 1 13.5 1.5t6.5 0.5q38 0 62 -21.5t24 -55.5z" />
    <glyph glyph-name="egrave" unicode="&#xe8;" horiz-adv-x="416" 
d="M97 309q31 -13 67 -19t83 -6q12 0 25.5 1.5t19.5 3.5q7 29 11 54t4 46q0 48 -16 68.5t-52 20.5q-46 0 -85 -47t-57 -122zM339 167q12 -2 24.5 -9t21.5 -17q-18 -58 -75 -104.5t-114 -46.5q-77 0 -121 64t-44 171q0 114 62.5 206.5t150.5 92.5q55 0 86.5 -36.5t31.5 -99.5
q0 -35 -6.5 -69t-18.5 -64q-19 -6 -45 -9t-62 -3q-35 0 -71 6.5t-70 18.5q-2 -12 -2.5 -23.5t-0.5 -23.5q0 -83 29.5 -134.5t79.5 -51.5q44 0 86.5 38.5t57.5 93.5zM247 750q3 -38 13 -78.5t28 -92.5q-10 -3 -20 -4.5t-21 -2.5q-26 46 -41.5 89t-20.5 86q12 3 29.5 4
t32.5 -1z" />
    <glyph glyph-name="eacute" unicode="&#xe9;" horiz-adv-x="416" 
d="M97 309q31 -13 67 -19t83 -6q12 0 25.5 1.5t19.5 3.5q7 29 11 54t4 46q0 48 -16 68.5t-52 20.5q-46 0 -85 -47t-57 -122zM339 167q12 -2 24.5 -9t21.5 -17q-18 -58 -75 -104.5t-114 -46.5q-77 0 -121 64t-44 171q0 114 62.5 206.5t150.5 92.5q55 0 86.5 -36.5t31.5 -99.5
q0 -35 -6.5 -69t-18.5 -64q-19 -6 -45 -9t-62 -3q-35 0 -71 6.5t-70 18.5q-2 -12 -2.5 -23.5t-0.5 -23.5q0 -83 29.5 -134.5t79.5 -51.5q44 0 86.5 38.5t57.5 93.5zM341 746q-5 -43 -20.5 -86t-41.5 -89q-11 1 -21 2.5t-20 4.5q18 52 28 92.5t13 78.5q15 2 32.5 1t29.5 -4z
" />
    <glyph glyph-name="ecircumflex" unicode="&#xea;" horiz-adv-x="416" 
d="M97 309q31 -13 67 -19t83 -6q12 0 25.5 1.5t19.5 3.5q7 29 11 54t4 46q0 48 -16 68.5t-52 20.5q-46 0 -85 -47t-57 -122zM339 167q12 -2 24.5 -9t21.5 -17q-18 -58 -75 -104.5t-114 -46.5q-77 0 -121 64t-44 171q0 114 62.5 206.5t150.5 92.5q55 0 86.5 -36.5t31.5 -99.5
q0 -35 -6.5 -69t-18.5 -64q-19 -6 -45 -9t-62 -3q-35 0 -71 6.5t-70 18.5q-2 -12 -2.5 -23.5t-0.5 -23.5q0 -83 29.5 -134.5t79.5 -51.5q44 0 86.5 38.5t57.5 93.5zM393 591q-9 -9 -16.5 -13.5t-17.5 -9.5q-33 23 -53.5 42.5t-37.5 43.5q-16 -23 -37 -43.5t-54 -43.5
q-11 6 -19 11.5t-15 11.5q42 38 62.5 65t37.5 65q5 1 12.5 2t13.5 1q4 0 11 -0.5t12 -1.5q15 -35 35.5 -62t65.5 -68z" />
    <glyph glyph-name="edieresis" unicode="&#xeb;" horiz-adv-x="416" 
d="M97 309q31 -13 67 -19t83 -6q12 0 25.5 1.5t19.5 3.5q7 29 11 54t4 46q0 48 -16 68.5t-52 20.5q-46 0 -85 -47t-57 -122zM339 167q12 -2 24.5 -9t21.5 -17q-18 -58 -75 -104.5t-114 -46.5q-77 0 -121 64t-44 171q0 114 62.5 206.5t150.5 92.5q55 0 86.5 -36.5t31.5 -99.5
q0 -35 -6.5 -69t-18.5 -64q-19 -6 -45 -9t-62 -3q-35 0 -71 6.5t-70 18.5q-2 -12 -2.5 -23.5t-0.5 -23.5q0 -83 29.5 -134.5t79.5 -51.5q44 0 86.5 38.5t57.5 93.5zM242 691q11 -1 18.5 -3t15.5 -7q-12 -25 -21.5 -53.5t-15.5 -54.5q-7 -1 -19.5 -1t-24.5 1q-1 4 -1 8.5
v13.5q0 23 5 49t13 43q9 3 15 4t15 0zM346 691q11 -1 18.5 -3t15.5 -7q-12 -25 -21.5 -53.5t-15.5 -54.5q-7 -1 -19.5 -1t-24.5 1q-1 4 -1 8.5v13.5q0 23 5 49t13 43q9 3 15 4t15 0z" />
    <glyph glyph-name="igrave" unicode="&#xec;" horiz-adv-x="189" 
d="M78 498q9 5 18 7.5t18 2.5q4 0 9 -0.5t10 -2.5q-20 -112 -26 -253t4 -256q-6 -2 -12.5 -3.5t-13.5 -1.5q-4 0 -8 0.5t-8 1.5q-17 124 -14 260.5t23 244.5zM86 720q3 -38 13 -78.5t28 -92.5q-10 -3 -20 -4.5t-21 -2.5q-26 46 -41.5 89t-20.5 86q12 3 29.5 4t32.5 -1z" />
    <glyph glyph-name="iacute" unicode="&#xed;" horiz-adv-x="189" 
d="M78 498q9 5 18 7.5t18 2.5q4 0 9 -0.5t10 -2.5q-20 -112 -26 -253t4 -256q-6 -2 -12.5 -3.5t-13.5 -1.5q-4 0 -8 0.5t-8 1.5q-17 124 -14 260.5t23 244.5zM191 716q-5 -43 -20.5 -86t-41.5 -89q-11 1 -21 2.5t-20 4.5q18 52 28 92.5t13 78.5q15 2 32.5 1t29.5 -4z" />
    <glyph glyph-name="icircumflex" unicode="&#xee;" horiz-adv-x="189" 
d="M78 498q9 5 18 7.5t18 2.5q4 0 9 -0.5t10 -2.5q-20 -112 -26 -253t4 -256q-6 -2 -12.5 -3.5t-13.5 -1.5q-4 0 -8 0.5t-8 1.5q-17 124 -14 260.5t23 244.5zM239 570q-9 -9 -16.5 -13.5t-17.5 -9.5q-33 23 -53.5 42.5t-37.5 43.5q-16 -23 -37 -43.5t-54 -43.5
q-11 6 -19 11.5t-15 11.5q42 38 62.5 65t37.5 65q5 1 12.5 2t13.5 1q4 0 11 -0.5t12 -1.5q15 -35 35.5 -62t65.5 -68z" />
    <glyph glyph-name="idieresis" unicode="&#xef;" horiz-adv-x="189" 
d="M78 498q9 5 18 7.5t18 2.5q4 0 9 -0.5t10 -2.5q-20 -112 -26 -253t4 -256q-6 -2 -12.5 -3.5t-13.5 -1.5q-4 0 -8 0.5t-8 1.5q-17 124 -14 260.5t23 244.5zM85 684q11 -1 18.5 -3t15.5 -7q-12 -25 -21.5 -53.5t-15.5 -54.5q-7 -1 -19.5 -1t-24.5 1q-1 4 -1 8.5v13.5
q0 23 5 49t13 43q9 3 15 4t15 0zM189 684q11 -1 18.5 -3t15.5 -7q-12 -25 -21.5 -53.5t-15.5 -54.5q-7 -1 -19.5 -1t-24.5 1q-1 4 -1 8.5v13.5q0 23 5 49t13 43q9 3 15 4t15 0z" />
    <glyph glyph-name="eth" unicode="&#xf0;" horiz-adv-x="437" 
d="M371 -36q-8 -3 -19.5 -4.5t-20.5 -1.5q-1 25 -2.5 58.5t-3.5 75.5q-18 -62 -49 -92t-78 -30q-75 0 -119.5 73.5t-44.5 192.5q0 129 56.5 205.5t152.5 76.5q17 0 36.5 -2.5t35.5 -7.5q-1 13 -1 27.5v43.5q-36 -1 -72.5 0.5t-75.5 5.5q0 22 0.5 30t1.5 15q44 -5 78.5 -7
t66.5 -1v48.5v48.5q7 4 16 6t17 2t15.5 -1t14.5 -3q-2 -25 -3 -49.5t-2 -48.5q24 2 51 5.5t61 9.5q1 -9 0.5 -20.5t-2.5 -24.5q-28 -5 -55.5 -8t-55.5 -5q-1 -46 -1.5 -102t-0.5 -353q0 -48 0.5 -83t2.5 -80zM89 245q0 -110 29.5 -170.5t81.5 -60.5q49 0 80 53.5t40 156.5
q-1 21 -1.5 46.5t-1.5 77.5q0 49 -0.5 73t-1.5 45q-12 4 -28 6t-36 2q-73 0 -117.5 -61t-44.5 -168z" />
    <glyph glyph-name="ntilde" unicode="&#xf1;" horiz-adv-x="437" 
d="M106 180q0 -53 2 -116.5t6 -90.5q-9 -4 -22.5 -6t-25.5 -2q-5 101 -9.5 268t-4.5 286q8 4 17 6t19 2q7 0 15 -0.5t17 -2.5q0 -2 -3 -44t-4 -71q33 57 70 85.5t78 28.5q61 0 88 -44t27 -141q0 -79 -12.5 -175.5t-26.5 -150.5q-13 1 -27.5 4.5t-22.5 7.5q18 99 26 173.5
t8 144.5q0 69 -17 99.5t-55 30.5t-75.5 -37t-64.5 -102q-1 -40 -2 -79.5t-1 -73.5zM235 650q15 -9 22.5 -11.5t13.5 -2.5q14 0 19 8.5t4 29.5q11 1 20 -1t22 -8q3 -38 -12 -57t-47 -19q-13 0 -25.5 4t-32.5 16q-14 9 -21 11.5t-13 2.5q-12 0 -17 -9t-4 -27q-11 -1 -21.5 1
t-20.5 6q-3 36 12 56t46 20q12 0 23.5 -4t31.5 -16z" />
    <glyph glyph-name="ograve" unicode="&#xf2;" horiz-adv-x="431" 
d="M31 244q0 128 55.5 208.5t143.5 80.5q74 0 117 -58.5t43 -157.5q0 -146 -52.5 -236.5t-137.5 -90.5q-77 0 -123 71t-46 183zM331 277q0 107 -28 159t-86 52q-53 0 -92 -69t-39 -168q0 -92 33 -154t89 -62q49 0 86 70.5t37 171.5zM215 745q3 -38 13 -78.5t28 -92.5
q-10 -3 -20 -4.5t-21 -2.5q-26 46 -41.5 89t-20.5 86q12 3 29.5 4t32.5 -1z" />
    <glyph glyph-name="oacute" unicode="&#xf3;" horiz-adv-x="431" 
d="M31 244q0 128 55.5 208.5t143.5 80.5q74 0 117 -58.5t43 -157.5q0 -146 -52.5 -236.5t-137.5 -90.5q-77 0 -123 71t-46 183zM331 277q0 107 -28 159t-86 52q-53 0 -92 -69t-39 -168q0 -92 33 -154t89 -62q49 0 86 70.5t37 171.5zM299 740q-5 -43 -20.5 -86t-41.5 -89
q-11 1 -21 2.5t-20 4.5q18 52 28 92.5t13 78.5q15 2 32.5 1t29.5 -4z" />
    <glyph glyph-name="ocircumflex" unicode="&#xf4;" horiz-adv-x="431" 
d="M31 244q0 128 55.5 208.5t143.5 80.5q74 0 117 -58.5t43 -157.5q0 -146 -52.5 -236.5t-137.5 -90.5q-77 0 -123 71t-46 183zM331 277q0 107 -28 159t-86 52q-53 0 -92 -69t-39 -168q0 -92 33 -154t89 -62q49 0 86 70.5t37 171.5zM358 604q-9 -9 -16.5 -13.5t-17.5 -9.5
q-33 23 -53.5 42.5t-37.5 43.5q-16 -23 -37 -43.5t-54 -43.5q-11 6 -19 11.5t-15 11.5q42 38 62.5 65t37.5 65q5 1 12.5 2t13.5 1q4 0 11 -0.5t12 -1.5q15 -35 35.5 -62t65.5 -68z" />
    <glyph glyph-name="otilde" unicode="&#xf5;" horiz-adv-x="431" 
d="M31 244q0 128 55.5 208.5t143.5 80.5q74 0 117 -58.5t43 -157.5q0 -146 -52.5 -236.5t-137.5 -90.5q-77 0 -123 71t-46 183zM331 277q0 107 -28 159t-86 52q-53 0 -92 -69t-39 -168q0 -92 33 -154t89 -62q49 0 86 70.5t37 171.5zM249 649q15 -9 22.5 -11.5t13.5 -2.5
q14 0 19 8.5t4 29.5q11 1 20 -1t22 -8q3 -38 -12 -57t-47 -19q-13 0 -25.5 4t-32.5 16q-14 9 -21 11.5t-13 2.5q-12 0 -17 -9t-4 -27q-11 -1 -21.5 1t-20.5 6q-3 36 12 56t46 20q12 0 23.5 -4t31.5 -16z" />
    <glyph glyph-name="odieresis" unicode="&#xf6;" horiz-adv-x="431" 
d="M31 244q0 128 55.5 208.5t143.5 80.5q74 0 117 -58.5t43 -157.5q0 -146 -52.5 -236.5t-137.5 -90.5q-77 0 -123 71t-46 183zM331 277q0 107 -28 159t-86 52q-53 0 -92 -69t-39 -168q0 -92 33 -154t89 -62q49 0 86 70.5t37 171.5zM207 718q11 -1 18.5 -3t15.5 -7
q-12 -25 -21.5 -53.5t-15.5 -54.5q-7 -1 -19.5 -1t-24.5 1q-1 4 -1 8.5v13.5q0 23 5 49t13 43q9 3 15 4t15 0zM311 718q11 -1 18.5 -3t15.5 -7q-12 -25 -21.5 -53.5t-15.5 -54.5q-7 -1 -19.5 -1t-24.5 1q-1 4 -1 8.5v13.5q0 23 5 49t13 43q9 3 15 4t15 0z" />
    <glyph glyph-name="divide" unicode="&#xf7;" horiz-adv-x="341" 
d="M225 460q-1 -26 -2.5 -40t-3.5 -28q-20 -2 -36.5 -2t-33.5 2q0 5 -0.5 11t-0.5 16l-1.5 22.5t-0.5 15.5q22 5 41 5.5t38 -2.5zM27 300q0 11 1 20.5t4 21.5q68 -8 132 -8.5t150 6.5q0 -11 -1 -21t-3 -19q-68 -8 -140 -8t-143 8zM223 240q-1 -26 -2.5 -40t-3.5 -28
q-20 -2 -36.5 -2t-33.5 2q0 5 -0.5 11t-0.5 16l-1.5 22.5t-0.5 15.5q22 5 41 5.5t38 -2.5z" />
    <glyph glyph-name="oslash" unicode="&#xf8;" horiz-adv-x="431" 
d="M217 488q-53 0 -92 -69t-39 -168q0 -37 6 -72t18 -62q42 83 82 169t83 184q-12 9 -26.5 13.5t-31.5 4.5zM143 64q14 -15 30 -22t35 -7q49 0 86 70.5t37 171.5q0 46 -5.5 82.5t-16.5 63.5q-36 -86 -77 -174.5t-89 -184.5zM390 317q0 -146 -52.5 -236.5t-137.5 -90.5
q-22 0 -43 6.5t-39 19.5q-7 -15 -16 -32t-28 -52q-14 4 -24.5 10t-21.5 15q9 18 20 38.5t32 61.5q-24 35 -36.5 83t-12.5 104q0 128 55.5 208.5t143.5 80.5q19 0 35.5 -3.5t31.5 -11.5q6 14 13 30.5t22 51.5q10 -4 19 -10t21 -15q-6 -16 -13.5 -34l-22.5 -54
q26 -28 40 -71.5t14 -98.5z" />
    <glyph glyph-name="ugrave" unicode="&#xf9;" horiz-adv-x="386" 
d="M177 -10q-67 0 -101.5 71.5t-34.5 209.5q0 70 11 138.5t28 100.5q6 2 12.5 3.5t13.5 1.5q5 0 10.5 -1.5t10.5 -3.5q-16 -48 -24.5 -110.5t-8.5 -138.5q0 -98 24.5 -162t66.5 -64q51 0 78 74t27 211q0 40 -4 82t-8 59q11 5 27.5 8t29.5 3q5 -22 7.5 -53.5t2.5 -63.5
q0 -177 -42.5 -271t-125.5 -94zM191 693q3 -38 13 -78.5t28 -92.5q-10 -3 -20 -4.5t-21 -2.5q-26 46 -41.5 89t-20.5 86q12 3 29.5 4t32.5 -1z" />
    <glyph glyph-name="uacute" unicode="&#xfa;" horiz-adv-x="386" 
d="M177 -10q-67 0 -101.5 71.5t-34.5 209.5q0 70 11 138.5t28 100.5q6 2 12.5 3.5t13.5 1.5q5 0 10.5 -1.5t10.5 -3.5q-16 -48 -24.5 -110.5t-8.5 -138.5q0 -98 24.5 -162t66.5 -64q51 0 78 74t27 211q0 40 -4 82t-8 59q11 5 27.5 8t29.5 3q5 -22 7.5 -53.5t2.5 -63.5
q0 -177 -42.5 -271t-125.5 -94zM281 673q-5 -43 -20.5 -86t-41.5 -89q-11 1 -21 2.5t-20 4.5q18 52 28 92.5t13 78.5q15 2 32.5 1t29.5 -4z" />
    <glyph glyph-name="ucircumflex" unicode="&#xfb;" horiz-adv-x="386" 
d="M177 -10q-67 0 -101.5 71.5t-34.5 209.5q0 70 11 138.5t28 100.5q6 2 12.5 3.5t13.5 1.5q5 0 10.5 -1.5t10.5 -3.5q-16 -48 -24.5 -110.5t-8.5 -138.5q0 -98 24.5 -162t66.5 -64q51 0 78 74t27 211q0 40 -4 82t-8 59q11 5 27.5 8t29.5 3q5 -22 7.5 -53.5t2.5 -63.5
q0 -177 -42.5 -271t-125.5 -94zM329 569q-9 -9 -16.5 -13.5t-17.5 -9.5q-33 23 -53.5 42.5t-37.5 43.5q-16 -23 -37 -43.5t-54 -43.5q-11 6 -19 11.5t-15 11.5q42 38 62.5 65t37.5 65q5 1 12.5 2t13.5 1q4 0 11 -0.5t12 -1.5q15 -35 35.5 -62t65.5 -68z" />
    <glyph glyph-name="udieresis" unicode="&#xfc;" horiz-adv-x="386" 
d="M177 -10q-67 0 -101.5 71.5t-34.5 209.5q0 70 11 138.5t28 100.5q6 2 12.5 3.5t13.5 1.5q5 0 10.5 -1.5t10.5 -3.5q-16 -48 -24.5 -110.5t-8.5 -138.5q0 -98 24.5 -162t66.5 -64q51 0 78 74t27 211q0 40 -4 82t-8 59q11 5 27.5 8t29.5 3q5 -22 7.5 -53.5t2.5 -63.5
q0 -177 -42.5 -271t-125.5 -94zM187 667q11 -1 18.5 -3t15.5 -7q-12 -25 -21.5 -53.5t-15.5 -54.5q-7 -1 -19.5 -1t-24.5 1q-1 4 -1 8.5v13.5q0 23 5 49t13 43q9 3 15 4t15 0zM291 667q11 -1 18.5 -3t15.5 -7q-12 -25 -21.5 -53.5t-15.5 -54.5q-7 -1 -19.5 -1t-24.5 1
q-1 4 -1 8.5v13.5q0 23 5 49t13 43q9 3 15 4t15 0z" />
    <glyph glyph-name="yacute" unicode="&#xfd;" horiz-adv-x="414" 
d="M360 199q0 -201 -47 -308.5t-127 -107.5q-55 0 -92 43t-50 117q14 9 27.5 15t26.5 10q11 -75 32 -107.5t59 -32.5q48 0 77 68.5t36 201.5q-23 -39 -52.5 -59t-64.5 -20q-65 0 -104.5 61.5t-39.5 164.5q0 68 9.5 126.5t41.5 158.5q13 -1 27.5 -4.5t22.5 -7.5
q-25 -91 -34.5 -148.5t-9.5 -123.5q0 -79 26.5 -127.5t72.5 -48.5q32 0 59 29.5t48 88.5q-1 97 -10 169.5t-31 141.5q12 12 29.5 16.5t33.5 0.5q15 -66 24.5 -153.5t9.5 -163.5zM292 692q-5 -43 -20.5 -86t-41.5 -89q-11 1 -21 2.5t-20 4.5q18 52 28 92.5t13 78.5
q15 2 32.5 1t29.5 -4z" />
    <glyph glyph-name="thorn" unicode="&#xfe;" horiz-adv-x="424" 
d="M116 79q12 -13 26.5 -19.5t31.5 -6.5q63 0 109.5 86t46.5 213q0 67 -23 106t-62 39q-47 0 -82 -43.5t-55 -127.5q0 -58 2 -120.5t6 -126.5zM120 20q5 -67 12 -125t15 -105q-13 -4 -25.5 -6t-24.5 -2q-35 262 -40.5 527t25.5 428q10 6 20 8.5t23 2.5q7 0 12 -0.5t11 -2.5
q-16 -57 -25.5 -137t-12.5 -184q26 62 66 95.5t89 33.5q56 0 90 -54t34 -144q0 -146 -63 -245.5t-152 -99.5q-15 0 -28 2.5t-26 7.5z" />
    <glyph glyph-name="ydieresis" unicode="&#xff;" horiz-adv-x="414" 
d="M360 199q0 -201 -47 -308.5t-127 -107.5q-55 0 -92 43t-50 117q14 9 27.5 15t26.5 10q11 -75 32 -107.5t59 -32.5q48 0 77 68.5t36 201.5q-23 -39 -52.5 -59t-64.5 -20q-65 0 -104.5 61.5t-39.5 164.5q0 68 9.5 126.5t41.5 158.5q13 -1 27.5 -4.5t22.5 -7.5
q-25 -91 -34.5 -148.5t-9.5 -123.5q0 -79 26.5 -127.5t72.5 -48.5q32 0 59 29.5t48 88.5q-1 97 -10 169.5t-31 141.5q12 12 29.5 16.5t33.5 0.5q15 -66 24.5 -153.5t9.5 -163.5zM186 664q11 -1 18.5 -3t15.5 -7q-12 -25 -21.5 -53.5t-15.5 -54.5q-7 -1 -19.5 -1t-24.5 1
q-1 4 -1 8.5v13.5q0 23 5 49t13 43q9 3 15 4t15 0zM290 664q11 -1 18.5 -3t15.5 -7q-12 -25 -21.5 -53.5t-15.5 -54.5q-7 -1 -19.5 -1t-24.5 1q-1 4 -1 8.5v13.5q0 23 5 49t13 43q9 3 15 4t15 0z" />
    <glyph glyph-name="Amacron" unicode="&#x100;" horiz-adv-x="605" 
d="M582 -85q-12 -7 -24.5 -11t-31.5 -7q-16 106 -31.5 187.5t-32.5 148.5q-72 1 -142.5 -3.5t-132.5 -14.5q-21 -53 -48 -110.5t-62 -124.5q-14 3 -25 8.5t-27 19.5q92 161 148 312.5t107 384.5q33 -3 43.5 -4t19.5 -3q102 -203 153 -372.5t86 -410.5zM314 636
q-26 -115 -51.5 -203.5t-57.5 -171.5q55 8 118 13t128 6q-27 96 -59 180.5t-78 175.5zM402 760q-60 -6 -107 -4t-79 12q-1 11 0 24.5t3 24.5q43 -9 91 -10.5t93 4.5q1 -12 1 -23.5t-2 -27.5z" />
    <glyph glyph-name="amacron" unicode="&#x101;" horiz-adv-x="435" 
d="M374 338q0 -67 -18 -175.5t-43 -196.5q-11 0 -23.5 2.5t-25.5 7.5q4 16 9.5 40t6.5 27q-21 -17 -48 -26t-57 -9q-66 0 -106.5 36t-40.5 94q0 64 55 97.5t160 33.5q14 0 28.5 -0.5t42.5 -1.5q1 12 1 26.5v47.5q0 78 -21 112.5t-70 34.5t-82.5 -42t-35.5 -106
q-22 5 -34.5 11.5t-20.5 17.5q11 68 63.5 116t118.5 48q70 0 105.5 -49t35.5 -146zM86 138q0 -39 26 -62.5t68 -23.5q31 0 59.5 9.5t51.5 27.5q10 47 14.5 79.5t6.5 63.5q-112 7 -169 -16.5t-57 -77.5zM335 585q-60 -6 -107 -4t-79 12q-1 11 0 24.5t3 24.5q43 -9 91 -10.5
t93 4.5q1 -12 1 -23.5t-2 -27.5z" />
    <glyph glyph-name="Abreve" unicode="&#x102;" horiz-adv-x="605" 
d="M582 -85q-12 -7 -24.5 -11t-31.5 -7q-16 106 -31.5 187.5t-32.5 148.5q-72 1 -142.5 -3.5t-132.5 -14.5q-21 -53 -48 -110.5t-62 -124.5q-14 3 -25 8.5t-27 19.5q92 161 148 312.5t107 384.5q33 -3 43.5 -4t19.5 -3q102 -203 153 -372.5t86 -410.5zM314 636
q-26 -115 -51.5 -203.5t-57.5 -171.5q55 8 118 13t128 6q-27 96 -59 180.5t-78 175.5zM223 801q-10 15 -14 30t-4 36q12 4 25.5 6t24.5 1q-4 -38 10 -54.5t49 -16.5q33 0 46 19.5t3 53.5q10 3 23 3t26 -2q3 -25 -0.5 -45.5t-12.5 -36.5q-12 -18 -33.5 -27t-52.5 -9
q-30 0 -52.5 10.5t-37.5 31.5z" />
    <glyph glyph-name="abreve" unicode="&#x103;" horiz-adv-x="435" 
d="M374 338q0 -67 -18 -175.5t-43 -196.5q-11 0 -23.5 2.5t-25.5 7.5q4 16 9.5 40t6.5 27q-21 -17 -48 -26t-57 -9q-66 0 -106.5 36t-40.5 94q0 64 55 97.5t160 33.5q14 0 28.5 -0.5t42.5 -1.5q1 12 1 26.5v47.5q0 78 -21 112.5t-70 34.5t-82.5 -42t-35.5 -106
q-22 5 -34.5 11.5t-20.5 17.5q11 68 63.5 116t118.5 48q70 0 105.5 -49t35.5 -146zM86 138q0 -39 26 -62.5t68 -23.5q31 0 59.5 9.5t51.5 27.5q10 47 14.5 79.5t6.5 63.5q-112 7 -169 -16.5t-57 -77.5zM158 613q-10 15 -14 30t-4 36q12 4 25.5 6t24.5 1q-4 -38 10 -54.5
t49 -16.5q33 0 46 19.5t3 53.5q10 3 23 3t26 -2q3 -25 -0.5 -45.5t-12.5 -36.5q-12 -18 -33.5 -27t-52.5 -9q-30 0 -52.5 10.5t-37.5 31.5z" />
    <glyph glyph-name="Aogonek" unicode="&#x104;" horiz-adv-x="605" 
d="M633 -232q-19 -30 -42 -43.5t-54 -13.5q-35 0 -56 20.5t-21 53.5q0 31 16 60t49 56q-13 93 -29 175.5t-34 156.5q-72 1 -142.5 -3.5t-132.5 -14.5q-21 -53 -48 -110.5t-62 -124.5q-14 3 -25 8.5t-27 19.5q92 161 148 312.5t107 384.5q33 -3 43.5 -4t19.5 -3
q102 -203 153 -372.5t86 -410.5q-35 -33 -51 -60.5t-16 -56.5q0 -19 9.5 -29t26.5 -10q18 0 32.5 11t26.5 34q8 -6 13 -14.5t10 -21.5zM314 636q-26 -115 -51.5 -203.5t-57.5 -171.5q55 8 118 13t128 6q-27 96 -59 180.5t-78 175.5z" />
    <glyph glyph-name="aogonek" unicode="&#x105;" horiz-adv-x="432" 
d="M86 138q0 -39 26 -62.5t68 -23.5q31 0 59.5 9.5t51.5 27.5q10 47 14.5 79.5t6.5 63.5q-112 7 -169 -16.5t-57 -77.5zM328 -137q8 -6 13 -14.5t10 -21.5q-19 -30 -42 -43.5t-54 -13.5q-35 0 -56 20.5t-21 53.5q0 35 21.5 68t64.5 64q3 13 6.5 27t9.5 40q-21 -17 -48 -26
t-57 -9q-66 0 -106.5 36t-40.5 94q0 64 55 97.5t160 33.5q14 0 28.5 -0.5t42.5 -1.5q1 12 1 26.5v47.5q0 78 -21 112.5t-70 34.5t-82.5 -42t-35.5 -106q-22 5 -34.5 11.5t-20.5 17.5q11 68 63.5 116t118.5 48q70 0 105.5 -49t35.5 -146q0 -67 -18 -175.5t-43 -196.5
q-4 0 -8.5 0.5t-10.5 1.5q-32 -31 -46.5 -57.5t-14.5 -53.5q0 -19 9.5 -29t26.5 -10q18 0 32.5 11t26.5 34z" />
    <glyph glyph-name="Cacute" unicode="&#x106;" horiz-adv-x="535" 
d="M422 220q15 0 25.5 -2t24.5 -8q-6 -120 -57.5 -182.5t-144.5 -62.5q-106 0 -164 83.5t-58 236.5q0 183 72.5 295.5t191.5 112.5q85 0 124 -56t34 -173q-9 -7 -25.5 -11t-33.5 -3q8 105 -17.5 150.5t-91.5 45.5q-47 0 -88.5 -35.5t-68.5 -99.5q-18 -44 -27.5 -98
t-9.5 -117q0 -137 42.5 -210.5t122.5 -73.5q72 0 111.5 56t37.5 152zM390 927q-5 -43 -20.5 -86t-41.5 -89q-11 1 -21 2.5t-20 4.5q18 52 28 92.5t13 78.5q15 2 32.5 1t29.5 -4z" />
    <glyph glyph-name="cacute" unicode="&#x107;" horiz-adv-x="408" 
d="M366 368q-14 -7 -28.5 -10t-30.5 -3q0 70 -20 105.5t-59 35.5q-60 0 -103 -89t-43 -204q0 -86 29.5 -135t83.5 -49q40 0 73.5 32.5t57.5 94.5q12 -5 21.5 -11t16.5 -15q-16 -61 -67 -103.5t-110 -42.5q-77 0 -118 58.5t-41 165.5q0 149 56 246t142 97q66 0 103 -46
t37 -127zM318 736q-5 -43 -20.5 -86t-41.5 -89q-11 1 -21 2.5t-20 4.5q18 52 28 92.5t13 78.5q15 2 32.5 1t29.5 -4z" />
    <glyph glyph-name="Ccaron" unicode="&#x10c;" horiz-adv-x="535" 
d="M422 220q15 0 25.5 -2t24.5 -8q-6 -120 -57.5 -182.5t-144.5 -62.5q-106 0 -164 83.5t-58 236.5q0 183 72.5 295.5t191.5 112.5q85 0 124 -56t34 -173q-9 -7 -25.5 -11t-33.5 -3q8 105 -17.5 150.5t-91.5 45.5q-47 0 -88.5 -35.5t-68.5 -99.5q-18 -44 -27.5 -98
t-9.5 -117q0 -137 42.5 -210.5t122.5 -73.5q72 0 111.5 56t37.5 152zM183 867q9 9 16.5 13.5t17.5 9.5q33 -23 53.5 -42.5t37.5 -43.5q16 23 37 43.5t54 43.5q11 -6 19 -11.5t15 -11.5q-42 -38 -62.5 -65t-37.5 -65q-5 -1 -12.5 -2t-13.5 -1q-4 0 -11 0.5t-12 1.5
q-15 35 -35.5 62t-65.5 68z" />
    <glyph glyph-name="ccaron" unicode="&#x10d;" horiz-adv-x="408" 
d="M366 368q-14 -7 -28.5 -10t-30.5 -3q0 70 -20 105.5t-59 35.5q-60 0 -103 -89t-43 -204q0 -86 29.5 -135t83.5 -49q40 0 73.5 32.5t57.5 94.5q12 -5 21.5 -11t16.5 -15q-16 -61 -67 -103.5t-110 -42.5q-77 0 -118 58.5t-41 165.5q0 149 56 246t142 97q66 0 103 -46
t37 -127zM112 697q9 9 16.5 13.5t17.5 9.5q33 -23 53.5 -42.5t37.5 -43.5q16 23 37 43.5t54 43.5q11 -6 19 -11.5t15 -11.5q-42 -38 -62.5 -65t-37.5 -65q-5 -1 -12.5 -2t-13.5 -1q-4 0 -11 0.5t-12 1.5q-15 35 -35.5 62t-65.5 68z" />
    <glyph glyph-name="Dcaron" unicode="&#x10e;" horiz-adv-x="566" 
d="M522 445q0 -153 -104.5 -275.5t-286.5 -181.5l-3.5 0.5t-14.5 2.5q-19 2 -25 3t-7 1q-7 147 -10 264.5t-3 248.5q0 42 1 88.5t2 81.5q38 20 82.5 29.5t95.5 9.5q133 0 203 -70t70 -202zM134 652q-5 -80 -7 -146t-2 -270q0 -66 1 -112t3 -89q164 61 248 165.5t84 247.5
q0 109 -57.5 165.5t-169.5 56.5q-28 0 -52.5 -4.5t-47.5 -13.5zM132 892q9 9 16.5 13.5t17.5 9.5q33 -23 53.5 -42.5t37.5 -43.5q16 23 37 43.5t54 43.5q11 -6 19 -11.5t15 -11.5q-42 -38 -62.5 -65t-37.5 -65q-5 -1 -12.5 -2t-13.5 -1q-4 0 -11 0.5t-12 1.5
q-15 35 -35.5 62t-65.5 68z" />
    <glyph glyph-name="dcaron" unicode="&#x10f;" horiz-adv-x="437" 
d="M371 -36q-8 -3 -19.5 -4.5t-20.5 -1.5q-1 25 -2.5 58.5t-3.5 75.5q-18 -62 -49 -92t-78 -30q-75 0 -119.5 73.5t-44.5 192.5q0 129 56.5 205.5t152.5 76.5q17 0 36.5 -2.5t35.5 -7.5q-1 95 -1.5 136.5t-0.5 74.5q7 4 16 6t17 2t15.5 -1t14.5 -3q-4 -54 -6 -148t-2 -448
q0 -48 0.5 -83t2.5 -80zM89 245q0 -110 29.5 -170.5t81.5 -60.5q49 0 80 53.5t40 156.5q-1 21 -1.5 46.5t-1.5 77.5q0 49 -0.5 73t-1.5 45q-12 4 -28 6t-36 2q-73 0 -117.5 -61t-44.5 -168zM510 679q-7 -66 -20.5 -115t-37.5 -94q-11 1 -21 2.5t-20 4.5q17 47 26 97.5
t11 107.5q15 2 32.5 1t29.5 -4z" />
    <glyph glyph-name="Dcroat" unicode="&#x110;" horiz-adv-x="566" 
d="M125 349v-56.5v-56.5q0 -66 1 -112t3 -89q164 61 248 165.5t84 247.5q0 109 -57.5 165.5t-169.5 56.5q-27 0 -52.5 -4t-47.5 -12q-5 -77 -7 -138t-2 -124q36 1 75 5t90 13q1 -9 0.5 -20.5t-2.5 -24.5q-42 -7 -82.5 -11t-80.5 -5zM522 445q0 -153 -104.5 -275.5
t-286.5 -181.5l-3.5 0.5t-14.5 2.5q-19 2 -25 3t-7 1q-4 88 -7 171.5t-5 182.5q-23 1 -47 2.5t-49 3.5q0 22 0.5 30t1.5 15q23 -3 46 -4.5t48 -2.5q-1 20 -1 43.5v71.5q0 42 1 88.5t2 81.5q40 19 82.5 29t80.5 10q143 0 215.5 -68.5t72.5 -203.5z" />
    <glyph glyph-name="dcroat" unicode="&#x111;" horiz-adv-x="437" 
d="M371 -36q-8 -3 -19.5 -4.5t-20.5 -1.5q-1 25 -2.5 58.5t-3.5 75.5q-18 -62 -49 -92t-78 -30q-75 0 -119.5 73.5t-44.5 192.5q0 129 56.5 205.5t152.5 76.5q17 0 36.5 -2.5t35.5 -7.5q-1 13 -1 27.5v43.5q-36 -1 -72.5 0.5t-75.5 5.5q0 22 0.5 30t1.5 15q44 -5 78.5 -7
t66.5 -1v48.5v48.5q7 4 16 6t17 2t15.5 -1t14.5 -3q-2 -25 -3 -49.5t-2 -48.5q24 2 51 5.5t61 9.5q1 -9 0.5 -20.5t-2.5 -24.5q-28 -5 -55.5 -8t-55.5 -5q-1 -46 -1.5 -102t-0.5 -353q0 -48 0.5 -83t2.5 -80zM89 245q0 -110 29.5 -170.5t81.5 -60.5q49 0 80 53.5t40 156.5
q-1 21 -1.5 46.5t-1.5 77.5q0 49 -0.5 73t-1.5 45q-12 4 -28 6t-36 2q-73 0 -117.5 -61t-44.5 -168z" />
    <glyph glyph-name="Emacron" unicode="&#x112;" horiz-adv-x="505" 
d="M463 -14q-86 -12 -161.5 -18t-175.5 -9q-29 197 -47.5 393.5t-20.5 340.5q134 23 213 31.5t169 10.5q1 -13 0 -24.5t-3 -22.5q-82 -1 -159.5 -8.5t-159.5 -22.5q-1 -73 1.5 -140.5t8.5 -140.5q134 21 176.5 26.5t85.5 9.5q3 -12 4 -23t0 -22q-76 -6 -131 -13t-131 -21
q8 -84 18.5 -167.5t22.5 -161.5q95 3 159 10.5t129 21.5q3 -11 3.5 -25.5t-1.5 -24.5zM336 786q-60 -6 -107 -4t-79 12q-1 11 0 24.5t3 24.5q43 -9 91 -10.5t93 4.5q1 -12 1 -23.5t-2 -27.5z" />
    <glyph glyph-name="emacron" unicode="&#x113;" horiz-adv-x="416" 
d="M97 309q31 -13 67 -19t83 -6q12 0 25.5 1.5t19.5 3.5q7 29 11 54t4 46q0 48 -16 68.5t-52 20.5q-46 0 -85 -47t-57 -122zM339 167q12 -2 24.5 -9t21.5 -17q-18 -58 -75 -104.5t-114 -46.5q-77 0 -121 64t-44 171q0 114 62.5 206.5t150.5 92.5q55 0 86.5 -36.5t31.5 -99.5
q0 -35 -6.5 -69t-18.5 -64q-19 -6 -45 -9t-62 -3q-35 0 -71 6.5t-70 18.5q-2 -12 -2.5 -23.5t-0.5 -23.5q0 -83 29.5 -134.5t79.5 -51.5q44 0 86.5 38.5t57.5 93.5zM352 576q-60 -6 -107 -4t-79 12q-1 11 0 24.5t3 24.5q43 -9 91 -10.5t93 4.5q1 -12 1 -23.5t-2 -27.5z" />
    <glyph glyph-name="Edotaccent" unicode="&#x116;" horiz-adv-x="505" 
d="M463 -14q-86 -12 -161.5 -18t-175.5 -9q-29 197 -47.5 393.5t-20.5 340.5q134 23 213 31.5t169 10.5q1 -13 0 -24.5t-3 -22.5q-82 -1 -159.5 -8.5t-159.5 -22.5q-1 -73 1.5 -140.5t8.5 -140.5q134 21 176.5 26.5t85.5 9.5q3 -12 4 -23t0 -22q-76 -6 -131 -13t-131 -21
q8 -84 18.5 -167.5t22.5 -161.5q95 3 159 10.5t129 21.5q3 -11 3.5 -25.5t-1.5 -24.5zM276 896q11 -1 18.5 -3t15.5 -7q-12 -25 -21.5 -53.5t-15.5 -54.5q-7 -1 -19.5 -1t-24.5 1q-1 4 -1 8.5v13.5q0 23 5 49t13 43q9 3 15 4t15 0z" />
    <glyph glyph-name="edotaccent" unicode="&#x117;" horiz-adv-x="416" 
d="M97 309q31 -13 67 -19t83 -6q12 0 25.5 1.5t19.5 3.5q7 29 11 54t4 46q0 48 -16 68.5t-52 20.5q-46 0 -85 -47t-57 -122zM339 167q12 -2 24.5 -9t21.5 -17q-18 -58 -75 -104.5t-114 -46.5q-77 0 -121 64t-44 171q0 114 62.5 206.5t150.5 92.5q55 0 86.5 -36.5t31.5 -99.5
q0 -35 -6.5 -69t-18.5 -64q-19 -6 -45 -9t-62 -3q-35 0 -71 6.5t-70 18.5q-2 -12 -2.5 -23.5t-0.5 -23.5q0 -83 29.5 -134.5t79.5 -51.5q44 0 86.5 38.5t57.5 93.5zM296 669q11 -1 18.5 -3t15.5 -7q-12 -25 -21.5 -53.5t-15.5 -54.5q-7 -1 -19.5 -1t-24.5 1q-1 4 -1 8.5
v13.5q0 23 5 49t13 43q9 3 15 4t15 0z" />
    <glyph glyph-name="Eogonek" unicode="&#x118;" horiz-adv-x="505" 
d="M514 -161q-19 -30 -42 -43.5t-54 -13.5q-35 0 -56 20.5t-21 53.5t18.5 63.5t56.5 60.5q-69 -8 -133.5 -13t-156.5 -8q-29 197 -47.5 393.5t-20.5 340.5q134 23 213 31.5t169 10.5q1 -13 0 -24.5t-3 -22.5q-82 -1 -159.5 -8.5t-159.5 -22.5q-1 -73 1.5 -140.5t8.5 -140.5
q134 21 176.5 26.5t85.5 9.5q3 -12 4 -23t0 -22q-76 -6 -131 -13t-131 -21q8 -84 18.5 -167.5t22.5 -161.5q95 3 159 10.5t129 21.5q3 -11 3.5 -25.5t-1.5 -24.5q-35 -33 -51 -60.5t-16 -56.5q0 -19 9.5 -29t26.5 -10q18 0 32.5 11t26.5 34q8 -6 13 -14.5t10 -21.5z" />
    <glyph glyph-name="eogonek" unicode="&#x119;" horiz-adv-x="416" 
d="M97 309q31 -13 67 -19t83 -6q12 0 25.5 1.5t19.5 3.5q7 29 11 54t4 46q0 48 -16 68.5t-52 20.5q-46 0 -85 -47t-57 -122zM346 -73q8 -6 13 -14.5t10 -21.5q-17 -26 -40.5 -39.5t-53.5 -13.5q-35 0 -57 21.5t-22 57.5q0 20 6.5 38.5t20.5 36.5l-16.5 -1.5t-10.5 -0.5
q-77 0 -121 64t-44 171q0 114 62.5 206.5t150.5 92.5q55 0 86.5 -36.5t31.5 -99.5q0 -35 -6.5 -69t-18.5 -64q-19 -6 -45 -9t-62 -3q-35 0 -71 6.5t-70 18.5l-2 -24t-1 -23q0 -83 29.5 -134.5t79.5 -51.5q44 0 86.5 38.5t57.5 93.5q12 -2 24.5 -9t21.5 -17
q-14 -36 -32.5 -61.5t-48.5 -48.5q-25 -20 -39 -46.5t-14 -55.5q0 -20 10.5 -33.5t25.5 -13.5q18 0 32.5 11t26.5 34z" />
    <glyph glyph-name="Ecaron" unicode="&#x11a;" horiz-adv-x="505" 
d="M463 -14q-86 -12 -161.5 -18t-175.5 -9q-29 197 -47.5 393.5t-20.5 340.5q134 23 213 31.5t169 10.5q1 -13 0 -24.5t-3 -22.5q-82 -1 -159.5 -8.5t-159.5 -22.5q-1 -73 1.5 -140.5t8.5 -140.5q134 21 176.5 26.5t85.5 9.5q3 -12 4 -23t0 -22q-76 -6 -131 -13t-131 -21
q8 -84 18.5 -167.5t22.5 -161.5q95 3 159 10.5t129 21.5q3 -11 3.5 -25.5t-1.5 -24.5zM124 910q9 9 16.5 13.5t17.5 9.5q33 -23 53.5 -42.5t37.5 -43.5q16 23 37 43.5t54 43.5q11 -6 19 -11.5t15 -11.5q-42 -38 -62.5 -65t-37.5 -65q-5 -1 -12.5 -2t-13.5 -1q-4 0 -11 0.5
t-12 1.5q-15 35 -35.5 62t-65.5 68z" />
    <glyph glyph-name="ecaron" unicode="&#x11b;" horiz-adv-x="416" 
d="M97 309q31 -13 67 -19t83 -6q12 0 25.5 1.5t19.5 3.5q7 29 11 54t4 46q0 48 -16 68.5t-52 20.5q-46 0 -85 -47t-57 -122zM339 167q12 -2 24.5 -9t21.5 -17q-18 -58 -75 -104.5t-114 -46.5q-77 0 -121 64t-44 171q0 114 62.5 206.5t150.5 92.5q55 0 86.5 -36.5t31.5 -99.5
q0 -35 -6.5 -69t-18.5 -64q-19 -6 -45 -9t-62 -3q-35 0 -71 6.5t-70 18.5q-2 -12 -2.5 -23.5t-0.5 -23.5q0 -83 29.5 -134.5t79.5 -51.5q44 0 86.5 38.5t57.5 93.5zM134 694q9 9 16.5 13.5t17.5 9.5q33 -23 53.5 -42.5t37.5 -43.5q16 23 37 43.5t54 43.5q11 -6 19 -11.5
t15 -11.5q-42 -38 -62.5 -65t-37.5 -65q-5 -1 -12.5 -2t-13.5 -1q-4 0 -11 0.5t-12 1.5q-15 35 -35.5 62t-65.5 68z" />
    <glyph glyph-name="Gbreve" unicode="&#x11e;" horiz-adv-x="556" 
d="M467 348q-2 -97 11 -186.5t42 -184.5q-7 -2 -19 -3.5t-26 -2.5q-14 35 -25.5 72.5t-20.5 78.5q-34 -73 -80 -108t-109 -35q-88 0 -140 87.5t-52 239.5q0 188 68.5 303t181.5 115q78 0 122 -64t42 -172q-12 -4 -26.5 -6t-32.5 -4q-1 98 -31.5 148.5t-88.5 50.5
q-76 0 -125.5 -100t-49.5 -254q0 -140 37.5 -218t101.5 -78q58 0 100 46t66 135q-4 28 -7 60.5t-6 72.5q16 3 34 5t33 2zM192 808q-10 15 -14 30t-4 36q12 4 25.5 6t24.5 1q-4 -38 10 -54.5t49 -16.5q33 0 46 19.5t3 53.5q10 3 23 3t26 -2q3 -25 -0.5 -45.5t-12.5 -36.5
q-12 -18 -33.5 -27t-52.5 -9q-30 0 -52.5 10.5t-37.5 31.5z" />
    <glyph glyph-name="gbreve" unicode="&#x11f;" horiz-adv-x="430" 
d="M105 253q0 -94 26.5 -148t71.5 -54q38 0 64.5 40t44.5 126q-3 72 -11.5 129t-25.5 113q-9 4 -20 6t-24 2q-64 0 -95 -53t-31 -161zM369 169q0 -201 -49.5 -308.5t-134.5 -107.5q-60 0 -99.5 43t-52.5 117q14 9 27.5 15t26.5 10q11 -74 35 -107t66 -33q55 0 87 77t37 225
q-20 -49 -46.5 -72.5t-63.5 -23.5q-72 0 -114.5 68t-42.5 185t50.5 186.5t134.5 69.5q27 0 54 -7t51 -20q15 -66 24.5 -153.5t9.5 -163.5zM114 583q-10 15 -14 30t-4 36q12 4 25.5 6t24.5 1q-4 -38 10 -54.5t49 -16.5q33 0 46 19.5t3 53.5q10 3 23 3t26 -2q3 -25 -0.5 -45.5
t-12.5 -36.5q-12 -18 -33.5 -27t-52.5 -9q-30 0 -52.5 10.5t-37.5 31.5z" />
    <glyph glyph-name="uni0122" unicode="&#x122;" horiz-adv-x="556" 
d="M467 348q-2 -97 11 -186.5t42 -184.5q-7 -2 -19 -3.5t-26 -2.5q-14 35 -25.5 72.5t-20.5 78.5q-34 -73 -80 -108t-109 -35q-88 0 -140 87.5t-52 239.5q0 188 68.5 303t181.5 115q78 0 122 -64t42 -172q-12 -4 -26.5 -6t-32.5 -4q-1 98 -31.5 148.5t-88.5 50.5
q-76 0 -125.5 -100t-49.5 -254q0 -140 37.5 -218t101.5 -78q58 0 100 46t66 135q-4 28 -7 60.5t-6 72.5q16 3 34 5t33 2zM231 -62q14 3 26.5 4t25.5 0q4 -44 -5 -92.5t-30 -100.5q-12 1 -21.5 3t-18.5 7q14 48 19.5 90.5t3.5 88.5z" />
    <glyph glyph-name="uni0123" unicode="&#x123;" horiz-adv-x="430" 
d="M105 253q0 -94 26.5 -148t71.5 -54q38 0 64.5 40t44.5 126q-3 72 -11.5 129t-25.5 113q-9 4 -20 6t-24 2q-64 0 -95 -53t-31 -161zM369 169q0 -201 -49.5 -308.5t-134.5 -107.5q-60 0 -99.5 43t-52.5 117q14 9 27.5 15t26.5 10q11 -74 35 -107t66 -33q55 0 87 77t37 225
q-20 -49 -46.5 -72.5t-63.5 -23.5q-72 0 -114.5 68t-42.5 185t50.5 186.5t134.5 69.5q27 0 54 -7t51 -20q15 -66 24.5 -153.5t9.5 -163.5zM229 578q-14 -3 -26.5 -4t-25.5 0q-4 44 5 92.5t30 100.5q12 -1 21.5 -3t18.5 -7q-14 -48 -19.5 -90.5t-3.5 -88.5z" />
    <glyph glyph-name="Imacron" unicode="&#x12a;" horiz-adv-x="219" 
d="M136 481q0 -276 -1.5 -349.5t-3.5 -153.5q-7 -2 -19.5 -3.5t-28.5 -2.5q3 191 -0.5 366.5t-13.5 331.5q10 5 20 7t21 2q4 0 8.5 -0.5t11.5 -1.5q3 -43 4.5 -87.5t1.5 -108.5zM189 775q-60 -6 -107 -4t-79 12q-1 11 0 24.5t3 24.5q43 -9 91 -10.5t93 4.5q1 -12 1 -23.5
t-2 -27.5z" />
    <glyph glyph-name="imacron" unicode="&#x12b;" horiz-adv-x="189" 
d="M78 498q9 5 18 7.5t18 2.5q4 0 9 -0.5t10 -2.5q-20 -112 -26 -253t4 -256q-6 -2 -12.5 -3.5t-13.5 -1.5q-4 0 -8 0.5t-8 1.5q-17 124 -14 260.5t23 244.5zM232 577q-60 -6 -107 -4t-79 12q-1 11 0 24.5t3 24.5q43 -9 91 -10.5t93 4.5q1 -12 1 -23.5t-2 -27.5z" />
    <glyph glyph-name="Iogonek" unicode="&#x12e;" horiz-adv-x="219" 
d="M182 -169q-19 -30 -42 -43.5t-54 -13.5q-35 0 -56 20.5t-21 53.5t18.5 63.5t56.5 60.5h-1q3 191 -0.5 366.5t-13.5 331.5q10 5 20 7t21 2q4 0 8.5 -0.5t11.5 -1.5q3 -43 4.5 -87.5t1.5 -108.5q0 -276 -1.5 -349.5t-3.5 -153.5q-35 -33 -51 -60.5t-16 -56.5q0 -19 9.5 -29
t26.5 -10q18 0 32.5 11t26.5 34q8 -6 13 -14.5t10 -21.5z" />
    <glyph glyph-name="iogonek" unicode="&#x12f;" horiz-adv-x="189" 
d="M176 729q-12 -25 -21.5 -53.5t-15.5 -54.5q-7 -1 -19.5 -1t-24.5 1q-1 4 -1 8.5v13.5q0 23 5 49t13 43q9 3 15 4t15 0q11 -1 18.5 -3t15.5 -7zM157 -151q-19 -30 -42 -43.5t-54 -13.5q-35 0 -56 20.5t-21 53.5q0 34 20.5 66t61.5 63q-17 124 -14 260t23 243q9 5 18 7.5
t18 2.5q4 0 9 -0.5t10 -2.5q-20 -112 -26 -253t4 -256l-1 -0.5t-2 -0.5q-35 -34 -50.5 -61t-15.5 -55q0 -19 9.5 -29t26.5 -10q18 0 32.5 11t26.5 34q8 -6 13 -14.5t10 -21.5z" />
    <glyph glyph-name="Idotaccent" unicode="&#x130;" horiz-adv-x="219" 
d="M136 481q0 -276 -1.5 -349.5t-3.5 -153.5q-7 -2 -19.5 -3.5t-28.5 -2.5q3 191 -0.5 366.5t-13.5 331.5q10 5 20 7t21 2q4 0 8.5 -0.5t11.5 -1.5q3 -43 4.5 -87.5t1.5 -108.5zM118 876q11 -1 18.5 -3t15.5 -7q-12 -25 -21.5 -53.5t-15.5 -54.5q-7 -1 -19.5 -1t-24.5 1
q-1 4 -1 8.5v13.5q0 23 5 49t13 43q9 3 15 4t15 0z" />
    <glyph glyph-name="dotlessi" unicode="&#x131;" horiz-adv-x="189" 
d="M78 498q9 5 18 7.5t18 2.5q4 0 9 -0.5t10 -2.5q-20 -112 -26 -253t4 -256q-6 -2 -12.5 -3.5t-13.5 -1.5q-4 0 -8 0.5t-8 1.5q-17 124 -14 260.5t23 244.5z" />
    <glyph glyph-name="uni0136" unicode="&#x136;" horiz-adv-x="547" 
d="M533 -40q-11 -14 -20.5 -22.5t-21.5 -15.5q-72 122 -133.5 200t-155.5 168q-8 -7 -27 -22.5t-48 -39.5q2 -75 7 -141t16 -151q-27 -4 -35.5 -4.5t-14.5 -0.5q-18 146 -25 255.5t-7 253.5q0 50 2.5 113.5t8.5 146.5q13 2 22 3t16 1q8 0 16 -1t16 -3q-12 -78 -17.5 -157
t-5.5 -200v-34.5v-35.5q111 98 171 177.5t133 230.5q11 -5 22 -14.5t22 -22.5q-60 -111 -113 -183t-123 -138q90 -83 146.5 -153t148.5 -210zM252 -68q14 3 26.5 4t25.5 0q4 -44 -5 -92.5t-30 -100.5q-12 1 -21.5 3t-18.5 7q14 48 19.5 90.5t3.5 88.5z" />
    <glyph glyph-name="uni0137" unicode="&#x137;" horiz-adv-x="424" 
d="M104 254q0 -71 4.5 -142t13.5 -146q-16 -2 -29.5 -3.5t-21.5 -1.5q-11 125 -15 200t-4 155q0 110 7.5 216t22.5 210q18 3 32.5 2.5t26.5 -3.5q-17 -111 -25.5 -213.5t-10.5 -211.5q82 70 130.5 127t104.5 146q12 -7 21.5 -14t16.5 -15q-56 -87 -98.5 -137t-105.5 -104
q49 -74 99 -123.5t131 -104.5q-11 -20 -18.5 -29t-15.5 -15q-71 55 -119.5 106t-111.5 137q-3 -2 -6 -4.5l-9 -7.5q-8 -6 -12 -9.5t-8 -6.5v-4v-4zM205 -40q14 3 26.5 4t25.5 0q4 -44 -5 -92.5t-30 -100.5q-12 1 -21.5 3t-18.5 7q14 48 19.5 90.5t3.5 88.5z" />
    <glyph glyph-name="Lacute" unicode="&#x139;" horiz-adv-x="471" 
d="M457 -22q2 -11 3 -26t1 -24q-92 -1 -168.5 -6t-172.5 -19q-27 203 -38 393.5t-6 369.5q11 5 20 6.5t22 1.5q5 0 11.5 -0.5t10.5 -1.5q-5 -56 -6.5 -117.5t-0.5 -162.5q2 -121 9.5 -223t23.5 -212q72 10 147.5 15.5t143.5 5.5zM177 883q-5 -43 -20.5 -86t-41.5 -89
q-11 1 -21 2.5t-20 4.5q18 52 28 92.5t13 78.5q15 2 32.5 1t29.5 -4z" />
    <glyph glyph-name="lacute" unicode="&#x13a;" horiz-adv-x="182" 
d="M119 -55q-7 -2 -23.5 -4t-26.5 -2q-16 229 -17 410.5t11 384.5q7 4 16 6t17 2t15.5 -1t14.5 -3q-17 -164 -19 -370.5t12 -422.5zM168 947q-5 -43 -20.5 -86t-41.5 -89q-11 1 -21 2.5t-20 4.5q18 52 28 92.5t13 78.5q15 2 32.5 1t29.5 -4z" />
    <glyph glyph-name="uni013B" unicode="&#x13b;" horiz-adv-x="471" 
d="M457 -22q2 -11 3 -26t1 -24q-92 -1 -168.5 -6t-172.5 -19q-27 203 -38 393.5t-6 369.5q11 5 20 6.5t22 1.5q5 0 11.5 -0.5t10.5 -1.5q-5 -56 -6.5 -117.5t-0.5 -162.5q2 -121 9.5 -223t23.5 -212q72 10 147.5 15.5t143.5 5.5zM256 -123q14 3 26.5 4t25.5 0
q4 -44 -5 -92.5t-30 -100.5q-12 1 -21.5 3t-18.5 7q14 48 19.5 90.5t3.5 88.5z" />
    <glyph glyph-name="uni013C" unicode="&#x13c;" horiz-adv-x="182" 
d="M119 -55q-7 -2 -23.5 -4t-26.5 -2q-16 229 -17 410.5t11 384.5q7 4 16 6t17 2t15.5 -1t14.5 -3q-17 -164 -19 -370.5t12 -422.5zM62 -96q14 3 26.5 4t25.5 0q4 -44 -5 -92.5t-30 -100.5q-12 1 -21.5 3t-18.5 7q14 48 19.5 90.5t3.5 88.5z" />
    <glyph glyph-name="Lcaron" unicode="&#x13d;" horiz-adv-x="471" 
d="M457 -22q2 -11 3 -26t1 -24q-92 -1 -168.5 -6t-172.5 -19q-27 203 -38 393.5t-6 369.5q11 5 20 6.5t22 1.5q5 0 11.5 -0.5t10.5 -1.5q-5 -56 -6.5 -117.5t-0.5 -162.5q2 -121 9.5 -223t23.5 -212q72 10 147.5 15.5t143.5 5.5zM320 679q-7 -66 -20.5 -115t-37.5 -94
q-11 1 -21 2.5t-20 4.5q17 47 26 97.5t11 107.5q15 2 32.5 1t29.5 -4z" />
    <glyph glyph-name="lcaron" unicode="&#x13e;" horiz-adv-x="182" 
d="M119 -55q-7 -2 -23.5 -4t-26.5 -2q-16 229 -17 410.5t11 384.5q7 4 16 6t17 2t15.5 -1t14.5 -3q-17 -164 -19 -370.5t12 -422.5zM240 679q-7 -66 -20.5 -115t-37.5 -94q-11 1 -21 2.5t-20 4.5q17 47 26 97.5t11 107.5q15 2 32.5 1t29.5 -4z" />
    <glyph glyph-name="Lslash" unicode="&#x141;" horiz-adv-x="455" 
d="M450 -72q-92 -1 -168.5 -6t-172.5 -19q-11 86 -18.5 156.5t-12.5 133.5q-19 -12 -42.5 -25.5t-63.5 -36.5q-8 8 -14.5 19t-12.5 26q28 14 57.5 31.5t71.5 42.5q-7 107 -9.5 211t0.5 205q11 5 20 6.5t22 1.5q5 0 11.5 -0.5t10.5 -1.5q-5 -56 -6.5 -117.5t-0.5 -162.5
q0 -6 0.5 -13.5t0.5 -22.5q0 -30 0.5 -45t1.5 -28q38 25 80.5 55.5t100.5 75.5q8 -8 14.5 -17t13.5 -24q-63 -49 -112 -84t-94 -64q4 -68 10.5 -133.5t16.5 -134.5q72 10 147.5 15.5t143.5 5.5q2 -11 3 -26t1 -24z" />
    <glyph glyph-name="lslash" unicode="&#x142;" horiz-adv-x="182" 
d="M118 -55q-7 -2 -23.5 -4t-26.5 -2q-6 84 -10 163t-6 159q-32 -23 -49 -35t-32 -23q-9 7 -16 17t-15 26q30 19 57.5 38t53.5 39q-1 106 2 206t9 205q7 4 16 6t17 2t15.5 -1t14.5 -3q-9 -81 -13.5 -174.5t-5.5 -198.5q31 26 50.5 42t35.5 31q10 -8 17 -16.5t15 -21.5
q-26 -24 -54.5 -48t-63.5 -51q0 -89 3 -178.5t9 -177.5z" />
    <glyph glyph-name="Nacute" unicode="&#x143;" horiz-adv-x="616" 
d="M131 360q1 -61 5 -137t17 -257q-11 -2 -22.5 -3.5t-24.5 -2.5q-21 242 -29 398t-8 324q27 12 38.5 15.5t28.5 6.5q113 -144 194 -282.5t150 -301.5q2 37 3 84.5t1 148.5q0 143 -4 239.5t-13 152.5q16 5 31 8t32 4q4 -64 5.5 -113t1.5 -95q0 -166 -5 -280t-16 -246
q-8 -2 -18 -3t-27 -2q-76 175 -163.5 327t-179.5 267q-1 -59 1 -151t2 -101zM375 914q-5 -43 -20.5 -86t-41.5 -89q-11 1 -21 2.5t-20 4.5q18 52 28 92.5t13 78.5q15 2 32.5 1t29.5 -4z" />
    <glyph glyph-name="nacute" unicode="&#x144;" horiz-adv-x="437" 
d="M106 180q0 -53 2 -116.5t6 -90.5q-9 -4 -22.5 -6t-25.5 -2q-5 101 -9.5 268t-4.5 286q8 4 17 6t19 2q7 0 15 -0.5t17 -2.5q0 -2 -3 -44t-4 -71q33 57 70 85.5t78 28.5q61 0 88 -44t27 -141q0 -79 -12.5 -175.5t-26.5 -150.5q-13 1 -27.5 4.5t-22.5 7.5q18 99 26 173.5
t8 144.5q0 69 -17 99.5t-55 30.5t-75.5 -37t-64.5 -102q-1 -40 -2 -79.5t-1 -73.5zM278 737q-5 -43 -20.5 -86t-41.5 -89q-11 1 -21 2.5t-20 4.5q18 52 28 92.5t13 78.5q15 2 32.5 1t29.5 -4z" />
    <glyph glyph-name="uni0145" unicode="&#x145;" horiz-adv-x="616" 
d="M131 360q1 -61 5 -137t17 -257q-11 -2 -22.5 -3.5t-24.5 -2.5q-21 242 -29 398t-8 324q27 12 38.5 15.5t28.5 6.5q113 -144 194 -282.5t150 -301.5q2 37 3 84.5t1 148.5q0 143 -4 239.5t-13 152.5q16 5 31 8t32 4q4 -64 5.5 -113t1.5 -95q0 -166 -5 -280t-16 -246
q-8 -2 -18 -3t-27 -2q-76 175 -163.5 327t-179.5 267q-1 -59 1 -151t2 -101zM297 -54q14 3 26.5 4t25.5 0q4 -44 -5 -92.5t-30 -100.5q-12 1 -21.5 3t-18.5 7q14 48 19.5 90.5t3.5 88.5z" />
    <glyph glyph-name="uni0146" unicode="&#x146;" horiz-adv-x="437" 
d="M106 180q0 -53 2 -116.5t6 -90.5q-9 -4 -22.5 -6t-25.5 -2q-5 101 -9.5 268t-4.5 286q8 4 17 6t19 2q7 0 15 -0.5t17 -2.5q0 -2 -3 -44t-4 -71q33 57 70 85.5t78 28.5q61 0 88 -44t27 -141q0 -79 -12.5 -175.5t-26.5 -150.5q-13 1 -27.5 4.5t-22.5 7.5q18 99 26 173.5
t8 144.5q0 69 -17 99.5t-55 30.5t-75.5 -37t-64.5 -102q-1 -40 -2 -79.5t-1 -73.5zM176 -44q14 3 26.5 4t25.5 0q4 -44 -5 -92.5t-30 -100.5q-12 1 -21.5 3t-18.5 7q14 48 19.5 90.5t3.5 88.5z" />
    <glyph glyph-name="Ncaron" unicode="&#x147;" horiz-adv-x="616" 
d="M131 360q1 -61 5 -137t17 -257q-11 -2 -22.5 -3.5t-24.5 -2.5q-21 242 -29 398t-8 324q27 12 38.5 15.5t28.5 6.5q113 -144 194 -282.5t150 -301.5q2 37 3 84.5t1 148.5q0 143 -4 239.5t-13 152.5q16 5 31 8t32 4q4 -64 5.5 -113t1.5 -95q0 -166 -5 -280t-16 -246
q-8 -2 -18 -3t-27 -2q-76 175 -163.5 327t-179.5 267q-1 -59 1 -151t2 -101zM169 875q9 9 16.5 13.5t17.5 9.5q33 -23 53.5 -42.5t37.5 -43.5q16 23 37 43.5t54 43.5q11 -6 19 -11.5t15 -11.5q-42 -38 -62.5 -65t-37.5 -65q-5 -1 -12.5 -2t-13.5 -1q-4 0 -11 0.5t-12 1.5
q-15 35 -35.5 62t-65.5 68z" />
    <glyph glyph-name="ncaron" unicode="&#x148;" horiz-adv-x="437" 
d="M106 180q0 -53 2 -116.5t6 -90.5q-9 -4 -22.5 -6t-25.5 -2q-5 101 -9.5 268t-4.5 286q8 4 17 6t19 2q7 0 15 -0.5t17 -2.5q0 -2 -3 -44t-4 -71q33 57 70 85.5t78 28.5q61 0 88 -44t27 -141q0 -79 -12.5 -175.5t-26.5 -150.5q-13 1 -27.5 4.5t-22.5 7.5q18 99 26 173.5
t8 144.5q0 69 -17 99.5t-55 30.5t-75.5 -37t-64.5 -102q-1 -40 -2 -79.5t-1 -73.5zM99 708q9 9 16.5 13.5t17.5 9.5q33 -23 53.5 -42.5t37.5 -43.5q16 23 37 43.5t54 43.5q11 -6 19 -11.5t15 -11.5q-42 -38 -62.5 -65t-37.5 -65q-5 -1 -12.5 -2t-13.5 -1q-4 0 -11 0.5
t-12 1.5q-15 35 -35.5 62t-65.5 68z" />
    <glyph glyph-name="Omacron" unicode="&#x14c;" horiz-adv-x="591" 
d="M319 733q109 0 165.5 -88t56.5 -257q0 -173 -72 -290.5t-195 -117.5q-100 0 -163 101.5t-63 260.5q0 170 76 280.5t195 110.5zM276 27q94 0 149.5 98.5t55.5 251.5q0 157 -41 232.5t-128 75.5q-88 0 -145.5 -93.5t-57.5 -240.5q0 -140 45 -232t122 -92zM410 820
q-60 -6 -107 -4t-79 12q-1 11 0 24.5t3 24.5q43 -9 91 -10.5t93 4.5q1 -12 1 -23.5t-2 -27.5z" />
    <glyph glyph-name="omacron" unicode="&#x14d;" horiz-adv-x="431" 
d="M31 244q0 128 55.5 208.5t143.5 80.5q74 0 117 -58.5t43 -157.5q0 -146 -52.5 -236.5t-137.5 -90.5q-77 0 -123 71t-46 183zM331 277q0 107 -28 159t-86 52q-53 0 -92 -69t-39 -168q0 -92 33 -154t89 -62q49 0 86 70.5t37 171.5zM319 616q-60 -6 -107 -4t-79 12
q-1 11 0 24.5t3 24.5q43 -9 91 -10.5t93 4.5q1 -12 1 -23.5t-2 -27.5z" />
    <glyph glyph-name="Ohungarumlaut" unicode="&#x150;" horiz-adv-x="591" 
d="M319 733q109 0 165.5 -88t56.5 -257q0 -173 -72 -290.5t-195 -117.5q-100 0 -163 101.5t-63 260.5q0 170 76 280.5t195 110.5zM276 27q94 0 149.5 98.5t55.5 251.5q0 157 -41 232.5t-128 75.5q-88 0 -145.5 -93.5t-57.5 -240.5q0 -140 45 -232t122 -92zM326 941
q-5 -43 -20.5 -86t-41.5 -89q-11 1 -21 2.5t-20 4.5q18 52 28 92.5t13 78.5q15 2 32.5 1t29.5 -4zM431 941q-5 -43 -20.5 -86t-41.5 -89q-11 1 -21 2.5t-20 4.5q18 52 28 92.5t13 78.5q15 2 32.5 1t29.5 -4z" />
    <glyph glyph-name="ohungarumlaut" unicode="&#x151;" horiz-adv-x="431" 
d="M31 244q0 128 55.5 208.5t143.5 80.5q74 0 117 -58.5t43 -157.5q0 -146 -52.5 -236.5t-137.5 -90.5q-77 0 -123 71t-46 183zM331 277q0 107 -28 159t-86 52q-53 0 -92 -69t-39 -168q0 -92 33 -154t89 -62q49 0 86 70.5t37 171.5zM249 748q-5 -43 -20.5 -86t-41.5 -89
q-11 1 -21 2.5t-20 4.5q18 52 28 92.5t13 78.5q15 2 32.5 1t29.5 -4zM354 748q-5 -43 -20.5 -86t-41.5 -89q-11 1 -21 2.5t-20 4.5q18 52 28 92.5t13 78.5q15 2 32.5 1t29.5 -4z" />
    <glyph glyph-name="OE" unicode="&#x152;" horiz-adv-x="882" 
d="M840 -14q-86 -12 -161.5 -18t-175.5 -9q-8 52 -14.5 101t-11.5 94q-26 -96 -74.5 -145t-118.5 -49q-104 0 -170 101.5t-66 260.5q0 178 66 284.5t180 106.5q45 0 80.5 -19t61.5 -56v11t-1 17v16.5v10.5q134 23 213 31.5t169 10.5q1 -13 0 -24.5t-3 -22.5
q-82 -1 -159.5 -8.5t-159.5 -22.5q-1 -73 1.5 -140.5t8.5 -140.5q134 21 176.5 26.5t85.5 9.5q3 -12 4 -23t0 -22q-76 -6 -131 -13t-131 -21q8 -84 18.5 -167.5t22.5 -161.5q95 3 159 10.5t129 21.5q3 -11 3.5 -25.5t-1.5 -24.5zM286 7q78 0 120 92t40 258
q-2 151 -42.5 229.5t-116.5 78.5q-84 0 -131 -89t-47 -245q0 -139 48 -231.5t129 -92.5z" />
    <glyph glyph-name="oe" unicode="&#x153;" horiz-adv-x="754" 
d="M208 25q49 0 86 70.5t37 171.5q0 107 -28 159t-86 52q-53 0 -92 -69t-39 -168q0 -92 33 -154t89 -62zM398 299q31 -13 67 -19t83 -6q12 0 25.5 1.5t19.5 3.5q7 29 11 54t4 46q0 48 -16 68.5t-52 20.5q-46 0 -85 -47t-57 -122zM640 157q12 -2 24.5 -9t21.5 -17
q-18 -58 -75 -104.5t-114 -46.5q-52 0 -89.5 30t-56.5 86q-26 -56 -64.5 -86t-86.5 -30q-77 0 -123 71t-46 183q0 128 55.5 208.5t143.5 80.5q55 0 94 -33t55 -94q31 57 74 87.5t92 30.5q55 0 86.5 -36.5t31.5 -99.5q0 -35 -6.5 -69t-18.5 -64q-19 -6 -45 -9t-62 -3
q-35 0 -71 6.5t-70 18.5l-2 -24t-1 -23q0 -83 29.5 -134.5t79.5 -51.5q44 0 86.5 38.5t57.5 93.5z" />
    <glyph glyph-name="Racute" unicode="&#x154;" horiz-adv-x="549" 
d="M525 0q-6 -6 -23 -14t-28 -10q-53 121 -95.5 197.5t-98.5 152.5q-32 -14 -65.5 -25.5t-68.5 -20.5q-3 -80 -7 -150t-10 -135q-10 -2 -25 -1.5t-22 3.5q6 118 7.5 161.5t1.5 89.5q0 175 -4.5 258.5t-17.5 200.5q43 30 97 46.5t108 16.5q93 0 148.5 -51t55.5 -135
q0 -77 -37.5 -135t-114.5 -101q47 -57 97.5 -145t101.5 -203zM133 689q8 -90 11 -157.5t3 -136.5v-34v-34q138 33 205 93t67 150q0 75 -38.5 114.5t-110.5 39.5q-37 0 -72.5 -9t-64.5 -26zM289 977q-5 -43 -20.5 -86t-41.5 -89q-11 1 -21 2.5t-20 4.5q18 52 28 92.5t13 78.5
q15 2 32.5 1t29.5 -4z" />
    <glyph glyph-name="racute" unicode="&#x155;" horiz-adv-x="332" 
d="M131 -3q-5 -2 -11.5 -3.5t-14.5 -2.5q-7 -1 -12 -0.5t-10 1.5q-24 130 -32 266.5t-1 283.5q6 3 13.5 4t23.5 1q4 0 8 -0.5t17 -3.5q-6 -49 -9 -80.5t-4 -58.5q22 80 61 128t80 48q37 0 53.5 -26t16.5 -84q0 -13 -1 -28t-2 -31q-7 -2 -16.5 -3t-27.5 -1q2 16 3 31t1 29
q0 34 -8 49.5t-25 15.5q-37 0 -74 -73.5t-60 -192.5q3 -54 10.5 -119t20.5 -150zM227 762q-5 -43 -20.5 -86t-41.5 -89q-11 1 -21 2.5t-20 4.5q18 52 28 92.5t13 78.5q15 2 32.5 1t29.5 -4z" />
    <glyph glyph-name="uni0156" unicode="&#x156;" horiz-adv-x="549" 
d="M525 0q-6 -6 -23 -14t-28 -10q-53 121 -95.5 197.5t-98.5 152.5q-32 -14 -65.5 -25.5t-68.5 -20.5q-3 -80 -7 -150t-10 -135q-10 -2 -25 -1.5t-22 3.5q6 118 7.5 161.5t1.5 89.5q0 175 -4.5 258.5t-17.5 200.5q43 30 97 46.5t108 16.5q93 0 148.5 -51t55.5 -135
q0 -77 -37.5 -135t-114.5 -101q47 -57 97.5 -145t101.5 -203zM133 689q8 -90 11 -157.5t3 -136.5v-34v-34q138 33 205 93t67 150q0 75 -38.5 114.5t-110.5 39.5q-37 0 -72.5 -9t-64.5 -26zM254 -37q14 3 26.5 4t25.5 0q4 -44 -5 -92.5t-30 -100.5q-12 1 -21.5 3t-18.5 7
q14 48 19.5 90.5t3.5 88.5z" />
    <glyph glyph-name="uni0157" unicode="&#x157;" horiz-adv-x="332" 
d="M131 -3q-5 -2 -11.5 -3.5t-14.5 -2.5q-7 -1 -12 -0.5t-10 1.5q-24 130 -32 266.5t-1 283.5q6 3 13.5 4t23.5 1q4 0 8 -0.5t17 -3.5q-6 -49 -9 -80.5t-4 -58.5q22 80 61 128t80 48q37 0 53.5 -26t16.5 -84q0 -13 -1 -28t-2 -31q-7 -2 -16.5 -3t-27.5 -1q2 16 3 31t1 29
q0 34 -8 49.5t-25 15.5q-37 0 -74 -73.5t-60 -192.5q3 -54 10.5 -119t20.5 -150zM77 -52q14 3 26.5 4t25.5 0q4 -44 -5 -92.5t-30 -100.5q-12 1 -21.5 3t-18.5 7q14 48 19.5 90.5t3.5 88.5z" />
    <glyph glyph-name="Rcaron" unicode="&#x158;" horiz-adv-x="549" 
d="M525 0q-6 -6 -23 -14t-28 -10q-53 121 -95.5 197.5t-98.5 152.5q-32 -14 -65.5 -25.5t-68.5 -20.5q-3 -80 -7 -150t-10 -135q-10 -2 -25 -1.5t-22 3.5q6 118 7.5 161.5t1.5 89.5q0 175 -4.5 258.5t-17.5 200.5q43 30 97 46.5t108 16.5q93 0 148.5 -51t55.5 -135
q0 -77 -37.5 -135t-114.5 -101q47 -57 97.5 -145t101.5 -203zM133 689q8 -90 11 -157.5t3 -136.5v-34v-34q138 33 205 93t67 150q0 75 -38.5 114.5t-110.5 39.5q-37 0 -72.5 -9t-64.5 -26zM113 943q9 9 16.5 13.5t17.5 9.5q33 -23 53.5 -42.5t37.5 -43.5q16 23 37 43.5
t54 43.5q11 -6 19 -11.5t15 -11.5q-42 -38 -62.5 -65t-37.5 -65q-5 -1 -12.5 -2t-13.5 -1q-4 0 -11 0.5t-12 1.5q-15 35 -35.5 62t-65.5 68z" />
    <glyph glyph-name="rcaron" unicode="&#x159;" horiz-adv-x="332" 
d="M131 -3q-5 -2 -11.5 -3.5t-14.5 -2.5q-7 -1 -12 -0.5t-10 1.5q-24 130 -32 266.5t-1 283.5q6 3 13.5 4t23.5 1q4 0 8 -0.5t17 -3.5q-6 -49 -9 -80.5t-4 -58.5q22 80 61 128t80 48q37 0 53.5 -26t16.5 -84q0 -13 -1 -28t-2 -31q-7 -2 -16.5 -3t-27.5 -1q2 16 3 31t1 29
q0 34 -8 49.5t-25 15.5q-37 0 -74 -73.5t-60 -192.5q3 -54 10.5 -119t20.5 -150zM26 717q9 9 16.5 13.5t17.5 9.5q33 -23 53.5 -42.5t37.5 -43.5q16 23 37 43.5t54 43.5q11 -6 19 -11.5t15 -11.5q-42 -38 -62.5 -65t-37.5 -65q-5 -1 -12.5 -2t-13.5 -1q-4 0 -11 0.5t-12 1.5
q-15 35 -35.5 62t-65.5 68z" />
    <glyph glyph-name="Sacute" unicode="&#x15a;" horiz-adv-x="461" 
d="M378 279q20 -29 29.5 -63.5t9.5 -75.5q0 -80 -49.5 -130t-127.5 -50q-97 0 -149.5 72.5t-52.5 196.5q12 7 27 11.5t31 5.5q-1 -113 36.5 -176t106.5 -63q53 0 85.5 36t32.5 94q0 35 -9 65t-28 55q-13 18 -32 36t-62 49q-48 36 -70 57.5t-36 43.5q-20 30 -29.5 64.5
t-9.5 76.5q0 85 45.5 134t122.5 49q72 0 111 -42t58 -147q-11 -6 -23.5 -9t-31.5 -4q-10 82 -37 118.5t-80 36.5q-51 0 -78 -34t-27 -99q0 -36 9 -66t28 -56q14 -18 33 -36t62 -51q48 -35 69.5 -56t35.5 -43zM314 977q-5 -43 -20.5 -86t-41.5 -89q-11 1 -21 2.5t-20 4.5
q18 52 28 92.5t13 78.5q15 2 32.5 1t29.5 -4z" />
    <glyph glyph-name="sacute" unicode="&#x15b;" horiz-adv-x="352" 
d="M206 280q69 -51 90.5 -86.5t21.5 -78.5q0 -67 -39.5 -111t-101.5 -44q-68 0 -110 52t-42 137q15 4 27 5.5t25 0.5q-2 -71 25 -111t77 -40q39 0 61.5 27t22.5 73q0 37 -19.5 67.5t-82.5 78.5q-72 54 -94.5 92t-22.5 85q0 61 33.5 95.5t93.5 34.5q56 0 87.5 -35t44.5 -114
q-11 -4 -22.5 -7t-22.5 -5q-8 61 -29.5 89t-59.5 28q-33 0 -51.5 -21t-18.5 -59q0 -39 20.5 -71.5t86.5 -81.5zM250 756q-5 -43 -20.5 -86t-41.5 -89q-11 1 -21 2.5t-20 4.5q18 52 28 92.5t13 78.5q15 2 32.5 1t29.5 -4z" />
    <glyph glyph-name="uni015E" unicode="&#x15e;" horiz-adv-x="461" 
d="M378 279q20 -29 29.5 -63.5t9.5 -75.5q0 -80 -49.5 -130t-127.5 -50q-97 0 -149.5 72.5t-52.5 196.5q12 7 27 11.5t31 5.5q-1 -113 36.5 -176t106.5 -63q53 0 85.5 36t32.5 94q0 35 -9 65t-28 55q-13 18 -32 36t-62 49q-48 36 -70 57.5t-36 43.5q-20 30 -29.5 64.5
t-9.5 76.5q0 85 45.5 134t122.5 49q72 0 111 -42t58 -147q-11 -6 -23.5 -9t-31.5 -4q-10 82 -37 118.5t-80 36.5q-51 0 -78 -34t-27 -99q0 -36 9 -66t28 -56q14 -18 33 -36t62 -51q48 -35 69.5 -56t35.5 -43zM342 -151q0 -41 -28.5 -67t-74.5 -26q-37 0 -62 18.5t-39 55.5
q13 9 21 13.5t17 7.5q8 -24 24 -38t37 -14q24 0 38 12.5t14 34.5q0 18 -13.5 30.5t-32.5 12.5q-11 0 -19.5 -2.5t-17.5 -7.5q-8 6 -16 14t-11 13q14 21 22 41.5t11 42.5l47 -10q-2 -15 -6 -28.5t-12 -27.5q10 1 13.5 1.5t6.5 0.5q37 0 59 -21t22 -56z" />
    <glyph glyph-name="uni015F" unicode="&#x15f;" horiz-adv-x="352" 
d="M206 280q69 -51 90.5 -86.5t21.5 -78.5q0 -67 -39.5 -111t-101.5 -44q-68 0 -110 52t-42 137q15 4 27 5.5t25 0.5q-2 -71 25 -111t77 -40q39 0 61.5 27t22.5 73q0 37 -19.5 67.5t-82.5 78.5q-72 54 -94.5 92t-22.5 85q0 61 33.5 95.5t93.5 34.5q56 0 87.5 -35t44.5 -114
q-11 -4 -22.5 -7t-22.5 -5q-8 61 -29.5 89t-59.5 28q-33 0 -51.5 -21t-18.5 -59q0 -39 20.5 -71.5t86.5 -81.5zM286 -154q0 -41 -28.5 -67t-74.5 -26q-37 0 -62 18.5t-39 55.5q13 9 21 13.5t17 7.5q8 -24 24 -38t37 -14q24 0 38 12.5t14 34.5q0 18 -13.5 30.5t-32.5 12.5
q-11 0 -19.5 -2.5t-17.5 -7.5q-8 6 -16 14t-11 13q14 21 22 41.5t11 42.5l47 -10q-2 -15 -6 -28.5t-12 -27.5q10 1 13.5 1.5t6.5 0.5q37 0 59 -21t22 -56z" />
    <glyph glyph-name="Scaron" unicode="&#x160;" horiz-adv-x="461" 
d="M378 279q20 -29 29.5 -63.5t9.5 -75.5q0 -80 -49.5 -130t-127.5 -50q-97 0 -149.5 72.5t-52.5 196.5q12 7 27 11.5t31 5.5q-1 -113 36.5 -176t106.5 -63q53 0 85.5 36t32.5 94q0 35 -9 65t-28 55q-13 18 -32 36t-62 49q-48 36 -70 57.5t-36 43.5q-20 30 -29.5 64.5
t-9.5 76.5q0 85 45.5 134t122.5 49q72 0 111 -42t58 -147q-11 -6 -23.5 -9t-31.5 -4q-10 82 -37 118.5t-80 36.5q-51 0 -78 -34t-27 -99q0 -36 9 -66t28 -56q14 -18 33 -36t62 -51q48 -35 69.5 -56t35.5 -43zM129 930q9 9 16.5 13.5t17.5 9.5q33 -23 53.5 -42.5t37.5 -43.5
q16 23 37 43.5t54 43.5q11 -6 19 -11.5t15 -11.5q-42 -38 -62.5 -65t-37.5 -65q-5 -1 -12.5 -2t-13.5 -1q-4 0 -11 0.5t-12 1.5q-15 35 -35.5 62t-65.5 68z" />
    <glyph glyph-name="scaron" unicode="&#x161;" horiz-adv-x="352" 
d="M206 280q69 -51 90.5 -86.5t21.5 -78.5q0 -67 -39.5 -111t-101.5 -44q-68 0 -110 52t-42 137q15 4 27 5.5t25 0.5q-2 -71 25 -111t77 -40q39 0 61.5 27t22.5 73q0 37 -19.5 67.5t-82.5 78.5q-72 54 -94.5 92t-22.5 85q0 61 33.5 95.5t93.5 34.5q56 0 87.5 -35t44.5 -114
q-11 -4 -22.5 -7t-22.5 -5q-8 61 -29.5 89t-59.5 28q-33 0 -51.5 -21t-18.5 -59q0 -39 20.5 -71.5t86.5 -81.5zM51 713q9 9 16.5 13.5t17.5 9.5q33 -23 53.5 -42.5t37.5 -43.5q16 23 37 43.5t54 43.5q11 -6 19 -11.5t15 -11.5q-42 -38 -62.5 -65t-37.5 -65q-5 -1 -12.5 -2
t-13.5 -1q-4 0 -11 0.5t-12 1.5q-15 35 -35.5 62t-65.5 68z" />
    <glyph glyph-name="uni0162" unicode="&#x162;" horiz-adv-x="592" 
d="M356 33q-7 -3 -22.5 -5t-32.5 -3q6 166 -3.5 351t-31.5 348q-46 -5 -101 -12t-136 -19q-3 13 -4 27t0 24q159 25 273.5 35t256.5 12q3 -6 4.5 -12.5t2.5 -14.5q1 -6 0.5 -14.5t-0.5 -9.5q-69 -1 -125 -3.5t-108 -6.5q16 -152 23 -273t7 -248q0 -42 -0.5 -85.5t-2.5 -90.5
zM437 -97q0 -41 -28.5 -67t-74.5 -26q-37 0 -62 18.5t-39 55.5q13 9 21 13.5t17 7.5q8 -24 24 -38t37 -14q24 0 38 12.5t14 34.5q0 18 -13.5 30.5t-32.5 12.5q-11 0 -19.5 -2.5t-17.5 -7.5q-8 6 -16 14t-11 13q14 21 22 41.5t11 42.5l47 -10q-2 -15 -6 -28.5t-12 -27.5
q10 1 13.5 1.5t6.5 0.5q37 0 59 -21t22 -56z" />
    <glyph glyph-name="uni0163" unicode="&#x163;" horiz-adv-x="356" 
d="M266 203q12 -1 24 -4t21 -8q-3 -85 -32 -132.5t-78 -47.5q-57 0 -84.5 69.5t-27.5 214.5q0 50 3 98t10 96q-22 2 -40.5 4.5t-35.5 5.5q1 10 3.5 20t6.5 22q20 -4 38 -7t34 -4q6 34 13 67t15 66q14 -1 27 -3.5t32 -8.5q-10 -32 -18 -63.5t-14 -61.5q32 -1 69.5 0t82.5 5
q0 -9 -2 -19t-5 -21q-43 -4 -81 -5t-72 0q-8 -48 -12 -98.5t-4 -101.5q0 -112 17 -171t50 -59q30 0 44.5 35t15.5 112zM310 -93q0 -41 -28.5 -67t-74.5 -26q-37 0 -62 18.5t-39 55.5q13 9 21 13.5t17 7.5q8 -24 24 -38t37 -14q24 0 38 12.5t14 34.5q0 18 -13.5 30.5
t-32.5 12.5q-11 0 -19.5 -2.5t-17.5 -7.5q-8 6 -16 14t-11 13q14 21 22 41.5t11 42.5l47 -10q-2 -15 -6 -28.5t-12 -27.5q10 1 13.5 1.5t6.5 0.5q37 0 59 -21t22 -56z" />
    <glyph glyph-name="Tcaron" unicode="&#x164;" horiz-adv-x="592" 
d="M356 33q-7 -3 -22.5 -5t-32.5 -3q6 166 -3.5 351t-31.5 348q-46 -5 -101 -12t-136 -19q-3 13 -4 27t0 24q159 25 273.5 35t256.5 12q3 -6 4.5 -12.5t2.5 -14.5q1 -6 0.5 -14.5t-0.5 -9.5q-69 -1 -125 -3.5t-108 -6.5q16 -152 23 -273t7 -248q0 -42 -0.5 -85.5t-2.5 -90.5
zM153 951q9 9 16.5 13.5t17.5 9.5q33 -23 53.5 -42.5t37.5 -43.5q16 23 37 43.5t54 43.5q11 -6 19 -11.5t15 -11.5q-42 -38 -62.5 -65t-37.5 -65q-5 -1 -12.5 -2t-13.5 -1q-4 0 -11 0.5t-12 1.5q-15 35 -35.5 62t-65.5 68z" />
    <glyph glyph-name="tcaron" unicode="&#x165;" horiz-adv-x="356" 
d="M266 203q12 -1 24 -4t21 -8q-3 -85 -32 -132.5t-78 -47.5q-57 0 -84.5 69.5t-27.5 214.5q0 50 3 98t10 96q-22 2 -40.5 4.5t-35.5 5.5q1 10 3.5 20t6.5 22q20 -4 38 -7t34 -4q6 34 13 67t15 66q14 -1 27 -3.5t32 -8.5q-10 -32 -18 -63.5t-14 -61.5q32 -1 69.5 0t82.5 5
q0 -9 -2 -19t-5 -21q-43 -4 -81 -5t-72 0q-8 -48 -12 -98.5t-4 -101.5q0 -112 17 -171t50 -59q30 0 44.5 35t15.5 112zM315 779q-7 -66 -20.5 -115t-37.5 -94q-11 1 -21 2.5t-20 4.5q17 47 26 97.5t11 107.5q15 2 32.5 1t29.5 -4z" />
    <glyph glyph-name="Umacron" unicode="&#x16a;" horiz-adv-x="538" 
d="M427 705q24 -90 35.5 -175t11.5 -167q0 -225 -58.5 -334t-180.5 -109q-90 0 -133.5 87.5t-43.5 266.5q0 91 14.5 190.5t35.5 165.5q6 2 16.5 3t19.5 1q5 0 10 -0.5t12 -1.5q-23 -92 -35 -177.5t-12 -161.5q0 -173 29 -248.5t98 -75.5q80 0 124 91t44 256q0 104 -11 189.5
t-38 188.5q14 4 28 6.5t34 4.5zM329 715q-60 -6 -107 -4t-79 12q-1 11 0 24.5t3 24.5q43 -9 91 -10.5t93 4.5q1 -12 1 -23.5t-2 -27.5z" />
    <glyph glyph-name="umacron" unicode="&#x16b;" horiz-adv-x="386" 
d="M177 -10q-67 0 -101.5 71.5t-34.5 209.5q0 70 11 138.5t28 100.5q6 2 12.5 3.5t13.5 1.5q5 0 10.5 -1.5t10.5 -3.5q-16 -48 -24.5 -110.5t-8.5 -138.5q0 -98 24.5 -162t66.5 -64q51 0 78 74t27 211q0 40 -4 82t-8 59q11 5 27.5 8t29.5 3q5 -22 7.5 -53.5t2.5 -63.5
q0 -177 -42.5 -271t-125.5 -94zM311 569q-60 -6 -107 -4t-79 12q-1 11 0 24.5t3 24.5q43 -9 91 -10.5t93 4.5q1 -12 1 -23.5t-2 -27.5z" />
    <glyph glyph-name="Uring" unicode="&#x16e;" horiz-adv-x="538" 
d="M427 705q24 -90 35.5 -175t11.5 -167q0 -225 -58.5 -334t-180.5 -109q-90 0 -133.5 87.5t-43.5 266.5q0 91 14.5 190.5t35.5 165.5q6 2 16.5 3t19.5 1q5 0 10 -0.5t12 -1.5q-23 -92 -35 -177.5t-12 -161.5q0 -173 29 -248.5t98 -75.5q80 0 124 91t44 256q0 104 -11 189.5
t-38 188.5q14 4 28 6.5t34 4.5zM153 768q0 45 28 72t75 27q40 0 63 -21.5t23 -58.5q0 -50 -27 -78.5t-73 -28.5q-39 0 -64 25t-25 63zM291 781q0 26 -11 40t-29 14q-22 0 -35.5 -18.5t-13.5 -49.5q0 -23 12.5 -37.5t30.5 -14.5q21 0 33.5 18t12.5 48z" />
    <glyph glyph-name="uring" unicode="&#x16f;" horiz-adv-x="386" 
d="M177 -10q-67 0 -101.5 71.5t-34.5 209.5q0 70 11 138.5t28 100.5q6 2 12.5 3.5t13.5 1.5q5 0 10.5 -1.5t10.5 -3.5q-16 -48 -24.5 -110.5t-8.5 -138.5q0 -98 24.5 -162t66.5 -64q51 0 78 74t27 211q0 40 -4 82t-8 59q11 5 27.5 8t29.5 3q5 -22 7.5 -53.5t2.5 -63.5
q0 -177 -42.5 -271t-125.5 -94zM129 618q0 45 28 72t75 27q40 0 63 -21.5t23 -58.5q0 -50 -27 -78.5t-73 -28.5q-39 0 -64 25t-25 63zM267 631q0 26 -11 40t-29 14q-22 0 -35.5 -18.5t-13.5 -49.5q0 -23 12.5 -37.5t30.5 -14.5q21 0 33.5 18t12.5 48z" />
    <glyph glyph-name="Uhungarumlaut" unicode="&#x170;" horiz-adv-x="538" 
d="M427 705q24 -90 35.5 -175t11.5 -167q0 -225 -58.5 -334t-180.5 -109q-90 0 -133.5 87.5t-43.5 266.5q0 91 14.5 190.5t35.5 165.5q6 2 16.5 3t19.5 1q5 0 10 -0.5t12 -1.5q-23 -92 -35 -177.5t-12 -161.5q0 -173 29 -248.5t98 -75.5q80 0 124 91t44 256q0 104 -11 189.5
t-38 188.5q14 4 28 6.5t34 4.5zM262 874q-5 -43 -20.5 -86t-41.5 -89q-11 1 -21 2.5t-20 4.5q18 52 28 92.5t13 78.5q15 2 32.5 1t29.5 -4zM367 874q-5 -43 -20.5 -86t-41.5 -89q-11 1 -21 2.5t-20 4.5q18 52 28 92.5t13 78.5q15 2 32.5 1t29.5 -4z" />
    <glyph glyph-name="uhungarumlaut" unicode="&#x171;" horiz-adv-x="386" 
d="M177 -10q-67 0 -101.5 71.5t-34.5 209.5q0 70 11 138.5t28 100.5q6 2 12.5 3.5t13.5 1.5q5 0 10.5 -1.5t10.5 -3.5q-16 -48 -24.5 -110.5t-8.5 -138.5q0 -98 24.5 -162t66.5 -64q51 0 78 74t27 211q0 40 -4 82t-8 59q11 5 27.5 8t29.5 3q5 -22 7.5 -53.5t2.5 -63.5
q0 -177 -42.5 -271t-125.5 -94zM237 701q-5 -43 -20.5 -86t-41.5 -89q-11 1 -21 2.5t-20 4.5q18 52 28 92.5t13 78.5q15 2 32.5 1t29.5 -4zM342 701q-5 -43 -20.5 -86t-41.5 -89q-11 1 -21 2.5t-20 4.5q18 52 28 92.5t13 78.5q15 2 32.5 1t29.5 -4z" />
    <glyph glyph-name="Uogonek" unicode="&#x172;" horiz-adv-x="538" 
d="M370 -211q-17 -26 -40.5 -39.5t-53.5 -13.5q-36 0 -57.5 21t-21.5 56q0 30 12.5 55.5t41.5 51.5h-8h-8q-90 0 -133.5 87.5t-43.5 266.5q0 91 14.5 190.5t35.5 165.5q6 2 16.5 3t19.5 1q5 0 10 -0.5t12 -1.5q-23 -92 -35 -177.5t-12 -161.5q0 -173 29 -248.5t98 -75.5
q80 0 124 91t44 256q0 104 -11 189.5t-38 188.5q14 4 28 6.5t34 4.5q24 -90 35.5 -175t11.5 -167q0 -178 -34.5 -279.5t-112.5 -143.5q-35 -19 -55 -48.5t-20 -61.5q0 -23 10 -36.5t26 -13.5q18 0 32.5 11t26.5 34q8 -6 13 -14.5t10 -21.5z" />
    <glyph glyph-name="uogonek" unicode="&#x173;" horiz-adv-x="386" 
d="M294 -137q-17 -26 -40.5 -39.5t-53.5 -13.5q-37 0 -58 19t-21 53q0 28 14 54t44 54h-2q-67 0 -101.5 71.5t-34.5 209.5q0 70 11 138.5t28 100.5q6 2 12.5 3.5t13.5 1.5q5 0 10.5 -1.5t10.5 -3.5q-16 -48 -24.5 -110.5t-8.5 -138.5q0 -98 24.5 -162t66.5 -64q51 0 78 74
t27 211q0 40 -4 82t-8 59q11 5 27.5 8t29.5 3q5 -22 7.5 -53.5t2.5 -63.5q0 -133 -24 -220t-70 -121q-35 -26 -55 -58t-20 -62q0 -17 10.5 -28.5t25.5 -11.5q18 0 32.5 11t26.5 34q8 -6 13 -14.5t10 -21.5z" />
    <glyph glyph-name="Ydieresis" unicode="&#x178;" horiz-adv-x="504" 
d="M465 689q-78 -308 -149 -471t-172 -298q-13 4 -25 9t-23 12q45 63 82 124t66 123q-80 111 -132 230t-94 292q17 7 32.5 11.5t31.5 5.5q27 -134 72 -250t116 -232q43 99 74.5 213t54.5 255q17 -4 33.5 -10t32.5 -14zM207 889q11 -1 18.5 -3t15.5 -7q-12 -25 -21.5 -53.5
t-15.5 -54.5q-7 -1 -19.5 -1t-24.5 1q-1 4 -1 8.5v13.5q0 23 5 49t13 43q9 3 15 4t15 0zM311 889q11 -1 18.5 -3t15.5 -7q-12 -25 -21.5 -53.5t-15.5 -54.5q-7 -1 -19.5 -1t-24.5 1q-1 4 -1 8.5v13.5q0 23 5 49t13 43q9 3 15 4t15 0z" />
    <glyph glyph-name="Zacute" unicode="&#x179;" horiz-adv-x="585" 
d="M518 28q-1 -14 -5 -29t-12 -33q-121 1 -244 11t-230 28q-1 14 0 26t3 22q162 170 276 314t181 262q-107 10 -200 22.5t-188 29.5q1 15 5.5 29t13.5 27q82 -17 166.5 -31.5t271.5 -41.5q0 -1 -0.5 -4.5t-2.5 -15.5q-3 -13 -3.5 -16.5t-0.5 -4.5q-84 -134 -196 -273.5
t-269 -307.5q117 -14 227 -17.5t207 3.5zM411 918q-5 -43 -20.5 -86t-41.5 -89q-11 1 -21 2.5t-20 4.5q18 52 28 92.5t13 78.5q15 2 32.5 1t29.5 -4z" />
    <glyph glyph-name="zacute" unicode="&#x17a;" horiz-adv-x="422" 
d="M367 37q0 -9 -2.5 -18t-12.5 -33q-99 1 -175 8.5t-160 26.5q-1 14 -0.5 23.5t1.5 18.5q91 125 164 214t153 173q-70 14 -125.5 22.5t-141.5 16.5q2 15 4 23.5t7 24.5q89 -8 154 -20t158 -39q0 -10 -1.5 -21t-4.5 -19q-90 -95 -161 -180t-159 -204q85 -13 153 -16.5
t149 -0.5zM321 714q-5 -43 -20.5 -86t-41.5 -89q-11 1 -21 2.5t-20 4.5q18 52 28 92.5t13 78.5q15 2 32.5 1t29.5 -4z" />
    <glyph glyph-name="Zdotaccent" unicode="&#x17b;" horiz-adv-x="585" 
d="M518 28q-1 -14 -5 -29t-12 -33q-121 1 -244 11t-230 28q-1 14 0 26t3 22q162 170 276 314t181 262q-107 10 -200 22.5t-188 29.5q1 15 5.5 29t13.5 27q82 -17 166.5 -31.5t271.5 -41.5q0 -1 -0.5 -4.5t-2.5 -15.5q-3 -13 -3.5 -16.5t-0.5 -4.5q-84 -134 -196 -273.5
t-269 -307.5q117 -14 227 -17.5t207 3.5zM361 864q11 -1 18.5 -3t15.5 -7q-12 -25 -21.5 -53.5t-15.5 -54.5q-7 -1 -19.5 -1t-24.5 1q-1 4 -1 8.5v13.5q0 23 5 49t13 43q9 3 15 4t15 0z" />
    <glyph glyph-name="zdotaccent" unicode="&#x17c;" horiz-adv-x="422" 
d="M367 37q0 -9 -2.5 -18t-12.5 -33q-99 1 -175 8.5t-160 26.5q-1 14 -0.5 23.5t1.5 18.5q91 125 164 214t153 173q-70 14 -125.5 22.5t-141.5 16.5q2 15 4 23.5t7 24.5q89 -8 154 -20t158 -39q0 -10 -1.5 -21t-4.5 -19q-90 -95 -161 -180t-159 -204q85 -13 153 -16.5
t149 -0.5zM266 669q11 -1 18.5 -3t15.5 -7q-12 -25 -21.5 -53.5t-15.5 -54.5q-7 -1 -19.5 -1t-24.5 1q-1 4 -1 8.5v13.5q0 23 5 49t13 43q9 3 15 4t15 0z" />
    <glyph glyph-name="Zcaron" unicode="&#x17d;" horiz-adv-x="585" 
d="M518 28q-1 -14 -5 -29t-12 -33q-121 1 -244 11t-230 28q-1 14 0 26t3 22q162 170 276 314t181 262q-107 10 -200 22.5t-188 29.5q1 15 5.5 29t13.5 27q82 -17 166.5 -31.5t271.5 -41.5q0 -1 -0.5 -4.5t-2.5 -15.5q-3 -13 -3.5 -16.5t-0.5 -4.5q-84 -134 -196 -273.5
t-269 -307.5q117 -14 227 -17.5t207 3.5zM214 875q9 9 16.5 13.5t17.5 9.5q33 -23 53.5 -42.5t37.5 -43.5q16 23 37 43.5t54 43.5q11 -6 19 -11.5t15 -11.5q-42 -38 -62.5 -65t-37.5 -65q-5 -1 -12.5 -2t-13.5 -1q-4 0 -11 0.5t-12 1.5q-15 35 -35.5 62t-65.5 68z" />
    <glyph glyph-name="zcaron" unicode="&#x17e;" horiz-adv-x="422" 
d="M367 37q0 -9 -2.5 -18t-12.5 -33q-99 1 -175 8.5t-160 26.5q-1 14 -0.5 23.5t1.5 18.5q91 125 164 214t153 173q-70 14 -125.5 22.5t-141.5 16.5q2 15 4 23.5t7 24.5q89 -8 154 -20t158 -39q0 -10 -1.5 -21t-4.5 -19q-90 -95 -161 -180t-159 -204q85 -13 153 -16.5
t149 -0.5zM78 710q9 9 16.5 13.5t17.5 9.5q33 -23 53.5 -42.5t37.5 -43.5q16 23 37 43.5t54 43.5q11 -6 19 -11.5t15 -11.5q-42 -38 -62.5 -65t-37.5 -65q-5 -1 -12.5 -2t-13.5 -1q-4 0 -11 0.5t-12 1.5q-15 35 -35.5 62t-65.5 68z" />
    <glyph glyph-name="florin" unicode="&#x192;" horiz-adv-x="333" 
d="M213 63q0 -110 -30.5 -164t-93.5 -54q-43 0 -68.5 34t-25.5 89q0 16 4 34t9 28q13 0 25 -2t23 -7q-5 -12 -7.5 -27t-2.5 -33q0 -32 13 -51.5t35 -19.5q34 0 50.5 38t16.5 119q0 85 -26 207t-28 131q-26 3 -49.5 7.5t-44.5 10.5q0 8 1.5 18.5t4.5 19.5q16 -3 33.5 -5.5
t47.5 -5.5q-3 21 -4 39.5t-1 35.5q0 110 35 166t104 56q47 0 75.5 -34t28.5 -89q0 -16 -4 -34t-9 -28q-13 0 -25 2.5t-23 6.5q5 12 7.5 27t2.5 33q0 32 -16 51.5t-42 19.5q-38 0 -57 -40t-19 -119q0 -24 1 -47.5t4 -49.5q11 -1 25 -1h44q17 0 34 1.5t42 5.5q0 -9 -1.5 -21.5
t-3.5 -26.5q-13 -2 -32.5 -3.5t-42.5 -1.5q-11 0 -23 0.5t-37 1.5q3 -21 7.5 -43.5t14.5 -65.5q17 -79 22.5 -122t5.5 -87z" />
    <glyph glyph-name="uni0218" unicode="&#x218;" horiz-adv-x="461" 
d="M378 279q20 -29 29.5 -63.5t9.5 -75.5q0 -80 -49.5 -130t-127.5 -50q-97 0 -149.5 72.5t-52.5 196.5q12 7 27 11.5t31 5.5q-1 -113 36.5 -176t106.5 -63q53 0 85.5 36t32.5 94q0 35 -9 65t-28 55q-13 18 -32 36t-62 49q-48 36 -70 57.5t-36 43.5q-20 30 -29.5 64.5
t-9.5 76.5q0 85 45.5 134t122.5 49q72 0 111 -42t58 -147q-11 -6 -23.5 -9t-31.5 -4q-10 82 -37 118.5t-80 36.5q-51 0 -78 -34t-27 -99q0 -36 9 -66t28 -56q14 -18 33 -36t62 -51q48 -35 69.5 -56t35.5 -43zM212 -69q14 3 26.5 4t25.5 0q4 -44 -5 -92.5t-30 -100.5
q-12 1 -21.5 3t-18.5 7q14 48 19.5 90.5t3.5 88.5z" />
    <glyph glyph-name="uni0219" unicode="&#x219;" horiz-adv-x="352" 
d="M206 280q69 -51 90.5 -86.5t21.5 -78.5q0 -67 -39.5 -111t-101.5 -44q-68 0 -110 52t-42 137q15 4 27 5.5t25 0.5q-2 -71 25 -111t77 -40q39 0 61.5 27t22.5 73q0 37 -19.5 67.5t-82.5 78.5q-72 54 -94.5 92t-22.5 85q0 61 33.5 95.5t93.5 34.5q56 0 87.5 -35t44.5 -114
q-11 -4 -22.5 -7t-22.5 -5q-8 61 -29.5 89t-59.5 28q-33 0 -51.5 -21t-18.5 -59q0 -39 20.5 -71.5t86.5 -81.5zM154 -72q14 3 26.5 4t25.5 0q4 -44 -5 -92.5t-30 -100.5q-12 1 -21.5 3t-18.5 7q14 48 19.5 90.5t3.5 88.5z" />
    <glyph glyph-name="uni021A" unicode="&#x21a;" horiz-adv-x="592" 
d="M356 33q-7 -3 -22.5 -5t-32.5 -3q6 166 -3.5 351t-31.5 348q-46 -5 -101 -12t-136 -19q-3 13 -4 27t0 24q159 25 273.5 35t256.5 12q3 -6 4.5 -12.5t2.5 -14.5q1 -6 0.5 -14.5t-0.5 -9.5q-69 -1 -125 -3.5t-108 -6.5q16 -152 23 -273t7 -248q0 -42 -0.5 -85.5t-2.5 -90.5
zM299 -11q14 3 26.5 4t25.5 0q4 -44 -5 -92.5t-30 -100.5q-12 1 -21.5 3t-18.5 7q14 48 19.5 90.5t3.5 88.5z" />
    <glyph glyph-name="uni021B" unicode="&#x21b;" horiz-adv-x="356" 
d="M266 203q12 -1 24 -4t21 -8q-3 -85 -32 -132.5t-78 -47.5q-57 0 -84.5 69.5t-27.5 214.5q0 50 3 98t10 96q-22 2 -40.5 4.5t-35.5 5.5q1 10 3.5 20t6.5 22q20 -4 38 -7t34 -4q6 34 13 67t15 66q14 -1 27 -3.5t32 -8.5q-10 -32 -18 -63.5t-14 -61.5q32 -1 69.5 0t82.5 5
q0 -9 -2 -19t-5 -21q-43 -4 -81 -5t-72 0q-8 -48 -12 -98.5t-4 -101.5q0 -112 17 -171t50 -59q30 0 44.5 35t15.5 112zM157 -29q14 3 26.5 4t25.5 0q4 -44 -5 -92.5t-30 -100.5q-12 1 -21.5 3t-18.5 7q14 48 19.5 90.5t3.5 88.5z" />
    <glyph glyph-name="circumflex" unicode="&#x2c6;" horiz-adv-x="260" 
d="M255 607q-9 -9 -16.5 -13.5t-17.5 -9.5q-33 23 -53.5 42.5t-37.5 43.5q-16 -23 -37 -43.5t-54 -43.5q-11 6 -19 11.5t-15 11.5q42 38 62.5 65t37.5 65q5 1 12.5 2t13.5 1q4 0 11 -0.5t12 -1.5q15 -35 35.5 -62t65.5 -68z" />
    <glyph glyph-name="caron" unicode="&#x2c7;" horiz-adv-x="260" 
d="M5 710q9 9 16.5 13.5t17.5 9.5q33 -23 53.5 -42.5t37.5 -43.5q16 23 37 43.5t54 43.5q11 -6 19 -11.5t15 -11.5q-42 -38 -62.5 -65t-37.5 -65q-5 -1 -12.5 -2t-13.5 -1q-4 0 -11 0.5t-12 1.5q-15 35 -35.5 62t-65.5 68z" />
    <glyph glyph-name="uni02C9" unicode="&#x2c9;" horiz-adv-x="260" 
d="M37 649q-1 11 0 24.5t3 24.5q43 -9 91 -10.5t93 4.5q1 -12 1 -23.5t-2 -27.5q-60 -6 -107 -4t-79 12z" />
    <glyph glyph-name="breve" unicode="&#x2d8;" horiz-adv-x="260" 
d="M44 661q-10 15 -14 30t-4 36q12 4 25.5 6t24.5 1q-4 -38 10 -54.5t49 -16.5q33 0 46 19.5t3 53.5q10 3 23 3t26 -2q3 -25 -0.5 -45.5t-12.5 -36.5q-12 -18 -33.5 -27t-52.5 -9q-30 0 -52.5 10.5t-37.5 31.5z" />
    <glyph glyph-name="dotaccent" unicode="&#x2d9;" horiz-adv-x="261" 
d="M156 744q11 -1 18.5 -3t15.5 -7q-12 -25 -21.5 -53.5t-15.5 -54.5q-7 -1 -19.5 -1t-24.5 1q-1 4 -1 8.5v13.5q0 23 5 49t13 43q9 3 15 4t15 0z" />
    <glyph glyph-name="ring" unicode="&#x2da;" horiz-adv-x="260" 
d="M35 666q0 45 28 72t75 27q40 0 63 -21.5t23 -58.5q0 -50 -27 -78.5t-73 -28.5q-39 0 -64 25t-25 63zM173 679q0 26 -11 40t-29 14q-22 0 -35.5 -18.5t-13.5 -49.5q0 -23 12.5 -37.5t30.5 -14.5q21 0 33.5 18t12.5 48z" />
    <glyph glyph-name="ogonek" unicode="&#x2db;" horiz-adv-x="261" 
d="M127 8l28 -8q-35 -33 -51 -60.5t-16 -56.5q0 -19 9.5 -29t26.5 -10q18 0 32.5 11t26.5 34q8 -6 13 -14.5t10 -21.5q-19 -30 -42 -43.5t-54 -13.5q-35 0 -56 20.5t-21 53.5q0 37 23.5 71t70.5 67z" />
    <glyph glyph-name="tilde" unicode="&#x2dc;" horiz-adv-x="260" 
d="M139 705q15 -9 22.5 -11.5t13.5 -2.5q14 0 19 8.5t4 29.5q11 1 20 -1t22 -8q3 -38 -12 -57t-47 -19q-13 0 -25.5 4t-32.5 16q-14 9 -21 11.5t-13 2.5q-12 0 -17 -9t-4 -27q-11 -1 -21.5 1t-20.5 6q-3 36 12 56t46 20q12 0 23.5 -4t31.5 -16z" />
    <glyph glyph-name="hungarumlaut" unicode="&#x2dd;" horiz-adv-x="260" 
d="M145 746q-5 -43 -20.5 -86t-41.5 -89q-11 1 -21 2.5t-20 4.5q18 52 28 92.5t13 78.5q15 2 32.5 1t29.5 -4zM250 746q-5 -43 -20.5 -86t-41.5 -89q-11 1 -21 2.5t-20 4.5q18 52 28 92.5t13 78.5q15 2 32.5 1t29.5 -4z" />
    <glyph glyph-name="pi" unicode="&#x3c0;" horiz-adv-x="574" 
d="M189 467q5 -31 8 -67.5t4 -69.5q1 -85 -8.5 -153t-38.5 -170q-13 1 -27.5 4.5t-22.5 7.5q27 90 37 151t10 137q0 45 -3 80.5t-10 76.5q-21 -2 -45.5 -4.5t-64.5 -7.5q-4 17 -6 31t-2 27q96 5 254 9.5t272 4.5q6 -13 7.5 -29.5t-2.5 -38.5q-34 3 -67.5 5t-64.5 3
q-11 -68 -15 -108t-4 -74q0 -108 16 -167t46 -59q19 0 26.5 23t9.5 88q12 -1 24 -4t21 -8q-2 -70 -24 -107t-62 -37q-53 0 -80 70.5t-27 209.5q0 29 3 62.5t13 112.5q-56 1 -82 1.5t-47 0.5h-30.5t-17.5 -1z" />
    <glyph glyph-name="bn_danda" unicode="&#x964;" horiz-adv-x="586" 
d="M440 262q0 -104 7.5 -193t21.5 -150q-27 -11 -40 -14.5t-24 -3.5q0 10 -1 22.5l-3 37.5q-3 41 -4 62t-1 40q0 205 5 308.5t17 215.5l37 8q-11 -163 -13 -220.5t-2 -112.5z" />
    <glyph glyph-name="bn_doubledanda" unicode="&#x965;" horiz-adv-x="836" 
d="M440 262q0 -104 7.5 -193t21.5 -150q-27 -11 -40 -14.5t-24 -3.5q0 10 -1 22.5l-3 37.5q-3 41 -4 62t-1 40q0 205 5 308.5t17 215.5l37 8q-11 -163 -13 -220.5t-2 -112.5zM690 262q0 -104 7.5 -193t21.5 -150q-27 -11 -40 -14.5t-24 -3.5q0 10 -1 22.5l-3 37.5
q-3 41 -4 62t-1 40q0 205 5 308.5t17 215.5l37 8q-11 -163 -13 -220.5t-2 -112.5z" />
    <glyph glyph-name="bn_chandrabindu" unicode="&#x981;" horiz-adv-x="0" 
d="M5 871q17 0 29 -13t12 -31q0 -17 -11 -28t-29 -11t-29.5 12.5t-11.5 31.5q0 16 11.5 27.5t28.5 11.5zM112 816l32 -11q-10 -62 -50 -101t-94 -39q-50 0 -86.5 29.5t-45.5 75.5l45 18q9 -33 34.5 -54t58.5 -21q38 0 66.5 28t39.5 75z" />
    <glyph glyph-name="bn_anusvar" unicode="&#x982;" horiz-adv-x="438" 
d="M230 599q58 0 95.5 -35t37.5 -90q0 -59 -43.5 -101.5t-104.5 -42.5q-56 0 -93 35.5t-37 90.5q0 60 42 101.5t103 41.5zM215 556q-39 0 -61.5 -22.5t-22.5 -61.5q0 -45 27 -72t71 -27q40 0 64 24t24 64q0 43 -28 69t-74 26zM50 310q112 -45 212 -133t160 -198
q-6 -8 -14 -13.5t-21 -10.5q-71 113 -166 194t-191 110q3 16 7.5 27.5t12.5 23.5z" />
    <glyph glyph-name="bn_bisarga" unicode="&#x983;" horiz-adv-x="433" 
d="M230 599q58 0 95.5 -35t37.5 -90q0 -59 -43.5 -101.5t-104.5 -42.5q-56 0 -93 35.5t-37 90.5q0 60 42 101.5t103 41.5zM215 556q-39 0 -61.5 -22.5t-22.5 -61.5q0 -45 27 -72t71 -27q40 0 64 24t24 64q0 43 -28 69t-74 26zM227 266q56 0 93 -36t37 -90q0 -57 -40.5 -96
t-98.5 -39q-55 0 -91.5 35.5t-36.5 89.5q0 57 39.5 96.5t97.5 39.5zM216 221q-37 0 -59 -21t-22 -57q0 -41 27 -67t70 -26q37 0 58.5 20.5t21.5 56.5q0 41 -26.5 67.5t-69.5 26.5z" />
    <glyph glyph-name="bn_a" unicode="&#x985;" horiz-adv-x="612" 
d="M553 436q0 -132 -19.5 -261t-50.5 -193q-11 0 -22.5 3t-20.5 9q-19 36 -39 66.5t-43 55.5q-15 -9 -32 -14t-36 -5q-81 0 -149.5 86t-122.5 255q10 10 19.5 16.5t19.5 10.5q50 -160 108 -238t125 -78q46 0 70 36.5t24 105.5q0 75 -23.5 121t-62.5 46q-25 0 -38 -20
t-13 -58q0 -20 5.5 -39.5t15.5 -32.5q-15 0 -29.5 2t-22.5 6q-7 14 -11 32t-4 35q0 50 25 82.5t64 32.5q59 0 99 -64t40 -153q0 -41 -10.5 -76.5t-29.5 -60.5q21 -26 38.5 -54.5t31.5 -58.5q22 71 32.5 170t10.5 232q0 31 -0.5 59t-2.5 62q-48 6 -97.5 9.5t-98.5 3.5
q-73 0 -146 -7.5t-157 -24.5q-2 5 -3.5 11.5t-1.5 14.5q0 6 1.5 11t3.5 9q77 18 153 26.5t153 8.5q80 0 162 -9.5t144 -25.5q2 -3 3 -7.5t1 -11.5t-1 -14t-3 -13q-18 4 -33 6.5t-29 4.5q2 -18 2.5 -40.5t0.5 -69.5z" />
    <glyph glyph-name="bn_aa" unicode="&#x986;" horiz-adv-x="836" 
d="M758 489q-15 -126 -16.5 -253.5t10.5 -261.5q-15 -3 -35 -5t-31 -1q1 189 6.5 290t16.5 207q-6 29 -45 50.5t-108 35.5q-10 -45 -15 -111t-5 -145q0 -99 6.5 -175.5t19.5 -123.5q-9 -6 -22.5 -9t-30.5 -3q-26 46 -57 84t-65 67q-18 -21 -42.5 -32t-53.5 -11
q-81 0 -149.5 86t-122.5 255q10 10 19.5 16.5t19.5 10.5q50 -160 108 -238t125 -78q46 0 70 36.5t24 105.5q0 75 -23.5 121t-62.5 46q-25 0 -38 -20t-13 -58q0 -20 5.5 -39.5t15.5 -32.5q-15 0 -29.5 2t-22.5 6q-7 14 -11 32t-4 35q0 50 25 82.5t64 32.5q59 0 99 -64
t40 -153q0 -32 -5.5 -59t-16.5 -49q26 -23 47.5 -49.5t39.5 -55.5q-3 29 -4 64.5t-1 79.5q0 107 7 201t20 150q-40 6 -87 9t-97 3q-79 0 -162.5 -9t-170.5 -26q-4 12 -4.5 25.5t4.5 20.5q81 18 167 28t169 10q136 0 242 -23.5t153 -66.5q15 16 42 29.5t63 22.5q3 -7 3 -21
t-3 -25q-30 -9 -50 -20.5t-28 -25.5z" />
    <glyph glyph-name="bn_i" unicode="&#x987;" horiz-adv-x="442" 
d="M445 561q0 -7 -1 -14t-2 -12q-41 11 -103 18.5t-115 7.5q-50 0 -111.5 -7.5t-112.5 -18.5q-3 6 -4.5 12.5t-1.5 12.5q0 7 1.5 12t4.5 9q45 13 108.5 21.5t116.5 8.5q44 0 93 -5.5t87 -14.5q-12 52 -37 79t-63 27q-18 0 -38 -2.5t-57 -10.5q-34 -7 -51.5 -9.5t-32.5 -2.5
q-47 0 -82.5 23.5t-64.5 74.5q7 9 17 17t20 12q28 -45 54 -63t58 -18q12 0 27 2t48 9q40 9 60.5 11.5t38.5 2.5q56 0 93 -43t47 -119q2 -3 2.5 -7t0.5 -13zM464 -77q-6 -9 -13.5 -19t-18.5 -22q-88 98 -180 160t-198 95l-20 70q48 -18 89 -27t76 -9q61 0 95 29t34 81
q0 66 -47.5 121t-105.5 55q-28 0 -44 -13.5t-16 -36.5q0 -20 13 -41.5t42 -48.5q-11 -5 -27.5 -7.5t-29.5 -1.5q-22 26 -32.5 50.5t-10.5 49.5q0 41 27.5 65.5t73.5 24.5q80 0 142.5 -70t62.5 -158q0 -70 -45.5 -109t-126.5 -39q68 -37 133.5 -87t126.5 -112z" />
    <glyph glyph-name="bn_ii" unicode="&#x988;" horiz-adv-x="528" 
d="M531 561q0 -7 -1 -14t-2 -12q-54 13 -120.5 19.5t-139.5 6.5q-72 0 -139 -6.5t-129 -19.5q-3 6 -4.5 12.5t-1.5 12.5q0 7 1.5 12t4.5 9q53 14 122 22t145 8q62 0 119.5 -5.5t104.5 -15.5q-12 53 -37 80t-63 27q-18 0 -38 -2t-58 -9q-35 -7 -53 -9t-33 -2q-47 0 -82.5 23
t-64.5 72q6 7 15.5 13.5t22.5 12.5q29 -44 54 -59.5t57 -15.5q12 0 27.5 2t49.5 8q40 7 61 9.5t39 2.5q56 0 93 -43t47 -119q2 -3 2.5 -7t0.5 -13zM475 -4q-12 -5 -25 -8t-27 -4q-22 79 -23 179.5t17 195.5q-58 -169 -108.5 -226t-135.5 -57q-24 0 -52.5 5t-55.5 14l-20 64
q42 -18 71.5 -26t55.5 -8q57 0 90 34t33 92q0 73 -49.5 131t-111.5 58q-28 0 -44 -13.5t-16 -37.5q0 -27 22 -52t59 -43q-7 -10 -20.5 -18t-24.5 -10q-41 29 -61 59t-20 64q0 42 28 66.5t74 24.5q76 0 137.5 -65.5t67.5 -151.5q20 60 44.5 111t45.5 77q16 -5 28 -12t21 -17
q-31 -95 -31 -202.5t31 -223.5z" />
    <glyph glyph-name="bn_u" unicode="&#x989;" horiz-adv-x="556" 
d="M535 203q0 -101 -49 -160.5t-134 -59.5q-115 0 -196.5 103t-145.5 344q9 7 19.5 13t22.5 12q59 -220 129.5 -318.5t170.5 -98.5q66 0 101.5 46.5t35.5 132.5q0 35 -5 68.5t-15 64.5q-44 -54 -76.5 -75.5t-63.5 -21.5q-45 0 -76 36t-31 86q0 30 8 73t29 118
q-71 -1 -135 -9t-125 -22q-2 5 -3 11.5t-1 13.5q0 6 1 11.5t3 9.5q64 18 134 26.5t147 8.5q64 0 123.5 -6.5t115.5 -19.5q-12 53 -37 80t-63 27q-18 0 -38.5 -2.5t-58.5 -10.5q-36 -7 -54 -9.5t-33 -2.5q-50 0 -86.5 23t-65.5 75q7 9 17 17t20 12q28 -45 55 -63t62 -18
q12 0 27.5 2t50.5 9q41 9 62 11.5t39 2.5q56 0 93 -43t47 -119q2 -4 3.5 -10t1.5 -11q0 -6 -1.5 -13t-3.5 -12q-58 14 -119.5 22t-127.5 9q-30 -109 -36 -141.5t-6 -56.5q0 -32 14.5 -50t41.5 -18q22 0 52.5 25.5t81.5 88.5q7 -1 16 -5.5t17 -9.5q21 -43 33 -94t12 -102z
" />
    <glyph glyph-name="bn_uu" unicode="&#x98a;" horiz-adv-x="610" 
d="M589 205q0 -107 -54 -167.5t-151 -60.5q-124 0 -218 102t-161 312q8 6 18 12t23 12q49 -166 107.5 -257.5t138.5 -124.5q-62 45 -110 139.5t-91 264.5q8 6 18 12t23 12q54 -225 116.5 -324t153.5 -99q68 0 104.5 48t36.5 138q0 31 -4.5 64t-13.5 64q-46 -56 -78 -77.5
t-65 -21.5q-45 0 -75.5 37t-30.5 90q0 26 8.5 69.5t27.5 113.5h-4h-4q-85 0 -159 -6.5t-146 -21.5q-3 5 -4 10.5t-1 13.5q0 7 1 12.5t4 9.5q69 16 144 24t161 8q75 0 141.5 -6t127.5 -18q-12 54 -37 81t-63 27q-21 0 -46 -2.5t-72 -10.5q-45 -7 -67 -9.5t-40 -2.5
q-51 0 -88.5 23t-66.5 75q7 9 17 17t20 12q28 -45 56 -63t64 -18q14 0 33 2t62 9q52 9 78 11.5t47 2.5q56 0 93 -43t47 -119l3 -13.5t1 -9.5q0 -6 -1 -12.5t-3 -10.5q-56 12 -117 18.5t-130 8.5q-29 -100 -35.5 -134t-6.5 -57q0 -33 14 -52t38 -19t52 22t86 92q7 -1 16 -5.5
t17 -9.5q21 -42 33 -93t12 -101z" />
    <glyph glyph-name="bn_ri" unicode="&#x98b;" horiz-adv-x="655" 
d="M362 52v9q0 95 5 183.5t15 166.5q-57 -25 -120.5 -64t-107.5 -77q70 -34 122.5 -89t85.5 -129zM404 56v-44t1 -25q-6 -2 -14.5 -3t-27.5 -1q-44 100 -105 161t-141 84q-11 13 -16 26.5t-6 34.5q37 38 102.5 81t138.5 78q-2 19 -12.5 36t-28.5 33q-29 -40 -69 -63.5
t-81 -23.5q-46 0 -74.5 28t-28.5 75q0 16 3.5 30.5t9.5 25.5q12 5 27.5 7.5t29.5 1.5q-8 -11 -13 -27.5t-5 -33.5q0 -27 13.5 -40.5t39.5 -13.5q35 0 70.5 21.5t61.5 59.5l36 -17q18 -13 32.5 -36t20.5 -49q5 2 10.5 4.5t10.5 4.5q2 23 6 47.5t15 76.5q14 0 27 -3.5t23 -9.5
q-22 -84 -35 -167.5t-17 -174.5q41 -27 75 -62.5t61 -79.5q-6 41 -9 89.5t-3 99.5q0 87 9.5 160.5t28.5 137.5q11 0 22 -2t20 -6q-18 -58 -28.5 -131.5t-10.5 -151.5q0 -85 11.5 -158.5t34.5 -130.5q-10 -6 -22.5 -9t-26.5 -2q-35 69 -75.5 118t-88.5 79q-1 -23 -1.5 -51
t-0.5 -84z" />
    <glyph glyph-name="bn_li" unicode="&#x98c;" horiz-adv-x="460" 
d="M418 327q0 -70 -19.5 -161.5t-52.5 -182.5q-14 0 -26 3t-23 9q4 111 -33.5 181t-99.5 70q-43 0 -69.5 -32.5t-26.5 -86.5q0 -43 17.5 -68.5t44.5 -25.5q23 0 41 19.5t29 55.5q10 -17 15 -31.5t6 -24.5q-13 -31 -38 -49.5t-52 -18.5q-44 0 -76 44t-32 108q0 70 38.5 115.5
t96.5 45.5q67 0 114.5 -58.5t57.5 -155.5q20 55 32.5 130.5t12.5 142.5q0 58 -27.5 85t-124.5 47q-62 14 -87.5 22t-42.5 19q-28 16 -44.5 43t-24.5 69q10 7 22 12t21 6q12 -54 36 -79t86 -38l69 -15q89 -19 124.5 -64.5t35.5 -135.5z" />
    <glyph glyph-name="bn_e" unicode="&#x98f;" horiz-adv-x="568" 
d="M476 -9q-10 -4 -22 -6t-25 -2q-13 26 -21.5 41.5t-12.5 20.5q-12 16 -27 23t-34 7q-14 0 -32 -3.5t-58 -15.5q-44 -14 -66 -18t-39 -4q-52 0 -83 33.5t-31 87.5q0 30 10.5 66t29.5 70q12 -1 22 -4.5t18 -11.5q-13 -21 -22 -53t-9 -59q0 -37 19 -56.5t53 -19.5q14 0 32 4
t56 16q41 13 60.5 17t35.5 4q35 0 58.5 -19.5t42.5 -63.5q12 89 18.5 209.5t6.5 246.5q0 39 -17.5 61.5t-46.5 22.5q-27 0 -59.5 -18.5t-61.5 -49.5q-28 -30 -43.5 -63t-15.5 -63q0 -29 15.5 -44.5t42.5 -15.5q23 0 43.5 11.5t40.5 34.5q3 -4 4.5 -10.5t1.5 -17.5t-1.5 -19
t-4.5 -15q-18 -16 -41.5 -25t-49.5 -9q-48 0 -77.5 29t-29.5 77q0 38 19.5 79.5t53.5 78.5q36 38 77.5 60t76.5 22q51 0 85.5 -40.5t34.5 -102.5q0 -142 -6.5 -263.5t-20.5 -229.5z" />
    <glyph glyph-name="bn_ai" unicode="&#x990;" horiz-adv-x="637" 
d="M476 -9q-10 -4 -22 -6t-25 -2q-13 26 -21.5 41.5t-12.5 20.5q-12 16 -27 23t-34 7q-14 0 -32 -3.5t-58 -15.5q-44 -14 -66 -18t-39 -4q-52 0 -83 33.5t-31 87.5q0 30 10.5 66t29.5 70q12 -1 22 -4.5t18 -11.5q-13 -21 -22 -53t-9 -59q0 -37 19 -56.5t53 -19.5q14 0 32 4
t56 16q41 13 60.5 17t35.5 4q35 0 58.5 -19.5t42.5 -63.5q12 89 18.5 209.5t6.5 246.5q0 39 -17.5 61.5t-46.5 22.5q-27 0 -59.5 -18.5t-61.5 -49.5q-28 -30 -43.5 -63t-15.5 -63q0 -29 15.5 -44.5t42.5 -15.5q23 0 43.5 11.5t40.5 34.5q3 -4 4.5 -10.5t1.5 -17.5t-1.5 -19
t-4.5 -15q-18 -16 -41.5 -25t-49.5 -9q-48 0 -77.5 29t-29.5 77q0 38 19.5 79.5t53.5 78.5q36 38 77.5 60t76.5 22q51 0 85.5 -40.5t34.5 -102.5v-16.5v-16.5q32 23 50 57t18 71q0 30 -13 49.5t-42 31.5q-15 7 -36 12.5t-67 13.5q-55 10 -83.5 18.5t-47.5 19.5
q-28 17 -44 44t-24 70q10 7 22 12t21 6q12 -56 37 -81t85 -36l69 -14q83 -17 121 -53t38 -98q0 -52 -26.5 -99t-78.5 -88q-1 -106 -7.5 -203.5t-18.5 -192.5z" />
    <glyph glyph-name="bn_o" unicode="&#x993;" horiz-adv-x="645" 
d="M597 162q0 -79 -49 -129t-131 -50q-131 0 -229 137t-166 423q9 8 19 14t22 12q64 -270 152 -401t205 -131q62 0 96 35t34 100q0 31 -8 57t-23 47q-23 -28 -48 -42t-52 -14q-37 0 -62 25.5t-25 64.5t24.5 65.5t62.5 26.5q24 0 48.5 -12t41.5 -32q17 28 26 58t9 59
q0 53 -29 81.5t-83 28.5q-69 0 -114 -44t-45 -110q0 -12 1.5 -24t3.5 -21q-14 0 -32 8t-26 18q-1 96 54 155.5t144 59.5q77 0 125 -44.5t48 -117.5q0 -38 -13 -79.5t-35 -73.5q27 -36 40.5 -73.5t13.5 -76.5zM370 312q0 -19 13 -31t33 -12q19 0 36.5 12t35.5 38
q-14 19 -32 30t-37 11q-21 0 -35 -13.5t-14 -34.5z" />
    <glyph glyph-name="bn_au" unicode="&#x994;" horiz-adv-x="710" 
d="M597 162q0 -79 -49 -129t-131 -50q-131 0 -229 137t-166 423q9 8 19 14t22 12q64 -270 152 -401t205 -131q62 0 96 35t34 100q0 31 -8 57t-23 47q-23 -28 -48 -42t-52 -14q-37 0 -62 25.5t-25 64.5t24.5 65.5t62.5 26.5q24 0 48.5 -12t41.5 -32q17 28 26 58t9 59
q0 53 -29 81.5t-83 28.5q-69 0 -114 -44t-45 -110q0 -12 1.5 -24t3.5 -21q-14 0 -32 8t-26 18q-1 96 54 155.5t144 59.5q77 0 125 -44.5t48 -117.5q23 23 37 54t14 62q0 41 -29 63t-129 42q-63 12 -89.5 20.5t-43.5 19.5q-27 16 -42.5 44t-23.5 73q10 4 22 7t22 4
q11 -56 37 -79.5t94 -36.5l64 -13q78 -16 116 -53t38 -98q0 -51 -26 -100t-76 -94q-7 -21 -15.5 -38t-17.5 -30q27 -36 40.5 -73.5t13.5 -76.5zM370 312q0 -19 13 -31t33 -12q19 0 36.5 12t35.5 38q-14 19 -32 30t-37 11q-21 0 -35 -13.5t-14 -34.5z" />
    <glyph glyph-name="bn_ka" unicode="&#x995;" horiz-adv-x="596" 
d="M347 283q0 -104 4 -175t11 -115q-10 -5 -22.5 -7t-30.5 -2q-48 109 -110 173.5t-140 84.5q-12 12 -18.5 25t-8.5 32q41 50 119 106.5t160 95.5q2 26 3.5 39.5t2.5 25.5h-12.5h-12.5q-69 0 -140.5 -7.5t-151.5 -23.5q-2 6 -3.5 12.5t-1.5 12.5t1.5 11.5t3.5 9.5
q70 17 145.5 26t150.5 9q79 0 161.5 -9.5t138.5 -25.5q3 -4 4 -9t1 -10q0 -6 -1 -12t-4 -15q-54 11 -115.5 18.5t-121.5 10.5q-1 -12 -2.5 -25.5t-3.5 -39.5q102 -24 159 -76t57 -120q0 -47 -27 -91.5t-67 -65.5q-12 3 -23.5 15.5t-17.5 30.5q49 19 74 46.5t25 64.5
q0 50 -48.5 87t-134.5 54q-2 -36 -2.5 -75t-0.5 -86zM302 71q-2 24 -2.5 56.5t-0.5 75.5q0 70 2 126.5t6 109.5q-54 -26 -114.5 -70t-100.5 -86q67 -31 120 -84.5t90 -127.5z" />
    <glyph glyph-name="bn_kha" unicode="&#x996;" horiz-adv-x="526" 
d="M466 476q0 -168 -18 -285.5t-58 -208.5q-14 0 -27 3.5t-24 10.5q-42 112 -89 167.5t-113 72.5q-13 10 -21.5 24.5t-9.5 28.5l78 40q65 33 92.5 65t27.5 73q0 8 -1.5 16.5t-3.5 15.5q-29 -39 -68.5 -62.5t-75.5 -23.5q-49 0 -78 27t-29 75q0 17 3 31t9 25q11 5 26.5 7.5
t30.5 2.5q-8 -12 -12.5 -27t-4.5 -30q0 -31 13 -44.5t42 -13.5q33 0 68.5 23t60.5 61l37 -17q13 -18 19 -39.5t6 -47.5q0 -50 -37 -93.5t-105 -74.5l-19 -9q56 -27 100 -86.5t75 -149.5q31 69 46.5 167t15.5 225q0 8 -0.5 18t-0.5 27q-1 10 -1 14v6q0 23 6 38t19 23
t32.5 15.5t48.5 14.5q2 -3 3.5 -9t1.5 -13q0 -8 -1.5 -14.5t-3.5 -9.5q-15 -4 -26.5 -8t-20.5 -9q-7 -4 -10 -13t-3 -29z" />
    <glyph glyph-name="bn_ga" unicode="&#x997;" horiz-adv-x="457" 
d="M393 470q0 -147 -13 -262t-43 -224q-15 0 -28 2t-25 6q22 62 35.5 117.5t21.5 117.5l-1 -1q0 4 3 33t4 44q1 16 1.5 26t0.5 18v1q0 91 -48 150.5t-114 59.5q-47 0 -74.5 -25t-27.5 -69q0 -4 0.5 -8t1.5 -11q21 12 44.5 19t43.5 7q41 0 69.5 -28.5t28.5 -69.5
q0 -40 -29.5 -92t-92.5 -121q-14 6 -26.5 18t-21.5 25q67 62 98.5 105.5t31.5 71.5q0 21 -13 32.5t-37 11.5q-25 0 -55 -11.5t-57 -30.5l-27 30q-3 12 -4.5 25.5t-1.5 28.5q0 63 42 105t108 42q57 0 100 -39t67 -111v8.5t-1 12.5v9v6q0 19 6.5 32t20.5 22q12 8 31 15t45 13
q2 -3 3.5 -9t1.5 -13q0 -8 -1.5 -14.5t-3.5 -9.5q-15 -4 -26 -8t-18 -8q-11 -6 -15.5 -16.5t-4.5 -32.5z" />
    <glyph glyph-name="bn_gha" unicode="&#x998;" horiz-adv-x="475" 
d="M257 405q8 -11 12 -24.5t3 -28.5l-132 -103q66 -26 118.5 -71t90.5 -107q-3 28 -4.5 64.5t-1.5 85.5q0 95 5 176t15 158q-31 4 -59.5 5.5t-56.5 1.5h-24.5t-15.5 -1q-54 -25 -81.5 -55t-27.5 -64q0 -32 19.5 -52.5t49.5 -20.5q21 0 44.5 9.5t45.5 26.5zM392 285
q0 -102 6 -174t18 -117q-8 -5 -21 -7.5t-31 -2.5q-51 95 -116 150.5t-147 73.5q-14 12 -20.5 25t-7.5 30l92 69h-2q-53 3 -83.5 32.5t-30.5 78.5q0 33 13.5 59.5t43.5 51.5q-28 -3 -55 -8t-51 -11q-3 7 -4 13t-1 12t1.5 11.5t3.5 9.5q45 14 112 22.5t137 8.5q61 0 119 -8
t107 -23q2 -3 3 -8t1 -11q0 -7 -1 -14.5t-3 -12.5q-10 3 -23 5.5t-40 7.5q-11 -66 -15.5 -123t-4.5 -140z" />
    <glyph glyph-name="bn_nga" unicode="&#x999;" horiz-adv-x="565" 
d="M287 498q23 -8 44 -12t38 -4q34 0 53 14.5t19 41.5q0 22 -16 35.5t-42 13.5q-31 0 -56 -23t-40 -66zM533 191q0 -100 -49 -159t-134 -59q-114 0 -195 104.5t-145 351.5q7 4 16 8t28 10q58 -222 127.5 -320.5t168.5 -98.5q66 0 101.5 46t35.5 131q0 35 -4.5 67.5
t-13.5 60.5q-45 -50 -76 -69.5t-61 -20.5q-49 -2 -80.5 35t-31.5 96q0 24 2.5 47.5t6.5 44.5q-32 12 -64 28.5t-58 33.5q6 19 11 31t11 21q24 -18 53.5 -35t60.5 -30q20 53 55.5 81t83.5 28q44 0 73 -25.5t29 -64.5q0 -45 -33 -71.5t-89 -26.5q-18 0 -40.5 4t-47.5 11
q-4 -17 -6 -36.5t-2 -41.5q0 -45 12 -64t40 -19q23 0 56.5 25.5t80.5 78.5q7 -1 16 -5.5t17 -9.5q21 -41 33 -90t12 -98z" />
    <glyph glyph-name="bn_ca" unicode="&#x99a;" horiz-adv-x="426" 
d="M317 396q40 -18 56.5 -43.5t16.5 -66.5q0 -118 -62.5 -210.5t-144.5 -92.5q-56 0 -86 44t-30 128q0 58 10 157t30 240q-30 -3 -57.5 -7.5t-49.5 -9.5q-2 7 -3.5 13.5t-1.5 12.5t1.5 11t3.5 9q42 12 101 20t110 8t117 -8.5t98 -19.5q2 -3 2.5 -6.5t0.5 -12.5
q0 -8 -1 -15.5t-2 -11.5q-37 10 -97 17t-110 7q-10 0 -22.5 -0.5t-38.5 -1.5q19 -54 57.5 -93t101.5 -68zM114 130q0 -55 14.5 -80t46.5 -25q61 0 112.5 81.5t51.5 179.5q0 27 -11.5 43t-50.5 35q-43 21 -78 56.5t-53 78.5q-14 -98 -23 -203.5t-9 -165.5z" />
    <glyph glyph-name="bn_cha" unicode="&#x99b;" horiz-adv-x="480" 
d="M123 315q0 -16 8.5 -24.5t25.5 -8.5q40 0 72.5 42t32.5 95v11t-1 6q-47 11 -78.5 30.5t-51.5 49.5q-4 -46 -6 -99t-2 -102zM489 -100q-7 -9 -15.5 -18.5t-20.5 -19.5q-74 85 -154 146.5t-171 102.5l-15 70q39 -13 72 -19.5t60 -6.5q62 0 99.5 32.5t37.5 88.5q0 38 -18 74
t-50 63q-5 -73 -46.5 -122.5t-99.5 -49.5q-40 0 -67.5 23t-27.5 59q0 60 3.5 117t10.5 111q-23 -3 -45 -7t-42 -9q-2 7 -3.5 13.5t-1.5 12.5t1.5 11t3.5 9q41 13 113.5 22.5t135.5 9.5q64 0 132 -9.5t99 -22.5q2 -3 2.5 -6.5t0.5 -12.5q0 -8 -1 -15.5t-2 -11.5
q-34 11 -103 19.5t-131 8.5q-27 0 -55 -1.5t-55 -4.5q23 -31 59.5 -50.5t107.5 -35.5q58 -35 92.5 -90t34.5 -116q0 -73 -50 -115.5t-138 -47.5q62 -37 123.5 -87.5t123.5 -114.5z" />
    <glyph glyph-name="bn_ja" unicode="&#x99c;" horiz-adv-x="678" 
d="M626 2q-11 -5 -27.5 -8.5t-30.5 -3.5q-12 45 -18.5 97.5t-6.5 108.5q0 61 7.5 117.5t21.5 104.5q-16 -6 -34.5 -9t-37.5 -3q-64 0 -112 40.5t-78 117.5q-35 -45 -59.5 -102.5t-24.5 -97.5q0 -29 13.5 -44t38.5 -15q28 0 66.5 20.5t74.5 55.5q8 -4 17 -11.5t16 -15.5
q11 -36 16.5 -75t5.5 -74q0 -97 -44 -152.5t-121 -55.5q-101 0 -172.5 99.5t-127.5 333.5q7 5 16.5 10.5t24.5 11.5q51 -211 112 -306t147 -95q61 0 91.5 43.5t30.5 128.5q0 23 -2 48t-6 49q-37 -32 -70.5 -48t-62.5 -16q-45 0 -77.5 33t-32.5 83q0 40 21.5 94.5t53.5 100.5
q-66 -3 -134 -11.5t-121 -20.5q-2 7 -3.5 13.5t-1.5 12.5t1.5 11t3.5 9q66 17 160 27.5t181 10.5t179 -10.5t158 -27.5q2 -3 3 -8.5t1 -11.5q0 -7 -1 -14t-3 -12q-78 15 -164 24t-162 10q27 -62 59.5 -87.5t81.5 -25.5q26 0 51.5 6.5t48.5 19.5q11 -8 19.5 -21t12.5 -27
q-16 -45 -23.5 -95.5t-7.5 -105.5q0 -57 8 -115t24 -116z" />
    <glyph glyph-name="bn_jha" unicode="&#x99d;" horiz-adv-x="589" 
d="M294 74q-1 5 -1 12v21q0 77 7 164t19 170q-56 -26 -121.5 -71t-108.5 -88q67 -32 119 -84.5t86 -123.5zM343 167q0 -52 3.5 -96t10.5 -77q-9 -5 -22 -7.5t-31 -2.5q-46 106 -108 169.5t-142 86.5q-11 13 -16.5 26.5t-6.5 33.5q45 51 129.5 109t169.5 94q3 18 5.5 30
t4.5 22q-22 4 -48 5.5t-55 1.5q-57 0 -123 -7.5t-114 -19.5q-1 4 -2 11.5t-1 15.5q0 5 1 10t2 9q41 13 110 22t127 9q28 0 59.5 -2.5t59.5 -7.5q14 -2 21 -10t7 -21q0 -1 -0.5 -5t-3.5 -17q-15 -80 -23 -148.5t-12 -136.5q41 -26 75.5 -61.5t62.5 -80.5q-8 52 -12.5 116
t-4.5 130v15t1 30q1 32 1 49v31q0 21 7.5 34t24.5 22q21 11 42 18.5t47 13.5q2 -3 3.5 -9t1.5 -13q0 -8 -1.5 -14.5t-3.5 -9.5q-19 -5 -35 -11t-28 -13q-10 -6 -14 -13.5t-4 -21.5q-1 -17 -1 -37.5v-56.5q0 -105 13.5 -193.5t40.5 -157.5q-11 -7 -24.5 -10.5t-27.5 -2.5
q-35 68 -76 116.5t-89 80.5q-1 -8 -1 -18v-30z" />
    <glyph glyph-name="bn_nya" unicode="&#x99e;" horiz-adv-x="797" 
d="M498 260q30 -45 71.5 -71t81.5 -26q33 0 52 17t19 45q0 14 -4 28.5t-12 27.5q-17 -24 -38.5 -36.5t-43.5 -12.5q-34 0 -55.5 23t-21.5 59q0 33 22.5 55t57.5 22q20 0 39 -9t33 -24q9 16 13 31t4 31q0 23 -18 37t-48 14q-41 0 -79.5 -24t-68.5 -69q-1 -47 -2 -72t-2 -46z
M581 313q0 -16 10.5 -26.5t26.5 -10.5t31.5 12.5t31.5 39.5q-11 12 -25.5 19t-28.5 7q-20 0 -33 -11.5t-13 -29.5zM476 -9q-10 -4 -22 -6t-25 -2q-13 26 -21.5 41.5t-12.5 20.5q-12 16 -27 23t-34 7q-14 0 -32 -3.5t-58 -15.5q-44 -14 -66 -18t-39 -4q-52 0 -83 33.5
t-31 87.5q0 30 10.5 66t29.5 70q12 -1 22 -4.5t18 -11.5q-13 -21 -22 -53t-9 -59q0 -37 19 -56.5t53 -19.5q14 0 32 4t56 16q41 13 60.5 17t35.5 4q35 0 58.5 -19.5t42.5 -63.5q12 89 18.5 209.5t6.5 246.5q0 39 -17.5 61.5t-46.5 22.5q-27 0 -59.5 -18.5t-61.5 -49.5
q-28 -30 -43.5 -63t-15.5 -63q0 -29 15.5 -44.5t42.5 -15.5q23 0 43.5 11.5t40.5 34.5q3 -4 4.5 -10.5t1.5 -17.5t-1.5 -19t-4.5 -15q-18 -16 -41.5 -25t-49.5 -9q-48 0 -77.5 29t-29.5 77q0 38 19.5 79.5t53.5 78.5q36 38 77.5 60t76.5 22q51 0 85.5 -40.5t34.5 -102.5v-18
v-18q28 33 66 52.5t77 19.5q49 0 81 -29t32 -76q0 -26 -7.5 -52t-22.5 -48q18 -22 27 -45.5t9 -49.5q0 -48 -30 -77.5t-79 -29.5q-44 0 -87.5 25t-73.5 66q-3 -51 -7.5 -103t-11.5 -110z" />
    <glyph glyph-name="bn_tta" unicode="&#x99f;" horiz-adv-x="468" 
d="M324 371q48 0 77.5 -32.5t29.5 -87.5q0 -42 -18.5 -87.5t-51.5 -85.5q-36 -44 -78.5 -69.5t-80.5 -25.5q-50 0 -84.5 41t-34.5 102q0 116 5 222t15 206q-30 -4 -57 -8.5t-46 -10.5q-2 8 -3 12.5t-1 10.5t1 12t3 11q34 14 96 22.5t132 8.5q52 0 103 -5.5t100 -15.5
q-12 52 -38 78t-66 26q-18 0 -37.5 -2.5t-56.5 -9.5q-34 -7 -51.5 -9t-32.5 -2q-46 0 -80 19.5t-62 62.5q7 11 15 20t16 14q28 -39 54.5 -54.5t58.5 -15.5q12 0 27 2t48 8q40 8 60.5 10.5t37.5 2.5q58 0 95.5 -42.5t48.5 -117.5q2 -5 2.5 -10t0.5 -12t-0.5 -13t-2.5 -11
q-63 14 -121 20.5t-117 6.5q-14 0 -30 -0.5t-43 -1.5q-13 -94 -20 -214.5t-7 -236.5q0 -38 17.5 -61t46.5 -23q28 0 62.5 22.5t63.5 59.5q27 34 41.5 70.5t14.5 70.5t-15.5 53.5t-42.5 19.5q-22 0 -43.5 -13.5t-34.5 -34.5q-6 6 -9 15.5t-3 19.5q0 7 1 13t4 12q17 18 41 28
t50 10z" />
    <glyph glyph-name="bn_ttha" unicode="&#x9a0;" horiz-adv-x="440" 
d="M57 175q5 -67 39 -102t95 -35q76 0 122 60.5t46 157.5q0 71 -28 145t-88 161v0q12 -27 18 -53.5t6 -54.5q0 -93 -54.5 -164.5t-155.5 -114.5zM283 560q62 -89 92 -169t30 -155q0 -109 -58 -180t-150 -71q-83 0 -128.5 54t-45.5 149q0 5 0.5 11.5t1.5 22.5q94 32 151.5 97
t57.5 148q0 25 -5.5 49.5t-15.5 45.5q-54 -1 -107 -7.5t-106 -19.5q-2 7 -3.5 13.5t-1.5 12.5t1.5 11t3.5 9q47 14 96 21.5t100 9.5q-22 35 -33 70.5t-11 69.5q0 37 13.5 74t38.5 69q12 -6 20.5 -12.5t15.5 -14.5q-19 -22 -32 -57t-13 -67q0 -31 11 -62.5t35 -69.5
q53 -1 103.5 -9t95.5 -22q2 -4 3.5 -9t1.5 -11t-1.5 -12.5t-3.5 -13.5q-36 9 -75.5 15.5t-81.5 9.5z" />
    <glyph glyph-name="bn_dda" unicode="&#x9a1;" horiz-adv-x="556" 
d="M535 203q0 -101 -49 -160.5t-134 -59.5q-115 0 -196.5 103t-145.5 344q9 7 19.5 13t22.5 12q59 -220 129.5 -318.5t170.5 -98.5q66 0 101.5 46.5t35.5 132.5q0 35 -5 68.5t-15 64.5q-44 -54 -76.5 -75.5t-63.5 -21.5q-45 0 -76 36t-31 86q0 30 8 73t29 118
q-71 -1 -135 -9t-125 -22q-2 5 -3 11.5t-1 13.5q0 6 1 11.5t3 9.5q64 18 134 26.5t147 8.5q75 0 143.5 -8.5t132.5 -26.5q2 -4 3.5 -10t1.5 -11q0 -6 -1.5 -13t-3.5 -12q-58 14 -119.5 22t-127.5 9q-30 -109 -36 -141.5t-6 -56.5q0 -32 14.5 -50t41.5 -18q22 0 52.5 25.5
t81.5 88.5q7 -1 16 -5.5t17 -9.5q21 -43 33 -94t12 -102z" />
    <glyph glyph-name="bn_ddha" unicode="&#x9a2;" horiz-adv-x="468" 
d="M324 371q48 0 77.5 -32.5t29.5 -87.5q0 -42 -18.5 -87.5t-51.5 -85.5q-36 -44 -78.5 -69.5t-80.5 -25.5q-50 0 -84.5 41t-34.5 102q0 116 5 222t15 206q-30 -4 -57 -8.5t-46 -10.5q-2 8 -3 12.5t-1 10.5t1 12t3 11q34 14 96 22.5t132 8.5q66 0 127 -8t113 -23
q2 -5 2.5 -10t0.5 -12t-0.5 -13t-2.5 -11q-63 14 -121 20.5t-117 6.5q-14 0 -30 -0.5t-43 -1.5q-13 -94 -20 -214.5t-7 -236.5q0 -38 17.5 -61t46.5 -23q28 0 62.5 22.5t63.5 59.5q27 34 41.5 70.5t14.5 70.5t-15.5 53.5t-42.5 19.5q-22 0 -43.5 -13.5t-34.5 -34.5
q-6 6 -9 15.5t-3 19.5q0 7 1 13t4 12q17 18 41 28t50 10z" />
    <glyph glyph-name="bn_nna" unicode="&#x9a3;" horiz-adv-x="441" 
d="M376 482q-5 -228 -18 -312t-49 -186q-14 0 -27 3.5t-26 11.5q29 62 44 114t23 113v0q2 19 3.5 35t2.5 29q1 16 1.5 31t1.5 30q-1 91 -45 148.5t-106 57.5q-42 0 -69 -32.5t-27 -83.5q0 -39 19.5 -63t48.5 -24q23 0 37 14.5t14 38.5q0 14 -6.5 31t-16.5 32q14 0 31 -4.5
t27 -10.5q6 -11 9 -24.5t3 -27.5q0 -42 -28 -69.5t-70 -27.5q-51 0 -85 39.5t-34 100.5q0 71 40.5 117t102.5 46q56 0 97 -36t64 -104q-1 6 -1 12.5v15.5q0 22 5 33.5t18 20.5q12 8 33 16t48 14q2 -3 3.5 -9t1.5 -13q0 -8 -1.5 -14.5t-3.5 -9.5q-16 -4 -28 -8.5t-20 -8.5
q-10 -6 -13.5 -13t-3.5 -23z" />
    <glyph glyph-name="bn_ta" unicode="&#x9a4;" horiz-adv-x="565" 
d="M565 535q-70 14 -140.5 20.5t-142.5 6.5q-75 0 -141.5 -6t-141.5 -21q-2 4 -3.5 10t-1.5 13t1.5 13t3.5 10q67 16 135.5 23.5t147.5 7.5q76 0 147.5 -8t135.5 -23q2 -4 3.5 -10t1.5 -13q0 -6 -1.5 -12t-3.5 -11zM355 479q77 0 132.5 -80.5t55.5 -195.5
q0 -103 -47.5 -161.5t-130.5 -58.5q-111 0 -195.5 108t-148.5 339q9 7 19.5 13t22.5 12q56 -207 132 -311.5t170 -104.5q64 0 97 45t33 132q0 97 -38 159t-95 62q-30 0 -46 -21t-16 -59q0 -35 14.5 -68.5t39.5 -54.5q-9 -6 -19.5 -9t-21.5 -3q-7 0 -11.5 0.5t-7.5 2.5
q-22 25 -35 61t-13 71q0 54 30 88t79 34z" />
    <glyph glyph-name="bn_tha" unicode="&#x9a5;" horiz-adv-x="507" 
d="M440 467q0 -143 -19.5 -269.5t-54.5 -215.5q-14 0 -28 4.5t-24 12.5q-42 106 -90 159.5t-116 69.5q-12 9 -19 24t-7 30l77 46q63 38 89.5 73t26.5 79q0 38 -27.5 62t-70.5 24q-39 0 -61.5 -22t-22.5 -59q0 -27 10 -47t29 -30q-7 -8 -20.5 -15.5t-32.5 -12.5
q-21 18 -33 44.5t-12 56.5q0 56 40 95t101 39q63 0 103.5 -42.5t40.5 -107.5q0 -55 -34.5 -101.5t-104.5 -86.5l-25 -14q58 -27 104 -85.5t77 -145.5q31 69 46.5 167t15.5 226q0 8 -0.5 18.5t-0.5 29.5q-1 11 -1 15v6q0 19 7.5 33.5t22.5 23.5q13 8 32 15t49 15q2 -3 3.5 -9
t1.5 -13q0 -8 -1.5 -14.5t-3.5 -9.5q-16 -4 -28 -8.5t-20 -8.5q-11 -6 -15 -15.5t-4 -35.5z" />
    <glyph glyph-name="bn_da" unicode="&#x9a6;" horiz-adv-x="469" 
d="M381 209q0 -50 6.5 -102t18.5 -105q-13 -6 -25 -10.5t-25 -7.5q-11 45 -17 95.5t-6 103.5q0 55 6.5 110.5t18.5 103.5q-75 -52 -146 -127.5t-114 -149.5q-14 2 -28.5 9.5t-22.5 15.5q29 99 47 206.5t21 203.5q-33 -4 -62 -9.5t-53 -10.5q-2 4 -3.5 11.5t-1.5 14.5
q0 6 1.5 11t3.5 9q46 14 113.5 22.5t131.5 8.5q62 0 126 -9t98 -22q1 -4 2 -9t1 -10q0 -8 -1 -15.5t-2 -11.5q-39 12 -103 19.5t-126 7.5q-26 0 -47.5 -1t-41.5 -3v-12.5v-13.5q0 -75 -8.5 -154.5t-24.5 -144.5q54 72 118 131t133 101q14 -7 24.5 -17.5t19.5 -25.5
q-16 -49 -24 -102.5t-8 -110.5z" />
    <glyph glyph-name="bn_dha" unicode="&#x9a7;" horiz-adv-x="467" 
d="M376 291q0 -95 5 -171.5t14 -123.5q-9 -6 -23 -9t-31 -3q-51 110 -117 174t-149 84q-12 12 -18.5 25.5t-8.5 32.5q17 19 41.5 38.5t53.5 39.5q-49 6 -80 39.5t-31 80.5q0 48 32 80.5t82 32.5q35 0 64.5 -21.5t40.5 -54.5q-6 -11 -19.5 -22t-25.5 -14q-2 28 -20.5 45.5
t-44.5 17.5q-27 0 -42.5 -19t-15.5 -53q0 -35 22.5 -57t55.5 -22q16 0 35 5.5t44 17.5q25 13 51.5 25.5t53.5 24.5q0 1 0.5 3.5t0.5 3.5q2 19 9 31t20 22q16 12 39 21t53 16q2 -3 3.5 -9t1.5 -13q0 -8 -1.5 -14.5t-3.5 -9.5q-20 -5 -35 -11t-26 -13t-15.5 -14t-6.5 -28
q-5 -64 -6.5 -102t-1.5 -76zM332 66q-2 24 -2.5 57t-0.5 76q0 55 2.5 110.5t7.5 112.5q-61 -25 -125 -63t-104 -75q72 -32 128 -86.5t94 -131.5z" />
    <glyph glyph-name="bn_na" unicode="&#x9a8;" horiz-adv-x="471" 
d="M391 -10q-10 -3 -24.5 -4.5t-33.5 -1.5q-2 37 -3.5 86t-1.5 107v6v6v0q1 61 -58 118t-124 57q-35 0 -55 -19t-20 -53q0 -37 24.5 -58t68.5 -21q17 0 32 3.5t23 8.5q0 -12 -1.5 -28t-4.5 -28q-4 -4 -15.5 -6.5t-26.5 -2.5q-63 0 -102.5 37.5t-39.5 97.5q0 54 32.5 87.5
t83.5 33.5q53 0 103.5 -36.5t80.5 -97.5q2 71 8.5 134.5t19.5 139.5q-25 3 -52 4.5t-54 1.5q-61 0 -128.5 -7.5t-122.5 -19.5q-3 8 -4 14.5t-1 11.5q0 6 1.5 11t3.5 9q65 15 127.5 23t120.5 8q55 0 108 -7.5t115 -23.5q2 -5 2.5 -9t0.5 -11q0 -8 -1 -14.5t-2 -11.5l-28 7
t-44 9q-12 -64 -17 -133t-5 -161q0 -83 4 -157.5t10 -109.5z" />
    <glyph glyph-name="bn_pa" unicode="&#x9aa;" horiz-adv-x="520" 
d="M457 -10q-10 -3 -24.5 -4.5t-33.5 -1.5q-3 39 -4 87.5t-1 112.5q0 59 0.5 91t2.5 60q0 32 -4.5 59t-13.5 49q-42 -52 -103 -111.5t-117 -102.5q-13 9 -23 19.5t-17 22.5q3 2 6.5 4.5l10.5 7.5q9 7 14.5 17.5t5.5 21.5q0 27 -32.5 50t-96.5 41q-8 16 -13 31t-8 31
q41 64 98 101t119 37q67 0 115 -43t72 -124q1 10 2.5 22t4.5 31q5 25 11 36t17 19q11 7 30 14t44 13q2 -3 3.5 -9t1.5 -13q0 -8 -1.5 -14.5t-3.5 -9.5q-13 -3 -24.5 -7.5t-17.5 -7.5q-11 -6 -16 -17.5t-8 -36.5q-5 -41 -7.5 -95t-2.5 -116q0 -81 4 -155.5t10 -109.5zM63 457
q60 -25 92.5 -54.5t32.5 -58.5q0 -6 -1.5 -12.5t-3.5 -12.5q51 42 98 88t75 83q-23 34 -56 52.5t-71 18.5q-43 0 -83.5 -25t-82.5 -79z" />
    <glyph glyph-name="bn_pha" unicode="&#x9ab;" horiz-adv-x="640" 
d="M394 291q0 -105 7.5 -178t21.5 -119q-9 -5 -22 -7.5t-32 -2.5q-55 99 -123.5 155.5t-153.5 74.5q-15 12 -23 25t-10 31l142 124q-8 7 -20 16t-38 27q-58 40 -80.5 62t-30.5 43q-3 -1 -11 -2.5t-22 -4.5q-4 12 -4.5 25.5t4.5 20.5q65 17 155 27t177 10q90 0 173 -10
t136 -27q4 -7 3.5 -20.5t-3.5 -25.5q-60 15 -142 24t-170 9q-54 0 -112.5 -4t-118.5 -12q3 -15 16.5 -32t40.5 -40q12 -10 37 -30t37 -30l40 -33l-144 -129q71 -26 128.5 -72.5t98.5 -111.5q-3 35 -4.5 66.5t-1.5 64.5q0 84 3 153.5t10 138.5q117 -16 185 -69t68 -125
q0 -45 -27 -86t-67 -61q-12 3 -23.5 15.5t-17.5 30.5q49 17 74 42.5t25 58.5q0 47 -47.5 81.5t-129.5 49.5q-2 -30 -3 -64t-1 -79z" />
    <glyph glyph-name="bn_ba" unicode="&#x9ac;" horiz-adv-x="457" 
d="M364 291q0 -97 7 -172.5t20 -122.5q-9 -6 -23 -9t-31 -3q-52 103 -120 163.5t-154 79.5q-12 12 -18.5 25.5t-8.5 32.5q44 54 128.5 116t171.5 103q2 18 3.5 29t3.5 21q-30 4 -56 5.5t-48 1.5q-55 0 -120 -7t-119 -19q-3 5 -4 11t-1 14q0 6 1.5 11.5t3.5 9.5
q48 13 116 21.5t127 8.5q51 0 109.5 -8.5t104.5 -21.5q2 -3 3 -8.5t1 -11.5q0 -7 -1 -13.5t-3 -12.5q-17 4 -35.5 7.5t-36.5 6.5q-12 -65 -16.5 -121.5t-4.5 -136.5zM322 74q-3 26 -4 57t-1 68q0 63 2.5 122.5t8.5 119.5q-55 -27 -121.5 -75t-110.5 -95q72 -29 128.5 -78.5
t97.5 -118.5z" />
    <glyph glyph-name="bn_bha" unicode="&#x9ad;" horiz-adv-x="595" 
d="M595 535q-74 14 -146.5 20.5t-151.5 6.5t-151.5 -6.5t-146.5 -20.5q-2 4 -3 10.5t-1 12.5t1 12.5t3 10.5q66 16 140 23.5t158 7.5q83 0 157 -7.5t141 -23.5q3 -3 4 -8.5t1 -14.5q0 -8 -1.5 -13.5t-3.5 -9.5zM571 206q0 -103 -53.5 -163t-144.5 -60q-118 0 -204.5 107.5
t-148.5 339.5q9 7 19.5 13t22.5 12q59 -216 133.5 -316.5t177.5 -100.5q73 0 112.5 47t39.5 136q0 31 -5 63.5t-15 62.5q-53 -46 -91 -64.5t-75 -18.5q-54 0 -91 32t-37 80q0 41 28 73.5t74 48.5q12 -6 21.5 -18.5t13.5 -27.5q-45 -12 -68.5 -33.5t-23.5 -50.5
q0 -26 18.5 -41t49.5 -15q36 0 75 21t102 76q9 -6 18 -13t15 -13q17 -39 27 -86t10 -91z" />
    <glyph glyph-name="bn_ma" unicode="&#x9ae;" horiz-adv-x="493" 
d="M176 400q57 -44 75.5 -75t18.5 -69v-11.5t-1 -6.5q26 -29 47.5 -61.5t38.5 -68.5q-2 21 -3 49.5t-1 69.5q0 88 5 171.5t15 156.5q-32 4 -59.5 5.5t-52.5 1.5q-32 0 -67.5 -2t-71.5 -6q-8 -12 -12.5 -26.5t-4.5 -28.5q0 -23 13.5 -44t59.5 -55zM431 1q-8 -8 -21 -12.5
t-30 -4.5q-23 62 -54 112t-73 93q-12 -35 -38.5 -55t-60.5 -20q-44 0 -73.5 30t-29.5 76q0 42 26 68t66 26q20 0 38.5 -7t32.5 -21q0 25 -16 46.5t-67 54.5q-52 33 -68 55t-16 48q0 13 3.5 27.5t10.5 28.5q-14 -2 -29 -4.5t-32 -6.5q-4 12 -4.5 25.5t4.5 20.5
q64 15 130.5 23t129.5 8t121 -8t112 -23q4 -7 3.5 -20.5t-3.5 -25.5q-19 4 -37 7.5t-36 6.5q-11 -65 -15.5 -121.5t-4.5 -134.5q0 -105 7.5 -176.5t23.5 -115.5zM91 215q0 -23 15 -37.5t39 -14.5q26 0 42.5 18.5t21.5 53.5q-14 17 -32 26.5t-35 9.5q-22 0 -36.5 -16
t-14.5 -40z" />
    <glyph glyph-name="bn_ya" unicode="&#x9af;" horiz-adv-x="490" 
d="M228 420l40 -33l-141 -133q71 -26 127.5 -72.5t96.5 -111.5q-3 26 -4.5 59t-1.5 76q0 108 4.5 189.5t15.5 161.5q-25 3 -52 4.5t-55 1.5q-39 0 -80 -2.5t-81 -7.5q3 -15 16.5 -32t40.5 -40q11 -10 36.5 -30t37.5 -30zM394 291q0 -102 6.5 -175.5t19.5 -119.5
q-9 -6 -23 -9t-31 -3q-53 97 -119.5 152.5t-150.5 73.5q-17 12 -25 25t-10 30l141 129q-8 7 -20 16t-39 27q-58 40 -80.5 62t-30.5 43q-4 -1 -8.5 -1.5t-12.5 -2.5q-5 -2 -7.5 -2.5t-4.5 -0.5q-4 12 -4.5 25.5t4.5 20.5q51 14 121.5 22.5t140.5 8.5q56 0 116.5 -8.5
t112.5 -22.5q4 -7 3.5 -20.5t-3.5 -25.5q-15 3 -33 6.5t-43 8.5q-11 -66 -15.5 -123t-4.5 -136z" />
    <glyph glyph-name="bn_ra" unicode="&#x9b0;" horiz-adv-x="456" 
d="M364 291q0 -97 7 -172.5t20 -122.5q-9 -6 -23 -9t-31 -3q-52 103 -120 163.5t-154 79.5q-12 12 -18.5 25.5t-8.5 32.5q44 54 128.5 116t171.5 103q2 18 3.5 29t3.5 21q-30 4 -56 5.5t-48 1.5q-55 0 -120 -7t-119 -19q-3 5 -4 11t-1 14q0 6 1.5 11.5t3.5 9.5
q48 13 116 21.5t127 8.5q51 0 109.5 -8.5t104.5 -21.5q2 -3 3 -8.5t1 -11.5q0 -7 -1 -13.5t-3 -12.5q-17 4 -35.5 7.5t-36.5 6.5q-12 -65 -16.5 -121.5t-4.5 -136.5zM322 74q-3 26 -4 57t-1 68q0 63 2.5 122.5t8.5 119.5q-55 -27 -121.5 -75t-110.5 -95q72 -29 128.5 -78.5
t97.5 -118.5zM130 26q0 15 10.5 25.5t25.5 10.5q18 0 29.5 -12.5t11.5 -31.5q0 -15 -10 -25t-26 -10q-18 0 -29.5 12.5t-11.5 30.5z" />
    <glyph glyph-name="bn_la" unicode="&#x9b2;" horiz-adv-x="545" 
d="M474 -7q-10 -4 -25 -6.5t-33 -2.5q-5 35 -7 88t-2 125q0 24 0.5 51t1.5 71q-1 29 -20 47t-47 18q-22 0 -35.5 -12t-13.5 -31q0 -6 1.5 -10.5t5.5 -12.5l13 -22q-9 -7 -21.5 -13t-27.5 -10l-18 32q-21 36 -50 56t-60 20q-33 0 -52 -22t-19 -60q0 -46 31 -74t81 -28
q8 0 18 1l20 2q0 -14 -5 -31t-12 -29q-72 -2 -123.5 47t-51.5 122q0 56 33 91.5t84 35.5q32 0 61.5 -15.5t56.5 -46.5q7 29 26.5 45.5t46.5 16.5q25 0 46.5 -14t34.5 -37q2 42 5.5 83.5t9.5 85.5q-39 5 -78 7.5t-80 2.5q-63 0 -127 -7t-142 -22q-3 8 -4 14.5t-1 11.5
q0 6 1.5 11t3.5 9q69 17 135 25t134 8q71 0 143.5 -8.5t132.5 -24.5q2 -4 2.5 -8.5t0.5 -10.5q0 -9 -1 -16t-2 -11q-11 2 -23 4l-54 9q-6 -62 -9 -132t-3 -146q0 -97 4.5 -165.5t13.5 -111.5z" />
    <glyph glyph-name="bn_sha" unicode="&#x9b6;" horiz-adv-x="510" 
d="M442 482q-3 -209 -13 -300.5t-33 -197.5q-19 0 -35 2.5t-26 6.5q31 93 43.5 174.5t14.5 193.5q-3 85 -35.5 139.5t-76.5 54.5q-15 0 -28.5 -8t-23.5 -23q42 -13 70 -54t28 -91q0 -40 -18.5 -63.5t-51.5 -23.5q-25 0 -44 14t-31 41q-13 -29 -32.5 -43.5t-44.5 -14.5
q-32 0 -50.5 20.5t-18.5 58.5q0 53 31.5 97t82.5 57q-10 14 -25 20.5t-35 6.5q-15 0 -44 -4.5t-46 -9.5q-2 6 -3.5 12.5t-1.5 12.5t1.5 11.5t3.5 9.5q23 6 49.5 10.5t42.5 4.5q34 0 57 -19t35 -55q13 41 38 64t57 23q42 0 73.5 -38.5t48.5 -109.5v46q0 12 7.5 23.5
t20.5 20.5q12 8 31.5 15t49.5 15q2 -3 3.5 -9t1.5 -13q0 -8 -1.5 -14.5t-3.5 -9.5q-16 -4 -28 -8.5t-20 -8.5q-12 -7 -16 -14t-4 -22zM207 434q0 -43 14.5 -71t38.5 -28q15 0 22 11t7 35q0 39 -20.5 69.5t-52.5 41.5q-4 -13 -6.5 -27.5t-2.5 -30.5zM78 371q0 -20 7.5 -30
t23.5 -10q25 0 40.5 31t15.5 79q0 12 -1.5 24.5t-3.5 23.5q-34 -7 -58 -42.5t-24 -75.5z" />
    <glyph glyph-name="bn_ssa" unicode="&#x9b7;" horiz-adv-x="482" 
d="M92 551q6 -30 51 -66t127 -76l74 -36q2 38 5.5 79t10.5 104q-25 3 -53 4.5t-58 1.5q-42 0 -81.5 -3t-75.5 -8zM389 291q0 -108 6 -180t18 -117q-9 -5 -21.5 -7.5t-30.5 -2.5q-51 97 -116 153.5t-149 75.5q-16 11 -24.5 24.5t-11.5 30.5l130 137l-6 3q-63 31 -103.5 66
t-51.5 67q-12 -2 -18 -3.5t-11 -2.5q-4 12 -4.5 25.5t4.5 20.5q54 15 119 23t133 8q64 0 127 -8.5t103 -22.5q4 -7 3.5 -20.5t-3.5 -25.5q-24 6 -40.5 9.5t-32.5 5.5q-11 -66 -15.5 -123t-4.5 -136zM345 73q-3 28 -4 60.5t-1 71.5q0 25 0.5 52t1.5 73l-103 51l-114 -123
q70 -26 125.5 -72.5t94.5 -112.5z" />
    <glyph glyph-name="bn_sa" unicode="&#x9b8;" horiz-adv-x="505" 
d="M223 340q15 16 31 24t32 8q18 0 33.5 -9t28.5 -27q1 56 5 110t10 112q-29 2 -55.5 3.5t-49.5 1.5q-37 0 -77.5 -2.5t-79.5 -7.5q1 -14 11 -31.5t43 -55.5q41 -48 54.5 -74t13.5 -49v-1v-2zM412 -6q-10 -3 -24 -4.5t-35 -1.5q-4 48 -5.5 99t-1.5 118v31.5v31.5v-1
q0 24 -14 39t-36 15q-19 0 -36.5 -17t-49.5 -74q-41 -74 -69 -97.5t-60 -23.5q-13 0 -25 3.5t-23 10.5q-5 14 -7 30t-1 35q10 -11 26 -17t34 -6q15 0 30.5 15t47.5 69q9 19 13.5 40t4.5 43q0 33 -16.5 61.5t-67.5 72.5q-35 29 -47.5 44.5t-18.5 31.5q-4 -1 -8.5 -2t-12.5 -3
l-6 -1.5t-4 -0.5q-2 7 -3.5 13.5t-1.5 12.5t1.5 11t3.5 9q42 14 115.5 23t142.5 9q71 0 145 -9.5t105 -22.5q2 -3 2.5 -6.5t0.5 -12.5q0 -8 -1 -15.5t-2 -11.5q-14 5 -38.5 9.5t-57.5 8.5q-10 -65 -13.5 -122.5t-3.5 -139.5q0 -70 5 -156t12 -141z" />
    <glyph glyph-name="bn_ha" unicode="&#x9b9;" horiz-adv-x="442" 
d="M442 535q-41 11 -103 18.5t-115 7.5q-50 0 -111.5 -7.5t-112.5 -18.5q-3 6 -4.5 12.5t-1.5 12.5q0 7 1.5 12t4.5 9q45 13 108.5 21.5t116.5 8.5q55 0 118 -9t99 -21q2 -3 2.5 -7t0.5 -13q0 -7 -1 -14t-2 -12zM464 -77q-6 -9 -13.5 -19t-18.5 -22q-88 98 -180 160t-198 95
l-20 70q48 -18 89 -27t76 -9q61 0 95 29t34 81q0 66 -47.5 121t-105.5 55q-28 0 -44 -13.5t-16 -36.5q0 -20 13 -41.5t42 -48.5q-11 -5 -27.5 -7.5t-29.5 -1.5q-22 26 -32.5 50.5t-10.5 49.5q0 41 27.5 65.5t73.5 24.5q80 0 142.5 -70t62.5 -158q0 -70 -45.5 -109
t-126.5 -39q68 -37 133.5 -87t126.5 -112z" />
    <glyph glyph-name="bn_nukta" unicode="&#x9bc;" horiz-adv-x="0" 
d="M-45 -23q0 17 12.5 29t29.5 12q20 0 33.5 -15t13.5 -36q0 -18 -12 -29t-30 -11q-20 0 -33.5 14.5t-13.5 35.5z" />
    <glyph glyph-name="bn_avagraha" unicode="&#x9bd;" horiz-adv-x="431" 
d="M104 460q0 -28 19.5 -45t51.5 -17q29 0 51 15t39 47q-22 24 -48.5 37t-53.5 13q-28 0 -43.5 -13t-15.5 -37zM453 -24q-6 -9 -13.5 -19t-18.5 -22q-88 98 -180 160t-198 95l-20 70q47 -18 88.5 -27t75.5 -9q62 0 96 29t34 81q0 23 -6.5 46.5t-18.5 43.5
q-19 -33 -47.5 -50.5t-65.5 -17.5q-52 0 -86 29.5t-34 76.5q0 41 27 65t73 24q32 0 64 -13t61 -38q8 26 14 53t10 65q11 0 20.5 -2.5t17.5 -7.5q-5 -42 -12.5 -75.5t-19.5 -65.5q24 -31 37.5 -69t13.5 -75q0 -70 -45.5 -109t-126.5 -39q68 -37 133.5 -87t126.5 -112z" />
    <glyph glyph-name="bn_aakaar" unicode="&#x9be;" 
d="M148 493q-1 -130 -6 -267.5t-15 -276.5q-17 0 -37 2.5t-29 6.5q19 106 28.5 227t10.5 273q-1 26 -25.5 45t-74.5 32q-3 10 -3 24t3 22q37 -9 67.5 -22.5t50.5 -30.5q14 16 41.5 29.5t64.5 23.5q3 -7 3 -21t-3 -25q-27 -8 -46 -18.5t-30 -23.5z" />
    <glyph glyph-name="bn_ikaar" unicode="&#x9bf;" 
d="M183 -41q-10 -4 -29.5 -6.5t-36.5 -2.5q-9 137 -13.5 265.5t-5.5 253.5q-4 22 -28.5 38.5t-69.5 27.5q-3 10 -3 24t3 22q29 -7 51.5 -16t39.5 -19q-24 39 -36 75t-12 70q0 69 42.5 106.5t120.5 37.5t182.5 -31.5t235.5 -95.5q-3 -11 -8.5 -21.5t-13.5 -20.5
q-116 61 -207.5 89t-173.5 28q-64 0 -93.5 -25.5t-29.5 -82.5q0 -29 7 -58.5t28 -75.5q16 12 39.5 22.5t51.5 17.5q3 -7 3 -21t-3 -25q-29 -8 -48.5 -19.5t-29.5 -25.5q-1 -166 8 -293.5t29 -237.5z" />
    <glyph glyph-name="bn_iikaar" unicode="&#x9c0;" 
d="M148 493q1 -81 -3.5 -171.5t-32.5 -372.5q-17 0 -35 4t-28 10q27 126 39 243.5t12 248.5v0q0 28 -24.5 47.5t-75.5 32.5q-3 10 -3 24t3 22q27 -7 51 -16t43 -20q-3 133 -81 200t-232 67q-73 0 -110.5 -14.5t-37.5 -43.5q0 -21 22 -33t62 -12q18 0 36 2.5t49 10.5
q24 7 36.5 9t23.5 2q22 0 41.5 -6.5t35.5 -19.5q-1 -13 -6 -24.5t-13 -19.5q-12 13 -27 20t-32 7q-9 0 -20 -2t-33 -10q-32 -10 -52.5 -13.5t-40.5 -3.5q-57 0 -92 26t-35 68q0 51 50.5 80t140.5 29q155 0 253.5 -84.5t114.5 -229.5q14 9 33.5 16.5t43.5 14.5q3 -7 3 -21
t-3 -25q-27 -8 -46 -18.5t-30 -23.5z" />
    <glyph glyph-name="bn_ukaar" unicode="&#x9c1;" horiz-adv-x="0" 
d="M158 -282l-138 105q-21 -38 -52.5 -58.5t-71.5 -20.5q-46 0 -74 25.5t-28 68.5q0 46 27 73.5t70 27.5q27 0 53.5 -12t51.5 -37l1.5 10.5t0.5 6.5q0 22 -6 46t-16 41h43q10 -22 16 -46t6 -46q0 -9 -1.5 -19t-4.5 -19l151 -107q-5 -12 -12 -22t-16 -17zM-160 -160
q0 -22 15.5 -35.5t40.5 -13.5q26 0 48 14.5t37 41.5q-19 21 -40.5 32t-44.5 11q-25 0 -40.5 -13.5t-15.5 -36.5z" />
    <glyph glyph-name="bn_uukaar" unicode="&#x9c2;" horiz-adv-x="0" 
d="M166 -282l-121 92q-25 -25 -53.5 -37.5t-59.5 -12.5q-47 0 -74.5 24.5t-27.5 67.5q0 50 36.5 89.5t109.5 66.5l35 -8l4 -28l-16 -5q-55 -16 -89 -48.5t-34 -67.5q0 -21 14 -33.5t37 -12.5q24 0 49.5 15t59.5 49l158 -112q-5 -12 -12 -22t-16 -17z" />
    <glyph glyph-name="bn_rikaar" unicode="&#x9c3;" horiz-adv-x="0" 
d="M23 -282l-174 134v15l127 124v17l35 -8l19 -24l-122 -119l143 -100q-5 -12 -12 -22t-16 -17z" />
    <glyph glyph-name="bn_rrikaar" unicode="&#x9c4;" horiz-adv-x="0" 
d="M-126 -241l115 -81q-5 -12 -11.5 -21.5t-14.5 -15.5l-145 112v15l61 61l-30 23v15l127 124v17l35 -8l19 -24l-122 -119l143 -100q-5 -12 -12 -22t-16 -17l-106 82z" />
    <glyph glyph-name="bn_ekaar" unicode="&#x9c7;" horiz-adv-x="244" 
d="M285 -1q-16 -29 -40 -45.5t-49 -16.5q-57 0 -91.5 80t-34.5 212q0 77 10 146.5t27 111.5q-15 13 -41.5 25t-65.5 23q-2 6 -2.5 12t-0.5 12q0 7 1 12.5t2 9.5q42 -9 78 -24t59 -32q13 19 39 32.5t68 23.5q1 -4 2 -9.5t1 -12.5q0 -6 -1 -12.5t-2 -11.5q-66 -16 -92 -81
t-26 -216q0 -125 15.5 -191t44.5 -66q13 0 27.5 15.5t37.5 55.5q14 -8 24 -23.5t10 -29.5z" />
    <glyph glyph-name="bn_aikaar" unicode="&#x9c8;" horiz-adv-x="244" 
d="M285 -1q-16 -29 -40 -45.5t-49 -16.5q-57 0 -91.5 80t-34.5 212q0 77 10 146.5t27 111.5q-15 13 -41.5 25t-65.5 23q-2 6 -2.5 12t-0.5 12q0 7 1 12.5t2 9.5q42 -9 78 -24t59 -32q10 14 27.5 25.5t44.5 20.5q-7 57 -24.5 81.5t-47.5 24.5q-10 0 -21 -1.5t-32 -5.5
q-23 -5 -35 -6.5t-23 -1.5q-36 0 -63 20t-54 68q6 7 17 13.5t21 10.5q24 -40 42 -53.5t40 -13.5q8 0 18.5 1.5t32.5 6.5q23 5 34.5 6.5t20.5 1.5q46 0 74 -37t35 -105q1 -4 2 -9.5t1 -12.5q0 -6 -1 -12.5t-2 -11.5q-66 -16 -92 -81t-26 -216q0 -125 15.5 -191t44.5 -66
q13 0 27.5 15.5t37.5 55.5q14 -8 24 -23.5t10 -29.5z" />
    <glyph glyph-name="bn_okaar" unicode="&#x9cb;" horiz-adv-x="1111" 
d="M572 585q19 0 29.5 -11t10.5 -30t-10.5 -29.5t-29.5 -10.5t-29 10.5t-10 29.5q0 20 10 30.5t29 10.5zM1035 493q-1 -130 -6 -267.5t-15 -276.5q-17 0 -37 2.5t-29 6.5q19 106 28.5 227t10.5 273q-1 26 -25.5 45t-74.5 32q-3 10 -3 24t3 22q37 -9 67.5 -22.5t50.5 -30.5
q14 16 41.5 29.5t64.5 23.5q3 -7 3 -21t-3 -25q-27 -8 -46 -18.5t-30 -23.5zM285 -1q-16 -29 -40 -45.5t-49 -16.5q-57 0 -91.5 80t-34.5 212q0 77 10 146.5t27 111.5q-15 13 -41.5 25t-65.5 23q-2 6 -2.5 12t-0.5 12q0 7 1 12.5t2 9.5q42 -9 78 -24t59 -32q13 19 39 32.5
t68 23.5q1 -4 2 -9.5t1 -12.5q0 -6 -1 -12.5t-2 -11.5q-66 -16 -92 -81t-26 -216q0 -125 15.5 -191t44.5 -66q13 0 27.5 15.5t37.5 55.5q14 -8 24 -23.5t10 -29.5zM702 549q18 0 29.5 -11.5t11.5 -29.5t-11 -28.5t-30 -10.5q-18 0 -28.5 10.5t-10.5 28.5t10.5 29.5
t28.5 11.5zM440 549q18 0 29 -11.5t11 -29.5t-11 -28.5t-29 -10.5t-28.5 10.5t-10.5 28.5t11 29.5t28 11.5zM347 453q18 0 28 -11t10 -30q0 -17 -11 -28.5t-27 -11.5q-18 0 -29.5 11.5t-11.5 29.5t11.5 29t29.5 11zM799 453q18 0 28 -10.5t10 -29.5t-10 -30t-28 -11
q-17 0 -29 12t-12 29t12 28.5t29 11.5zM834 325q18 0 28.5 -10.5t10.5 -29.5t-10.5 -30t-28.5 -11t-29 11.5t-11 29.5t11 29t29 11zM312 325q19 0 29 -10.5t10 -29.5t-10.5 -30t-28.5 -11q-19 0 -30 11t-11 30q0 18 11 29t30 11zM799 197q18 0 28 -11t10 -29q0 -20 -10 -31
t-28 -11t-29.5 12t-11.5 30q0 17 12 28.5t29 11.5zM347 197q17 0 27.5 -11t10.5 -29q0 -19 -10.5 -30.5t-27.5 -11.5q-18 0 -29.5 11.5t-11.5 30.5q0 17 11.5 28.5t29.5 11.5zM702 101q19 0 30 -11t11 -30q0 -17 -11.5 -28t-29.5 -11t-28.5 10.5t-10.5 28.5q0 19 10.5 30
t28.5 11zM440 101q18 0 29 -11t11 -30q0 -17 -11 -28t-29 -11q-17 0 -28 11t-11 28q0 18 11 29.5t28 11.5zM572 66q19 0 29.5 -11t10.5 -30t-10.5 -29.5t-29.5 -10.5t-29 10.5t-10 29.5t10.5 30t28.5 11z" />
    <glyph glyph-name="bn_aukaar" unicode="&#x9cc;" horiz-adv-x="1111" 
d="M569 585q19 0 29.5 -11t10.5 -30t-10.5 -29.5t-29.5 -10.5t-29 10.5t-10 29.5q0 20 10 30.5t29 10.5zM1035 493q-1 -130 -6 -267.5t-15 -276.5q-17 0 -37 2.5t-29 6.5q19 106 28.5 227t10.5 273q-1 26 -25.5 45t-74.5 32q-1 5 -2 11t-1 12q0 7 1 13t2 10
q37 -9 66.5 -22.5t50.5 -30.5q14 17 21.5 37t7.5 39q0 25 -17 47.5t-61 57.5q-18 14 -46 34t-37 28q-22 19 -30.5 39t-8.5 52q0 10 1 20t3 20q9 3 20.5 4.5t21.5 0.5q-2 -10 -2.5 -19.5t-0.5 -18.5q0 -23 7.5 -39.5t24.5 -31.5q9 -9 32 -24.5t35 -24.5q49 -37 70.5 -70
t21.5 -69q0 -11 -2 -23t-6 -24q11 5 24 9.5t28 8.5q1 -4 2 -9t1 -11q0 -8 -1 -14.5t-2 -11.5q-27 -8 -46 -18.5t-30 -23.5zM285 -1q-16 -29 -40 -45.5t-49 -16.5q-57 0 -91.5 80t-34.5 212q0 77 10 146.5t27 111.5q-15 13 -41.5 25t-65.5 23q-2 6 -2.5 12t-0.5 12
q0 7 1 12.5t2 9.5q42 -9 78 -24t59 -32q13 19 39 32.5t68 23.5q1 -4 2 -9.5t1 -12.5q0 -6 -1 -12.5t-2 -11.5q-66 -16 -92 -81t-26 -216q0 -125 15.5 -191t44.5 -66q13 0 27.5 15.5t37.5 55.5q14 -8 24 -23.5t10 -29.5zM699 549q18 0 29.5 -11.5t11.5 -29.5t-11 -28.5
t-30 -10.5q-18 0 -28.5 10.5t-10.5 28.5t10.5 29.5t28.5 11.5zM437 549q18 0 29 -11.5t11 -29.5t-11 -28.5t-29 -10.5t-28.5 10.5t-10.5 28.5t11 29.5t28 11.5zM796 453q18 0 28 -10.5t10 -29.5t-10 -30t-28 -11q-17 0 -29 12t-12 29t12 28.5t29 11.5zM344 453q18 0 28 -11
t10 -30q0 -17 -11 -28.5t-27 -11.5q-18 0 -29.5 11.5t-11.5 29.5t11.5 29t29.5 11zM309 325q19 0 29 -10.5t10 -29.5t-10.5 -30t-28.5 -11q-19 0 -30 11t-11 30q0 18 11 29t30 11zM831 325q18 0 28.5 -10.5t10.5 -29.5t-10.5 -30t-28.5 -11t-29 11.5t-11 29.5t11 29t29 11z
M796 197q18 0 28 -11t10 -29q0 -20 -10 -31t-28 -11t-29.5 12t-11.5 30q0 17 12 28.5t29 11.5zM344 197q17 0 27.5 -11t10.5 -29q0 -19 -10.5 -30.5t-27.5 -11.5q-18 0 -29.5 11.5t-11.5 30.5q0 17 11.5 28.5t29.5 11.5zM699 101q19 0 30 -11t11 -30q0 -17 -11.5 -28
t-29.5 -11t-28.5 10.5t-10.5 28.5q0 19 10.5 30t28.5 11zM437 101q18 0 29 -11t11 -30q0 -17 -11 -28t-29 -11q-17 0 -28 11t-11 28q0 18 11 29.5t28 11.5zM569 66q19 0 29.5 -11t10.5 -30t-10.5 -29.5t-29.5 -10.5t-29 10.5t-10 29.5t10.5 30t28.5 11z" />
    <glyph glyph-name="bn_halanth" unicode="&#x9cd;" horiz-adv-x="0" 
d="M56 -101l190 -142q-5 -12 -12 -22t-16 -17l-189 145q5 10 11.5 19t15.5 17z" />
    <glyph glyph-name="bn_khanda_ta" unicode="&#x9ce;" horiz-adv-x="428" 
d="M134 514q4 -74 31 -114t72 -40q35 0 57.5 24t22.5 62q0 45 -25.5 71t-70.5 26q-24 0 -46 -7.5t-41 -21.5zM349 132q28 -26 41 -60t13 -83q-5 -4 -19 -7t-27 -3q-2 52 -13 79t-37 48q-13 11 -34.5 23t-89.5 46q-87 43 -120.5 86t-33.5 107q0 92 56.5 158.5t134.5 66.5
q62 0 98.5 -39t36.5 -101q0 -61 -33 -102t-84 -41q-60 0 -94.5 45.5t-39.5 130.5q-19 -24 -29 -53.5t-10 -62.5q0 -31 11.5 -55t36.5 -44q12 -10 28.5 -20t72.5 -38q68 -34 93 -49.5t42 -31.5z" />
    <glyph glyph-name="bn_aumark" unicode="&#x9d7;" 
d="M148 493q-1 -130 -6 -267.5t-15 -276.5q-17 0 -37 2.5t-29 6.5q19 106 28.5 227t10.5 273q-1 26 -25.5 45t-74.5 32q-1 5 -2 11t-1 12q0 7 1 13t2 10q37 -9 66.5 -22.5t50.5 -30.5q14 17 21.5 37t7.5 39q0 25 -17 47.5t-61 57.5q-18 14 -46 34t-37 28q-22 19 -30.5 39
t-8.5 52q0 10 1 20t3 20q9 3 20.5 4.5t21.5 0.5q-2 -10 -2.5 -19.5t-0.5 -18.5q0 -23 7.5 -39.5t24.5 -31.5q9 -9 32 -24.5t35 -24.5q49 -37 70.5 -70t21.5 -69q0 -11 -2 -23t-6 -24q11 5 24 9.5t28 8.5q1 -4 2 -9t1 -11q0 -8 -1 -14.5t-2 -11.5q-27 -8 -46 -18.5t-30 -23.5
z" />
    <glyph glyph-name="bn_rra" unicode="&#x9dc;" horiz-adv-x="556" 
d="M535 203q0 -101 -49 -160.5t-134 -59.5q-115 0 -196.5 103t-145.5 344q9 7 19.5 13t22.5 12q59 -220 129.5 -318.5t170.5 -98.5q66 0 101.5 46.5t35.5 132.5q0 35 -5 68.5t-15 64.5q-44 -54 -76.5 -75.5t-63.5 -21.5q-45 0 -76 36t-31 86q0 30 8 73t29 118
q-71 -1 -135 -9t-125 -22q-2 5 -3 11.5t-1 13.5q0 6 1 11.5t3 9.5q64 18 134 26.5t147 8.5q75 0 143.5 -8.5t132.5 -26.5q2 -4 3.5 -10t1.5 -11q0 -6 -1.5 -13t-3.5 -12q-58 14 -119.5 22t-127.5 9q-30 -109 -36 -141.5t-6 -56.5q0 -32 14.5 -50t41.5 -18q22 0 52.5 25.5
t81.5 88.5q7 -1 16 -5.5t17 -9.5q21 -43 33 -94t12 -102zM322 -79q15 0 25.5 -10t10.5 -25q0 -18 -13 -30t-31 -12q-15 0 -25 10t-10 25q0 18 12.5 30t30.5 12z" />
    <glyph glyph-name="bn_rha" unicode="&#x9dd;" horiz-adv-x="468" 
d="M324 371q48 0 77.5 -32.5t29.5 -87.5q0 -42 -18.5 -87.5t-51.5 -85.5q-36 -44 -78.5 -69.5t-80.5 -25.5q-50 0 -84.5 41t-34.5 102q0 116 5 222t15 206q-30 -4 -57 -8.5t-46 -10.5q-2 8 -3 12.5t-1 10.5t1 12t3 11q34 14 96 22.5t132 8.5q66 0 127 -8t113 -23
q2 -5 2.5 -10t0.5 -12t-0.5 -13t-2.5 -11q-63 14 -121 20.5t-117 6.5q-14 0 -30 -0.5t-43 -1.5q-13 -94 -20 -214.5t-7 -236.5q0 -38 17.5 -61t46.5 -23q28 0 62.5 22.5t63.5 59.5q27 34 41.5 70.5t14.5 70.5t-15.5 53.5t-42.5 19.5q-22 0 -43.5 -13.5t-34.5 -34.5
q-6 6 -9 15.5t-3 19.5q0 7 1 13t4 12q17 18 41 28t50 10zM217 -79q15 0 26 -10t11 -25q0 -18 -12.5 -30t-30.5 -12q-15 0 -25.5 10t-10.5 25q0 18 12 30t30 12z" />
    <glyph glyph-name="bn_yya" unicode="&#x9df;" horiz-adv-x="490" 
d="M228 420l40 -33l-141 -133q71 -26 127.5 -72.5t96.5 -111.5q-3 26 -4.5 59t-1.5 76q0 108 4.5 189.5t15.5 161.5q-25 3 -52 4.5t-55 1.5q-39 0 -80 -2.5t-81 -7.5q3 -15 16.5 -32t40.5 -40q11 -10 36.5 -30t37.5 -30zM394 291q0 -102 6.5 -175.5t19.5 -119.5
q-9 -6 -23 -9t-31 -3q-53 97 -119.5 152.5t-150.5 73.5q-17 12 -25 25t-10 30l141 129q-8 7 -20 16t-39 27q-58 40 -80.5 62t-30.5 43q-4 -1 -8.5 -1.5t-12.5 -2.5q-5 -2 -7.5 -2.5t-4.5 -0.5q-4 12 -4.5 25.5t4.5 20.5q51 14 121.5 22.5t140.5 8.5q56 0 116.5 -8.5
t112.5 -22.5q4 -7 3.5 -20.5t-3.5 -25.5q-15 3 -33 6.5t-43 8.5q-11 -66 -15.5 -123t-4.5 -136zM157 26q0 15 10.5 25.5t25.5 10.5q18 0 29.5 -12.5t11.5 -31.5q0 -15 -10 -25t-26 -10q-18 0 -29.5 12.5t-11.5 30.5z" />
    <glyph glyph-name="bn_rri" unicode="&#x9e0;" horiz-adv-x="655" 
d="M362 52v9q0 95 5 183.5t15 166.5q-57 -25 -120.5 -64t-107.5 -77q70 -34 122.5 -89t85.5 -129zM404 56v-44t1 -25q-6 -2 -14.5 -3t-27.5 -1q-44 100 -105 161t-141 84q-11 13 -16 26.5t-6 34.5q37 38 102.5 81t138.5 78q-2 19 -12.5 36t-28.5 33q-29 -40 -69 -63.5
t-81 -23.5q-46 0 -74.5 28t-28.5 75q0 16 3.5 30.5t9.5 25.5q12 5 27.5 7.5t29.5 1.5q-8 -11 -13 -27.5t-5 -33.5q0 -27 13.5 -40.5t39.5 -13.5q35 0 70.5 21.5t61.5 59.5l36 -17q18 -13 32.5 -36t20.5 -49q5 2 10.5 4.5t10.5 4.5q2 23 6 47.5t15 76.5q14 0 27 -3.5t23 -9.5
q-22 -84 -35 -167.5t-17 -174.5q41 -27 75 -62.5t61 -79.5q-6 41 -9 89.5t-3 99.5q0 87 9.5 160.5t28.5 137.5q11 0 22 -2t20 -6q-18 -58 -28.5 -131.5t-10.5 -151.5q0 -85 11.5 -158.5t34.5 -130.5q-10 -6 -22.5 -9t-26.5 -2q-35 69 -75.5 118t-88.5 79q-1 -23 -1.5 -51
t-0.5 -84zM278 -101l-174 134v15l127 124v17l35 -8l19 -24l-122 -119l143 -100q-5 -12 -12 -22t-16 -17z" />
    <glyph glyph-name="bn_lli" unicode="&#x9e1;" horiz-adv-x="632" 
d="M594 114q0 -66 -17.5 -152t-48.5 -168q-18 2 -30 6t-21 12q4 100 -28.5 163t-87.5 63q-38 0 -62 -30t-24 -79q0 -38 16 -62t40 -24q20 0 36.5 18t26.5 51q8 -14 13 -29t6 -26q-11 -28 -33 -45t-48 -17q-40 0 -69 41.5t-29 101.5q0 38 12 69.5t35 51.5q-8 86 -41.5 136.5
t-83.5 50.5q-40 0 -65 -32.5t-25 -86.5q0 -43 16 -68.5t42 -25.5q21 0 38 19t28 56q8 -15 14 -30t7 -26q-13 -31 -36.5 -49.5t-49.5 -18.5q-41 0 -72 44t-31 108q0 70 36.5 115.5t92.5 45.5q66 0 110.5 -59.5t52.5 -159.5q20 56 34 138t14 140q0 37 -10 60.5t-32 37.5
q-14 8 -34 15t-73 19q-61 14 -85 23t-41 19q-26 17 -41.5 43.5t-22.5 67.5q10 7 22 12t21 6q11 -55 34 -79.5t81 -37.5l66 -15q85 -19 119 -65t34 -135v-3l49 -17q85 -30 115 -72t30 -121zM517 232q-9 6 -21 11.5t-76 28.5l-22 8q-3 -40 -11.5 -87.5t-22.5 -103.5
q57 -3 96 -58t47 -143q21 54 36 128t15 125q0 33 -9.5 54.5t-31.5 36.5z" />
    <glyph glyph-name="bn_likaar" unicode="&#x9e2;" horiz-adv-x="300" 
d="M278 -157q0 -38 -12 -86t-33 -95q-11 0 -22 2t-21 6q1 59 -20.5 94t-57.5 35q-22 0 -35 -13.5t-13 -36.5q0 -17 8.5 -27t21.5 -10q12 0 21.5 8t16.5 24q6 -12 11.5 -26.5t6.5 -25.5q-7 -13 -20.5 -21t-28.5 -8q-33 0 -56.5 26t-23.5 65q0 41 25 68.5t63 27.5
q42 0 71.5 -29t37.5 -79q9 29 15 59t6 51q0 25 -15.5 39.5t-67.5 27.5q-68 15 -89 34.5t-29 60.5q8 6 18.5 10t18.5 6q6 -30 19 -43t50 -21l40 -9q50 -11 72 -38t22 -76z" />
    <glyph glyph-name="bn_llikaar" unicode="&#x9e3;" horiz-adv-x="500" 
d="M436 -265q0 -35 -11.5 -78t-31.5 -85q-9 0 -19.5 2t-20.5 5q1 53 -18 83.5t-52 30.5q-19 0 -31 -12t-12 -31q0 -15 7.5 -23.5t19.5 -8.5q11 0 19.5 7t14.5 21q6 -13 11 -26t6 -22q-7 -11 -19 -18t-25 -7q-31 0 -52 23.5t-21 58.5q0 21 7 38t21 28q-8 37 -27.5 57.5
t-46.5 20.5q-22 0 -35 -13.5t-13 -36.5q0 -17 8.5 -27t21.5 -10q12 0 21.5 8t16.5 24q6 -12 11.5 -26.5t6.5 -25.5q-7 -13 -20.5 -21t-28.5 -8q-33 0 -56.5 26t-23.5 65q0 41 25 68.5t63 27.5q42 0 71.5 -29t37.5 -79q9 29 15 59t6 51q0 25 -15.5 39.5t-67.5 27.5
q-68 15 -89 34.5t-29 60.5q8 6 18.5 10t18.5 6q6 -30 19 -43t50 -21l40 -9q50 -11 72 -36.5t22 -71.5l30 -8q45 -11 65 -36t20 -70zM400 -257q0 24 -16 38.5t-59 24.5l-6 1q-2 -17 -6 -35t-9 -35q30 -7 49.5 -31.5t25.5 -62.5q9 24 15 51.5t6 48.5z" />
    <glyph glyph-name="bn_zero" unicode="&#x9e6;" horiz-adv-x="550" 
d="M294 584q87 0 135 -68t48 -190q0 -141 -62 -243t-160 -102q-87 0 -135 68.5t-48 189.5q0 141 62 243t160 102zM293 525q-79 0 -128.5 -79t-49.5 -203q0 -97 37.5 -150t103.5 -53q79 0 128.5 79t49.5 203q0 97 -37.5 150t-103.5 53z" />
    <glyph glyph-name="bn_one" unicode="&#x9e7;" horiz-adv-x="550" 
d="M417 330q26 -29 39 -63.5t13 -75.5q0 -89 -52.5 -149t-131.5 -60q-63 0 -102 39t-39 99q0 56 32.5 94.5t81.5 38.5q35 0 62.5 -21.5t44.5 -60.5q-5 -10 -15.5 -20.5t-21.5 -16.5q-10 37 -27.5 55t-42.5 18q-30 0 -50 -23.5t-20 -58.5q0 -41 27.5 -67t71.5 -26
q59 0 98.5 45t39.5 111q0 36 -13.5 66t-41.5 57q-17 16 -40.5 32t-75.5 45q-90 51 -120.5 84.5t-37.5 73.5q12 14 23.5 23t23.5 14q7 -42 36 -76.5t116 -86.5q54 -32 79 -51t43 -39z" />
    <glyph glyph-name="bn_two" unicode="&#x9e8;" horiz-adv-x="550" 
d="M517 9q-4 -9 -9.5 -18t-18.5 -25q-96 89 -193 142.5t-206 77.5l-20 71q48 -18 89 -27t76 -9q64 0 96.5 24.5t32.5 71.5q0 35 -24.5 62.5t-104.5 65.5q-68 33 -91 54t-28 47q12 14 23.5 23t23.5 14q5 -29 27 -51.5t87 -56.5q83 -43 109 -78t26 -83q0 -62 -39 -98t-110 -42
q67 -31 131 -72.5t123 -92.5z" />
    <glyph glyph-name="bn_three" unicode="&#x9e9;" horiz-adv-x="550" 
d="M332 584q71 0 120.5 -94.5t49.5 -238.5q0 -129 -41 -199.5t-117 -70.5q-103 0 -181.5 136.5t-130.5 410.5q8 7 18.5 11t23.5 6q47 -243 117.5 -374t155.5 -131q54 0 81 54.5t27 162.5q0 123 -33.5 203t-81.5 80q-26 0 -40 -25.5t-14 -73.5q0 -57 15.5 -105.5t42.5 -75.5
q-9 -5 -25.5 -8.5t-30.5 -3.5q-25 36 -39.5 86.5t-14.5 102.5q0 66 26.5 106.5t71.5 40.5z" />
    <glyph glyph-name="bn_four" unicode="&#x9ea;" horiz-adv-x="554" 
d="M472 162q0 -75 -60.5 -128t-155.5 -53q-79 0 -125 38t-46 102q0 43 24 77.5t76 65.5q-50 13 -80 50.5t-30 87.5q0 76 60.5 128.5t154.5 52.5q80 0 126 -38.5t46 -101.5q0 -43 -23.5 -78t-73.5 -66q49 -14 78 -51t29 -86zM305 530q-83 0 -133 -40t-50 -100q0 -44 31.5 -69
t89.5 -27q70 34 84.5 42t26.5 16q34 22 50 46t16 53q0 39 -29 59t-86 20zM127 112q0 -38 29.5 -58t84.5 -20q84 0 134 40.5t50 102.5q0 42 -30 66.5t-83 26.5q-2 -1 -46 -22.5t-68 -36.5q-37 -23 -54 -47t-17 -52z" />
    <glyph glyph-name="bn_five" unicode="&#x9eb;" horiz-adv-x="550" 
d="M384 184q0 -47 14.5 -85t42.5 -63q-27 -23 -74.5 -39t-92.5 -16q-94 0 -149.5 65.5t-55.5 174.5q0 103 51 204.5t128 164.5q13 -61 60 -104t103 -43q17 0 34.5 4t25.5 10l25 -56q-62 -52 -87 -103.5t-25 -113.5zM119 210q0 -88 40 -137t111 -49q29 0 56.5 9t50.5 27
q-19 28 -29 63t-10 75q0 56 19.5 105t61.5 97h-3.5h-3.5q-50 0 -97 28t-78 77q-54 -57 -86 -136t-32 -159z" />
    <glyph glyph-name="bn_six" unicode="&#x9ec;" horiz-adv-x="550" 
d="M500 205q0 -104 -45 -163t-124 -59q-103 0 -177 106t-132 353q10 5 21 8t23 5q52 -218 115 -317.5t151 -99.5q62 0 93 46t31 136q0 35 -4.5 67.5t-12.5 60.5q-37 -52 -66.5 -73.5t-59.5 -21.5q-42 0 -70.5 36.5t-28.5 85.5q0 7 1 17.5t4 32.5q3 18 3.5 25.5t0.5 12.5
q0 30 -23 50.5t-70 32.5q12 14 23.5 23t23.5 14q47 -21 69.5 -48.5t22.5 -63.5q0 -7 -0.5 -16.5t-2.5 -29.5q-3 -23 -3.5 -35t-0.5 -21q0 -33 12 -50.5t33 -17.5t45.5 22t73.5 91q8 -1 17 -5.5t17 -9.5q19 -43 29.5 -94t10.5 -100z" />
    <glyph glyph-name="bn_seven" unicode="&#x9ed;" horiz-adv-x="550" 
d="M501 22q-11 -17 -21 -27t-21 -16q-51 21 -69 46t-18 78q0 22 2.5 52t9.5 90q-29 -7 -62.5 -11t-64.5 -4q-86 0 -140.5 37.5t-54.5 98.5q0 37 21.5 78t58.5 74q35 32 76.5 49t83.5 17q67 0 109.5 -41.5t42.5 -103.5q0 -15 -2.5 -39.5t-10.5 -85.5q-12 -85 -15.5 -127.5
t-3.5 -73.5q0 -46 17.5 -64.5t61.5 -26.5zM120 357q0 -41 27 -59t93 -18q41 0 77 6t76 20q12 88 14 106.5t2 30.5q0 43 -23 65.5t-68 22.5q-78 0 -138 -53.5t-60 -120.5z" />
    <glyph glyph-name="bn_eight" unicode="&#x9ee;" horiz-adv-x="550" 
d="M365 71q-33 -41 -73 -64.5t-79 -23.5q-59 0 -98 43t-39 113q0 13 1.5 33.5t5.5 71.5q8 83 10.5 127t2.5 80q0 48 -17.5 66t-58.5 25q11 17 21 27.5t20 16.5q49 -18 67 -44t18 -83q0 -35 -3 -78.5t-12 -127.5q-6 -57 -7.5 -80t-1.5 -38q0 -49 19 -74.5t56 -25.5
q67 0 123 67t56 147q0 38 -17.5 57t-51.5 19q-24 0 -54 -9t-62 -26q-6 15 -9 28.5t-3 27.5l18.5 7.5t33.5 11.5q15 5 29 7t27 2q15 0 30.5 -3.5t42.5 -14.5q23 -9 35.5 -12t23.5 -3q27 0 55 15.5t51 41.5q8 -13 13 -26.5t8 -27.5q-18 -21 -44 -34t-52 -13q-10 0 -20 2t-20 5
q11 -14 16.5 -31t5.5 -36q0 -39 -18 -83t-49 -83z" />
    <glyph glyph-name="bn_nine" unicode="&#x9ef;" horiz-adv-x="550" 
d="M481 284q0 -60 -18.5 -140.5t-50.5 -160.5q-15 0 -27 3t-23 9q4 109 -35.5 177t-105.5 68q-45 0 -73 -31.5t-28 -82.5q0 -42 18.5 -67.5t47.5 -25.5q23 0 42 19.5t31 55.5q11 -19 16 -32.5t6 -23.5q-14 -30 -40.5 -49t-55.5 -19q-45 0 -79 44t-34 107q0 69 40 113.5
t102 44.5q70 0 120 -57t61 -152q18 48 29.5 111.5t11.5 111.5q0 37 -11.5 57.5t-40.5 32.5q-10 4 -23.5 8t-84.5 21q-52 12 -73.5 18.5t-37.5 13.5q-28 13 -45.5 33t-27.5 51q10 14 21.5 25t25.5 20q9 -41 22.5 -59.5t39.5 -30.5q14 -7 35.5 -13t75.5 -19q98 -23 133.5 -63
t35.5 -118z" />
    <glyph glyph-name="asa_ra" unicode="&#x9f0;" horiz-adv-x="456" 
d="M363 291q0 -97 7 -172.5t20 -122.5q-9 -6 -23 -9t-31 -3q-52 103 -120 163.5t-154 79.5q-12 12 -18.5 25.5t-8.5 32.5q44 54 128.5 116t171.5 103q2 18 3.5 29t3.5 21q-30 4 -56 5.5t-48 1.5q-55 0 -120 -7t-119 -19q-3 5 -4 11t-1 14q0 6 1.5 11.5t3.5 9.5
q48 13 116 21.5t127 8.5q51 0 109.5 -8.5t104.5 -21.5q2 -3 3 -8.5t1 -11.5q0 -7 -1 -13.5t-3 -12.5q-17 4 -35.5 7.5t-36.5 6.5q-12 -65 -16.5 -121.5t-4.5 -136.5zM187 352q40 -18 72.5 -47.5t56.5 -69.5q1 52 3.5 102t7.5 104q-30 -14 -67 -37.5t-73 -51.5zM95 271
q72 -29 128.5 -78.5t97.5 -118.5q-3 23 -4 49t-1 56q-30 55 -72.5 90.5t-96.5 50.5q-24 -22 -34 -31.5t-18 -17.5z" />
    <glyph glyph-name="asa_ba" unicode="&#x9f1;" horiz-adv-x="456" 
d="M364 291q0 -97 7 -172.5t20 -122.5q-9 -6 -23 -9t-31 -3q-52 103 -120 163.5t-154 79.5q-12 12 -18.5 25.5t-8.5 32.5q44 54 128.5 116t171.5 103q2 18 3.5 29t3.5 21q-30 4 -56 5.5t-48 1.5q-55 0 -120 -7t-119 -19q-3 5 -4 11t-1 14q0 6 1.5 11.5t3.5 9.5
q48 13 116 21.5t127 8.5q51 0 109.5 -8.5t104.5 -21.5q2 -3 3 -8.5t1 -11.5q0 -7 -1 -13.5t-3 -12.5q-17 4 -35.5 7.5t-36.5 6.5q-12 -65 -16.5 -121.5t-4.5 -136.5zM322 74q-3 26 -4 57t-1 68q0 63 2.5 122.5t8.5 119.5q-55 -27 -121.5 -75t-110.5 -95q72 -29 128.5 -78.5
t97.5 -118.5zM203 9q-26 42 -76.5 74.5t-102.5 42.5q1 13 5 26t11 24q58 -19 110.5 -59.5t76.5 -88.5q-4 -6 -9.5 -10.5t-14.5 -8.5z" />
    <glyph glyph-name="bn_rupeemark" unicode="&#x9f2;" horiz-adv-x="550" 
d="M-6 481l37 55q154 -92 276 -224t210 -303q-4 -9 -9.5 -18t-18.5 -25q-73 161 -197 290t-298 225z" />
    <glyph glyph-name="bn_rupeesign" unicode="&#x9f3;" horiz-adv-x="468" 
d="M324 371q48 0 77.5 -32.5t29.5 -87.5q0 -42 -18.5 -87.5t-51.5 -85.5q-36 -44 -78.5 -69.5t-80.5 -25.5q-50 0 -84.5 41t-34.5 102q0 76 3 157t10 181q-35 -5 -58 -9.5t-38 -9.5q-2 8 -3 12.5t-1 10.5t1 12t3 11q16 7 42 12.5t58 10.5q2 27 5.5 58t9.5 90q3 31 5 46.5
t3 28.5l56 13q-8 -49 -15.5 -108t-13.5 -123q19 2 38.5 2.5t39.5 0.5q66 0 127 -8t113 -23q2 -5 2.5 -10t0.5 -12t-0.5 -13t-2.5 -11q-63 14 -121 20.5t-117 6.5q-22 0 -43 -0.5t-41 -2.5q-8 -93 -12 -184.5t-4 -175.5q0 -38 17.5 -61t46.5 -23q28 0 62.5 22.5t63.5 59.5
q27 34 41.5 70.5t14.5 70.5t-15.5 53.5t-42.5 19.5q-22 0 -43.5 -13.5t-34.5 -34.5q-6 6 -9 15.5t-3 19.5q0 7 1 13t4 12q17 18 41 28t50 10z" />
    <glyph glyph-name="bn_currency1" unicode="&#x9f4;" horiz-adv-x="512" 
d="M492 550q-51 -167 -148.5 -308.5t-242.5 -255.5l-37 55q142 98 239 230t146 295q10 -2 21 -6t22 -10z" />
    <glyph glyph-name="bn_currency2" unicode="&#x9f5;" horiz-adv-x="512" 
d="M492 550q-51 -167 -148.5 -308.5t-242.5 -255.5l-37 55q25 17 42.5 30.5t32.5 25.5q46 41 70 84.5t24 85.5q0 46 -29 76.5t-68 30.5q-35 0 -55 -16.5t-20 -45.5q0 -28 19 -43.5t54 -15.5q17 0 32 3.5t23 8.5q0 -12 -1.5 -28t-4.5 -28q-4 -4 -15.5 -6.5t-26.5 -2.5
q-54 0 -88 32t-34 83q0 49 32.5 80t83.5 31q62 0 101.5 -41.5t39.5 -109.5q0 -11 -1.5 -22.5t-4.5 -24.5q60 73 105 158t74 180q10 -2 21 -6t22 -10zM64 41l3 2l-1 -0.5t-2 -1.5z" />
    <glyph glyph-name="bn_currency3" unicode="&#x9f6;" horiz-adv-x="512" 
d="M293 366q0 34 -22.5 55t-58.5 21t-54 -18t-18 -55q0 -17 3.5 -32t8.5 -23q-12 0 -28 1.5t-28 4.5q-4 4 -6.5 15.5t-2.5 26.5q0 55 33 88.5t88 33.5q58 0 98 -33.5t40 -83.5q0 -35 -12 -63.5t-37 -51.5q-16 -15 -39 -29t-71 -36q-63 -29 -81.5 -47t-18.5 -41
q0 -33 28 -51.5t74 -18.5q101 0 179 130t141 407q10 -2 20.5 -6t22.5 -10q-72 -313 -155 -439.5t-203 -126.5q-76 0 -117.5 31.5t-41.5 86.5q0 38 24 65.5t102 61.5q81 36 106.5 66t25.5 71z" />
    <glyph glyph-name="bn_currency4" unicode="&#x9f7;" horiz-adv-x="255" 
d="M109 262q0 -104 7.5 -193t21.5 -150l-69 24q0 7 -0.5 16l-1.5 27q-1 31 -1.5 47t-0.5 30q0 205 5 308.5t17 215.5l37 8q-11 -163 -13 -220.5t-2 -112.5z" />
    <glyph glyph-name="bn_currencyless" unicode="&#x9f8;" horiz-adv-x="469" 
d="M406 2q-13 -6 -25 -10.5t-25 -7.5q-11 45 -17 95.5t-6 103.5q0 55 6.5 110.5t18.5 103.5q-75 -52 -146 -127.5t-114 -149.5q-14 2 -28.5 9.5t-22.5 15.5q31 103 48.5 225t19.5 238l34 6q1 -13 1.5 -30t0.5 -52q0 -75 -8.5 -154.5t-24.5 -144.5q54 72 118 131t133 101
q14 -7 24.5 -17.5t19.5 -25.5q-16 -49 -24 -102.5t-8 -110.5q0 -50 6.5 -102t18.5 -105z" />
    <glyph glyph-name="bn_currency16" unicode="&#x9f9;" horiz-adv-x="550" 
d="M272 584q78 0 121.5 -46.5t43.5 -129.5q0 -97 -56 -166.5t-144 -69.5q-78 0 -121.5 47t-43.5 130q0 96 56 165.5t144 69.5zM270 536q-71 0 -115.5 -52t-44.5 -133q0 -63 34 -97.5t93 -34.5q72 0 116 52t44 134q0 63 -33.5 97t-93.5 34z" />
    <glyph glyph-name="bn_isshar" unicode="&#x9fa;" horiz-adv-x="500" 
d="M307 240q59 0 88.5 52t29.5 155l47 -6q0 -124 -43.5 -192t-124.5 -68q-97 0 -169.5 96t-102.5 251q8 7 18.5 11t23.5 6q27 -140 90.5 -222.5t142.5 -82.5zM222 437q0 17 12.5 29t29.5 12q20 0 33.5 -15t13.5 -36q0 -18 -12 -29t-30 -11q-20 0 -33.5 14.5t-13.5 35.5z" />
    <glyph glyph-name="uni200C" unicode="&#x200c;" horiz-adv-x="0" 
 />
    <glyph glyph-name="uni200D" unicode="&#x200d;" horiz-adv-x="0" 
 />
    <glyph glyph-name="endash" unicode="&#x2013;" horiz-adv-x="400" 
d="M365 255q-88 -8 -169.5 -5.5t-165.5 14.5q1 18 2 27.5t3 17.5q50 -8 98.5 -12t104.5 -4q29 0 61.5 1.5t70.5 4.5q0 -9 -1 -19.5t-4 -24.5z" />
    <glyph glyph-name="emdash" unicode="&#x2014;" horiz-adv-x="560" 
d="M525 246q-138 -13 -261.5 -11t-233.5 20q1 18 2 27.5t3 17.5q82 -12 143 -16t145 -4q56 0 106.5 2.5t100.5 7.5q0 -9 -1 -19.5t-4 -24.5z" />
    <glyph glyph-name="quoteleft" unicode="&#x2018;" horiz-adv-x="129" 
d="M57 488q-25 70 -36 128.5t-11 117.5q15 4 28.5 6t28.5 1q-3 -67 3.5 -126t23.5 -126q-9 -1 -18 -1.5t-19 0.5z" />
    <glyph glyph-name="quoteright" unicode="&#x2019;" horiz-adv-x="129" 
d="M56 736q16 2 30 2t26 -1q0 -62 -9 -115.5t-33 -132.5q-8 1 -17 2.5t-18 4.5q14 77 19 137.5t2 102.5z" />
    <glyph glyph-name="quotesinglbase" unicode="&#x201a;" horiz-adv-x="122" 
d="M31 69q16 2 30 2t26 -1q0 -62 -9 -115.5t-33 -132.5q-8 1 -17 2.5t-18 4.5q14 77 19 137.5t2 102.5z" />
    <glyph glyph-name="quotedblleft" unicode="&#x201c;" horiz-adv-x="240" 
d="M57 488q-25 70 -36 128.5t-11 117.5q15 4 28.5 6t28.5 1q-3 -67 3.5 -126t23.5 -126q-9 -1 -18 -1.5t-19 0.5zM168 488q-25 70 -36 128.5t-11 117.5q15 4 28.5 6t28.5 1q-3 -67 3.5 -126t23.5 -126q-9 -1 -18 -1.5t-19 0.5z" />
    <glyph glyph-name="quotedblright" unicode="&#x201d;" horiz-adv-x="243" 
d="M56 736q16 2 30 2t26 -1q0 -62 -9 -115.5t-33 -132.5q-8 1 -17 2.5t-18 4.5q14 77 19 137.5t2 102.5zM170 736q16 2 30 2t26 -1q0 -62 -9 -115.5t-33 -132.5q-8 1 -17 2.5t-18 4.5q14 77 19 137.5t2 102.5z" />
    <glyph glyph-name="quotedblbase" unicode="&#x201e;" horiz-adv-x="235" 
d="M31 69q16 2 30 2t26 -1q0 -62 -9 -115.5t-33 -132.5q-8 1 -17 2.5t-18 4.5q14 77 19 137.5t2 102.5zM144 69q16 2 30 2t26 -1q0 -62 -9 -115.5t-33 -132.5q-8 1 -17 2.5t-18 4.5q14 77 19 137.5t2 102.5z" />
    <glyph glyph-name="dagger" unicode="&#x2020;" horiz-adv-x="455" 
d="M245 492q9 -167 7.5 -430t-1.5 -270q-12 -3 -25 -3t-29 2q1 33 1 75v135q0 200 2 303.5t6 187.5q-36 0 -71.5 -1.5t-100.5 -5.5q0 1 -2 16t-1 22q0 5 1 10t1 7q35 1 73 -0.5t101 -6.5q-3 67 -4 103.5t-1 72.5q7 2 15 2.5t18 0.5q3 0 8 -0.5t13 -1.5q-1 -38 -2.5 -77
t-5.5 -102q49 -1 89.5 1t85.5 6q0 -1 2 -16t1 -22q0 -5 -1 -10t-1 -7q-33 -1 -70 0.5t-109 8.5z" />
    <glyph glyph-name="daggerdbl" unicode="&#x2021;" horiz-adv-x="455" 
d="M250 -30q3 -67 4 -103.5t1 -72.5q-7 -2 -15 -2.5t-18 -0.5q-2 0 -7.5 0.5t-13.5 1.5q1 38 2.5 77t5.5 102q-49 1 -89.5 -1t-85.5 -6q0 1 -2 16t-1 22q0 5 1 10t1 7q33 1 69.5 -0.5t107.5 -8.5q-8 142 -9 257.5t5 223.5q-37 0 -73.5 -1.5t-98.5 -5.5q0 1 -2 16t-1 22
q0 5 1 10t1 7q35 1 73 -0.5t101 -6.5q-3 67 -4 103.5t-1 72.5q7 2 15 2.5t18 0.5q3 0 8 -0.5t13 -1.5q-1 -38 -2.5 -77t-5.5 -102q49 -1 89.5 1t85.5 6q0 -1 2 -16t1 -22q0 -5 -1 -10t-1 -7q-33 -1 -70 0.5t-108 8.5q9 -122 9.5 -216t-6.5 -265q37 0 73.5 1.5t100.5 5.5
q0 -1 2 -16t1 -22q0 -5 -1 -10t-1 -7q-35 -1 -73 0.5t-101 6.5z" />
    <glyph glyph-name="bullet" unicode="&#x2022;" horiz-adv-x="203" 
d="M35 327q28 8 61.5 9.5t71.5 -3.5q-1 -38 -3.5 -64.5t-6.5 -51.5q-35 -3 -62.5 -3t-55.5 3q-4 57 -4.5 74t-0.5 36z" />
    <glyph glyph-name="ellipsis" unicode="&#x2026;" horiz-adv-x="438" 
d="M35 66q22 5 41 5.5t38 -2.5q-1 -26 -2.5 -40t-3.5 -28q-20 -2 -36.5 -2t-33.5 2q0 5 -0.5 11t-0.5 16l-1.5 22.5t-0.5 15.5zM179 66q22 5 41 5.5t38 -2.5q-1 -26 -2.5 -40t-3.5 -28q-20 -2 -36.5 -2t-33.5 2q0 5 -0.5 11t-0.5 16l-1.5 22.5t-0.5 15.5zM324 65
q22 5 41 5.5t38 -2.5q-1 -26 -2.5 -40t-3.5 -28q-20 -2 -36.5 -2t-33.5 2q0 5 -0.5 11t-0.5 16l-1.5 22.5t-0.5 15.5z" />
    <glyph glyph-name="perthousand" unicode="&#x2030;" horiz-adv-x="1093" 
d="M497 778q14 -6 24.5 -11.5t20.5 -12.5q-76 -191 -156.5 -364t-208.5 -419q-6 2 -11 4.5t-10 6.5q-4 2 -10 7t-9 7q104 200 181.5 368t178.5 414zM40 523q0 107 43.5 167.5t120.5 60.5q58 0 91 -48t33 -130q0 -123 -39.5 -190t-111.5 -67q-62 0 -99.5 58t-37.5 149z
M275 546q0 87 -20 127.5t-63 40.5q-44 0 -71.5 -50.5t-27.5 -133.5q0 -79 25.5 -128t66.5 -49t65.5 52.5t24.5 140.5zM765 197q0 107 43.5 167.5t120.5 60.5q58 0 91 -48t33 -130q0 -123 -39.5 -190t-111.5 -67q-62 0 -99.5 58t-37.5 149zM430 197q0 107 43.5 167.5
t120.5 60.5q58 0 91 -48t33 -130q0 -123 -39.5 -190t-111.5 -67q-62 0 -99.5 58t-37.5 149zM1000 220q0 87 -20 127.5t-63 40.5q-44 0 -71.5 -50.5t-27.5 -133.5q0 -79 25.5 -128t66.5 -49t65.5 52.5t24.5 140.5zM665 220q0 87 -20 127.5t-63 40.5q-44 0 -71.5 -50.5
t-27.5 -133.5q0 -79 25.5 -128t66.5 -49t65.5 52.5t24.5 140.5z" />
    <glyph glyph-name="guilsinglleft" unicode="&#x2039;" horiz-adv-x="251" 
d="M221 109q-12 -17 -20 -25t-17 -14q-57 43 -99.5 90.5t-74.5 103.5q43 26 86.5 69.5t81.5 99.5q17 -12 25 -20t14 -17q-33 -44 -69.5 -80t-78.5 -65q27 -38 66 -74t86 -68z" />
    <glyph glyph-name="guilsinglright" unicode="&#x203a;" horiz-adv-x="251" 
d="M241 264q-32 -56 -74.5 -103.5t-99.5 -90.5q-9 6 -17 14t-20 25q47 32 86 68t66 74q-42 29 -78.5 65t-69.5 80q6 9 14 17t25 20q38 -56 81.5 -99.5t86.5 -69.5z" />
    <glyph glyph-name="fraction" unicode="&#x2044;" horiz-adv-x="285" 
d="M300 781q14 -6 24.5 -11.5t20.5 -12.5q-76 -191 -156.5 -364t-208.5 -419q-6 2 -11 4.5t-10 6.5q-4 2 -10 7t-9 7q104 200 181.5 368t178.5 414z" />
    </font>
</defs>
</svg>
